G04*
G04 #@! TF.GenerationSoftware,Altium Limited,Altium Designer,21.5.1 (32)*
G04*
G04 Layer_Physical_Order=1*
G04 Layer_Color=255*
%FSLAX44Y44*%
%MOMM*%
G71*
G04*
G04 #@! TF.SameCoordinates,C2353FAA-8F2D-43E4-B4A7-D176906AD12A*
G04*
G04*
G04 #@! TF.FilePolarity,Positive*
G04*
G01*
G75*
%ADD12C,0.2000*%
%ADD13C,0.1270*%
G04:AMPARAMS|DCode=47|XSize=3.2mm|YSize=1.5mm|CornerRadius=0.1875mm|HoleSize=0mm|Usage=FLASHONLY|Rotation=0.000|XOffset=0mm|YOffset=0mm|HoleType=Round|Shape=RoundedRectangle|*
%AMROUNDEDRECTD47*
21,1,3.2000,1.1250,0,0,0.0*
21,1,2.8250,1.5000,0,0,0.0*
1,1,0.3750,1.4125,-0.5625*
1,1,0.3750,-1.4125,-0.5625*
1,1,0.3750,-1.4125,0.5625*
1,1,0.3750,1.4125,0.5625*
%
%ADD47ROUNDEDRECTD47*%
G04:AMPARAMS|DCode=48|XSize=0.8mm|YSize=1.4mm|CornerRadius=0.1mm|HoleSize=0mm|Usage=FLASHONLY|Rotation=270.000|XOffset=0mm|YOffset=0mm|HoleType=Round|Shape=RoundedRectangle|*
%AMROUNDEDRECTD48*
21,1,0.8000,1.2000,0,0,270.0*
21,1,0.6000,1.4000,0,0,270.0*
1,1,0.2000,-0.6000,-0.3000*
1,1,0.2000,-0.6000,0.3000*
1,1,0.2000,0.6000,0.3000*
1,1,0.2000,0.6000,-0.3000*
%
%ADD48ROUNDEDRECTD48*%
G04:AMPARAMS|DCode=49|XSize=1mm|YSize=1.4mm|CornerRadius=0.125mm|HoleSize=0mm|Usage=FLASHONLY|Rotation=270.000|XOffset=0mm|YOffset=0mm|HoleType=Round|Shape=RoundedRectangle|*
%AMROUNDEDRECTD49*
21,1,1.0000,1.1500,0,0,270.0*
21,1,0.7500,1.4000,0,0,270.0*
1,1,0.2500,-0.5750,-0.3750*
1,1,0.2500,-0.5750,0.3750*
1,1,0.2500,0.5750,0.3750*
1,1,0.2500,0.5750,-0.3750*
%
%ADD49ROUNDEDRECTD49*%
G04:AMPARAMS|DCode=50|XSize=1.9mm|YSize=1.2mm|CornerRadius=0.15mm|HoleSize=0mm|Usage=FLASHONLY|Rotation=270.000|XOffset=0mm|YOffset=0mm|HoleType=Round|Shape=RoundedRectangle|*
%AMROUNDEDRECTD50*
21,1,1.9000,0.9000,0,0,270.0*
21,1,1.6000,1.2000,0,0,270.0*
1,1,0.3000,-0.4500,-0.8000*
1,1,0.3000,-0.4500,0.8000*
1,1,0.3000,0.4500,0.8000*
1,1,0.3000,0.4500,-0.8000*
%
%ADD50ROUNDEDRECTD50*%
G04:AMPARAMS|DCode=51|XSize=1.9mm|YSize=1.5mm|CornerRadius=0.1875mm|HoleSize=0mm|Usage=FLASHONLY|Rotation=270.000|XOffset=0mm|YOffset=0mm|HoleType=Round|Shape=RoundedRectangle|*
%AMROUNDEDRECTD51*
21,1,1.9000,1.1250,0,0,270.0*
21,1,1.5250,1.5000,0,0,270.0*
1,1,0.3750,-0.5625,-0.7625*
1,1,0.3750,-0.5625,0.7625*
1,1,0.3750,0.5625,0.7625*
1,1,0.3750,0.5625,-0.7625*
%
%ADD51ROUNDEDRECTD51*%
G04:AMPARAMS|DCode=52|XSize=1.35mm|YSize=0.4mm|CornerRadius=0.05mm|HoleSize=0mm|Usage=FLASHONLY|Rotation=270.000|XOffset=0mm|YOffset=0mm|HoleType=Round|Shape=RoundedRectangle|*
%AMROUNDEDRECTD52*
21,1,1.3500,0.3000,0,0,270.0*
21,1,1.2500,0.4000,0,0,270.0*
1,1,0.1000,-0.1500,-0.6250*
1,1,0.1000,-0.1500,0.6250*
1,1,0.1000,0.1500,0.6250*
1,1,0.1000,0.1500,-0.6250*
%
%ADD52ROUNDEDRECTD52*%
G04:AMPARAMS|DCode=53|XSize=3.1mm|YSize=3.1mm|CornerRadius=0.3875mm|HoleSize=0mm|Usage=FLASHONLY|Rotation=135.000|XOffset=0mm|YOffset=0mm|HoleType=Round|Shape=RoundedRectangle|*
%AMROUNDEDRECTD53*
21,1,3.1000,2.3250,0,0,135.0*
21,1,2.3250,3.1000,0,0,135.0*
1,1,0.7750,0.0000,1.6440*
1,1,0.7750,1.6440,0.0000*
1,1,0.7750,0.0000,-1.6440*
1,1,0.7750,-1.6440,0.0000*
%
%ADD53ROUNDEDRECTD53*%
G04:AMPARAMS|DCode=54|XSize=0.64mm|YSize=0.7mm|CornerRadius=0.08mm|HoleSize=0mm|Usage=FLASHONLY|Rotation=90.000|XOffset=0mm|YOffset=0mm|HoleType=Round|Shape=RoundedRectangle|*
%AMROUNDEDRECTD54*
21,1,0.6400,0.5400,0,0,90.0*
21,1,0.4800,0.7000,0,0,90.0*
1,1,0.1600,0.2700,0.2400*
1,1,0.1600,0.2700,-0.2400*
1,1,0.1600,-0.2700,-0.2400*
1,1,0.1600,-0.2700,0.2400*
%
%ADD54ROUNDEDRECTD54*%
G04:AMPARAMS|DCode=55|XSize=0.64mm|YSize=0.7mm|CornerRadius=0.08mm|HoleSize=0mm|Usage=FLASHONLY|Rotation=180.000|XOffset=0mm|YOffset=0mm|HoleType=Round|Shape=RoundedRectangle|*
%AMROUNDEDRECTD55*
21,1,0.6400,0.5400,0,0,180.0*
21,1,0.4800,0.7000,0,0,180.0*
1,1,0.1600,-0.2400,0.2700*
1,1,0.1600,0.2400,0.2700*
1,1,0.1600,0.2400,-0.2700*
1,1,0.1600,-0.2400,-0.2700*
%
%ADD55ROUNDEDRECTD55*%
G04:AMPARAMS|DCode=56|XSize=1mm|YSize=1.45mm|CornerRadius=0.125mm|HoleSize=0mm|Usage=FLASHONLY|Rotation=90.000|XOffset=0mm|YOffset=0mm|HoleType=Round|Shape=RoundedRectangle|*
%AMROUNDEDRECTD56*
21,1,1.0000,1.2000,0,0,90.0*
21,1,0.7500,1.4500,0,0,90.0*
1,1,0.2500,0.6000,0.3750*
1,1,0.2500,0.6000,-0.3750*
1,1,0.2500,-0.6000,-0.3750*
1,1,0.2500,-0.6000,0.3750*
%
%ADD56ROUNDEDRECTD56*%
G04:AMPARAMS|DCode=57|XSize=0.9mm|YSize=0.6mm|CornerRadius=0.075mm|HoleSize=0mm|Usage=FLASHONLY|Rotation=180.000|XOffset=0mm|YOffset=0mm|HoleType=Round|Shape=RoundedRectangle|*
%AMROUNDEDRECTD57*
21,1,0.9000,0.4500,0,0,180.0*
21,1,0.7500,0.6000,0,0,180.0*
1,1,0.1500,-0.3750,0.2250*
1,1,0.1500,0.3750,0.2250*
1,1,0.1500,0.3750,-0.2250*
1,1,0.1500,-0.3750,-0.2250*
%
%ADD57ROUNDEDRECTD57*%
G04:AMPARAMS|DCode=58|XSize=3.25mm|YSize=2.15mm|CornerRadius=0.2688mm|HoleSize=0mm|Usage=FLASHONLY|Rotation=90.000|XOffset=0mm|YOffset=0mm|HoleType=Round|Shape=RoundedRectangle|*
%AMROUNDEDRECTD58*
21,1,3.2500,1.6125,0,0,90.0*
21,1,2.7125,2.1500,0,0,90.0*
1,1,0.5375,0.8063,1.3563*
1,1,0.5375,0.8063,-1.3563*
1,1,0.5375,-0.8063,-1.3563*
1,1,0.5375,-0.8063,1.3563*
%
%ADD58ROUNDEDRECTD58*%
G04:AMPARAMS|DCode=59|XSize=0.9mm|YSize=2.15mm|CornerRadius=0.1125mm|HoleSize=0mm|Usage=FLASHONLY|Rotation=90.000|XOffset=0mm|YOffset=0mm|HoleType=Round|Shape=RoundedRectangle|*
%AMROUNDEDRECTD59*
21,1,0.9000,1.9250,0,0,90.0*
21,1,0.6750,2.1500,0,0,90.0*
1,1,0.2250,0.9625,0.3375*
1,1,0.2250,0.9625,-0.3375*
1,1,0.2250,-0.9625,-0.3375*
1,1,0.2250,-0.9625,0.3375*
%
%ADD59ROUNDEDRECTD59*%
G04:AMPARAMS|DCode=60|XSize=1.15mm|YSize=1.4mm|CornerRadius=0mm|HoleSize=0mm|Usage=FLASHONLY|Rotation=135.000|XOffset=0mm|YOffset=0mm|HoleType=Round|Shape=Rectangle|*
%AMROTATEDRECTD60*
4,1,4,0.9016,0.0884,-0.0884,-0.9016,-0.9016,-0.0884,0.0884,0.9016,0.9016,0.0884,0.0*
%
%ADD60ROTATEDRECTD60*%

G04:AMPARAMS|DCode=61|XSize=0.25mm|YSize=0.9mm|CornerRadius=0.0313mm|HoleSize=0mm|Usage=FLASHONLY|Rotation=135.000|XOffset=0mm|YOffset=0mm|HoleType=Round|Shape=RoundedRectangle|*
%AMROUNDEDRECTD61*
21,1,0.2500,0.8375,0,0,135.0*
21,1,0.1875,0.9000,0,0,135.0*
1,1,0.0625,0.2298,0.3624*
1,1,0.0625,0.3624,0.2298*
1,1,0.0625,-0.2298,-0.3624*
1,1,0.0625,-0.3624,-0.2298*
%
%ADD61ROUNDEDRECTD61*%
G04:AMPARAMS|DCode=62|XSize=0.25mm|YSize=0.9mm|CornerRadius=0.0313mm|HoleSize=0mm|Usage=FLASHONLY|Rotation=225.000|XOffset=0mm|YOffset=0mm|HoleType=Round|Shape=RoundedRectangle|*
%AMROUNDEDRECTD62*
21,1,0.2500,0.8375,0,0,225.0*
21,1,0.1875,0.9000,0,0,225.0*
1,1,0.0625,-0.3624,0.2298*
1,1,0.0625,-0.2298,0.3624*
1,1,0.0625,0.3624,-0.2298*
1,1,0.0625,0.2298,-0.3624*
%
%ADD62ROUNDEDRECTD62*%
G04:AMPARAMS|DCode=63|XSize=0.3mm|YSize=0.7mm|CornerRadius=0.0375mm|HoleSize=0mm|Usage=FLASHONLY|Rotation=180.000|XOffset=0mm|YOffset=0mm|HoleType=Round|Shape=RoundedRectangle|*
%AMROUNDEDRECTD63*
21,1,0.3000,0.6250,0,0,180.0*
21,1,0.2250,0.7000,0,0,180.0*
1,1,0.0750,-0.1125,0.3125*
1,1,0.0750,0.1125,0.3125*
1,1,0.0750,0.1125,-0.3125*
1,1,0.0750,-0.1125,-0.3125*
%
%ADD63ROUNDEDRECTD63*%
G04:AMPARAMS|DCode=64|XSize=0.3mm|YSize=0.7mm|CornerRadius=0.0375mm|HoleSize=0mm|Usage=FLASHONLY|Rotation=90.000|XOffset=0mm|YOffset=0mm|HoleType=Round|Shape=RoundedRectangle|*
%AMROUNDEDRECTD64*
21,1,0.3000,0.6250,0,0,90.0*
21,1,0.2250,0.7000,0,0,90.0*
1,1,0.0750,0.3125,0.1125*
1,1,0.0750,0.3125,-0.1125*
1,1,0.0750,-0.3125,-0.1125*
1,1,0.0750,-0.3125,0.1125*
%
%ADD64ROUNDEDRECTD64*%
G04:AMPARAMS|DCode=65|XSize=3.15mm|YSize=3.15mm|CornerRadius=0.3938mm|HoleSize=0mm|Usage=FLASHONLY|Rotation=90.000|XOffset=0mm|YOffset=0mm|HoleType=Round|Shape=RoundedRectangle|*
%AMROUNDEDRECTD65*
21,1,3.1500,2.3625,0,0,90.0*
21,1,2.3625,3.1500,0,0,90.0*
1,1,0.7875,1.1812,1.1812*
1,1,0.7875,1.1812,-1.1812*
1,1,0.7875,-1.1812,-1.1812*
1,1,0.7875,-1.1812,1.1812*
%
%ADD65ROUNDEDRECTD65*%
G04:AMPARAMS|DCode=66|XSize=0.5mm|YSize=0.5mm|CornerRadius=0.0625mm|HoleSize=0mm|Usage=FLASHONLY|Rotation=90.000|XOffset=0mm|YOffset=0mm|HoleType=Round|Shape=RoundedRectangle|*
%AMROUNDEDRECTD66*
21,1,0.5000,0.3750,0,0,90.0*
21,1,0.3750,0.5000,0,0,90.0*
1,1,0.1250,0.1875,0.1875*
1,1,0.1250,0.1875,-0.1875*
1,1,0.1250,-0.1875,-0.1875*
1,1,0.1250,-0.1875,0.1875*
%
%ADD66ROUNDEDRECTD66*%
G04:AMPARAMS|DCode=67|XSize=0.8mm|YSize=0.8mm|CornerRadius=0.1mm|HoleSize=0mm|Usage=FLASHONLY|Rotation=180.000|XOffset=0mm|YOffset=0mm|HoleType=Round|Shape=RoundedRectangle|*
%AMROUNDEDRECTD67*
21,1,0.8000,0.6000,0,0,180.0*
21,1,0.6000,0.8000,0,0,180.0*
1,1,0.2000,-0.3000,0.3000*
1,1,0.2000,0.3000,0.3000*
1,1,0.2000,0.3000,-0.3000*
1,1,0.2000,-0.3000,-0.3000*
%
%ADD67ROUNDEDRECTD67*%
G04:AMPARAMS|DCode=68|XSize=0.94mm|YSize=0.8mm|CornerRadius=0.1mm|HoleSize=0mm|Usage=FLASHONLY|Rotation=270.000|XOffset=0mm|YOffset=0mm|HoleType=Round|Shape=RoundedRectangle|*
%AMROUNDEDRECTD68*
21,1,0.9400,0.6000,0,0,270.0*
21,1,0.7400,0.8000,0,0,270.0*
1,1,0.2000,-0.3000,-0.3700*
1,1,0.2000,-0.3000,0.3700*
1,1,0.2000,0.3000,0.3700*
1,1,0.2000,0.3000,-0.3700*
%
%ADD68ROUNDEDRECTD68*%
G04:AMPARAMS|DCode=69|XSize=0.64mm|YSize=0.7mm|CornerRadius=0.08mm|HoleSize=0mm|Usage=FLASHONLY|Rotation=225.000|XOffset=0mm|YOffset=0mm|HoleType=Round|Shape=RoundedRectangle|*
%AMROUNDEDRECTD69*
21,1,0.6400,0.5400,0,0,225.0*
21,1,0.4800,0.7000,0,0,225.0*
1,1,0.1600,-0.3606,0.0212*
1,1,0.1600,-0.0212,0.3606*
1,1,0.1600,0.3606,-0.0212*
1,1,0.1600,0.0212,-0.3606*
%
%ADD69ROUNDEDRECTD69*%
G04:AMPARAMS|DCode=70|XSize=0.55mm|YSize=0.45mm|CornerRadius=0.0563mm|HoleSize=0mm|Usage=FLASHONLY|Rotation=270.000|XOffset=0mm|YOffset=0mm|HoleType=Round|Shape=RoundedRectangle|*
%AMROUNDEDRECTD70*
21,1,0.5500,0.3375,0,0,270.0*
21,1,0.4375,0.4500,0,0,270.0*
1,1,0.1125,-0.1688,-0.2188*
1,1,0.1125,-0.1688,0.2188*
1,1,0.1125,0.1688,0.2188*
1,1,0.1125,0.1688,-0.2188*
%
%ADD70ROUNDEDRECTD70*%
G04:AMPARAMS|DCode=71|XSize=0.55mm|YSize=0.45mm|CornerRadius=0.0563mm|HoleSize=0mm|Usage=FLASHONLY|Rotation=0.000|XOffset=0mm|YOffset=0mm|HoleType=Round|Shape=RoundedRectangle|*
%AMROUNDEDRECTD71*
21,1,0.5500,0.3375,0,0,0.0*
21,1,0.4375,0.4500,0,0,0.0*
1,1,0.1125,0.2188,-0.1688*
1,1,0.1125,-0.2188,-0.1688*
1,1,0.1125,-0.2188,0.1688*
1,1,0.1125,0.2188,0.1688*
%
%ADD71ROUNDEDRECTD71*%
G04:AMPARAMS|DCode=72|XSize=1.25mm|YSize=1.95mm|CornerRadius=0.1563mm|HoleSize=0mm|Usage=FLASHONLY|Rotation=0.000|XOffset=0mm|YOffset=0mm|HoleType=Round|Shape=RoundedRectangle|*
%AMROUNDEDRECTD72*
21,1,1.2500,1.6375,0,0,0.0*
21,1,0.9375,1.9500,0,0,0.0*
1,1,0.3125,0.4688,-0.8188*
1,1,0.3125,-0.4688,-0.8188*
1,1,0.3125,-0.4688,0.8188*
1,1,0.3125,0.4688,0.8188*
%
%ADD72ROUNDEDRECTD72*%
%ADD73C,0.3000*%
%ADD74C,0.5000*%
%ADD75C,0.4000*%
%ADD76C,0.2610*%
%ADD77C,0.2640*%
%ADD78C,0.8000*%
%ADD79C,0.6000*%
%ADD80C,1.0000*%
%ADD81C,0.4500*%
G04:AMPARAMS|DCode=82|XSize=0.55mm|YSize=0.2mm|CornerRadius=0mm|HoleSize=0mm|Usage=FLASHONLY|Rotation=135.000|XOffset=0mm|YOffset=0mm|HoleType=Round|Shape=Rectangle|*
%AMROTATEDRECTD82*
4,1,4,0.2652,-0.1237,0.1237,-0.2652,-0.2652,0.1237,-0.1237,0.2652,0.2652,-0.1237,0.0*
%
%ADD82ROTATEDRECTD82*%

%ADD83R,0.2000X0.5500*%
%ADD84O,0.9500X1.9000*%
%ADD85C,1.4500*%
%ADD86C,1.7500*%
%ADD87C,2.0000*%
%ADD88C,0.6000*%
%ADD89C,2.0600*%
G36*
X91945Y423899D02*
X92135Y423856D01*
X93453Y423658D01*
X94877Y423540D01*
X96406Y423500D01*
Y413500D01*
X94877Y413460D01*
X93453Y413342D01*
X92135Y413144D01*
X91945Y413101D01*
Y409545D01*
X91364Y410297D01*
X90678Y410969D01*
X89886Y411562D01*
X88989Y412076D01*
X88900Y412115D01*
X88811Y412076D01*
X87914Y411562D01*
X87122Y410969D01*
X86436Y410297D01*
X85855Y409545D01*
Y413101D01*
X85665Y413144D01*
X84347Y413342D01*
X82923Y413460D01*
X81394Y413500D01*
Y423500D01*
X82923Y423540D01*
X84347Y423658D01*
X85665Y423856D01*
X85855Y423899D01*
Y427455D01*
X86436Y426703D01*
X87122Y426031D01*
X87914Y425438D01*
X88811Y424924D01*
X88900Y424885D01*
X88989Y424924D01*
X89886Y425438D01*
X90678Y426031D01*
X91364Y426703D01*
X91945Y427455D01*
Y423899D01*
D02*
G37*
G36*
X112340Y423825D02*
X113453Y423658D01*
X114877Y423540D01*
X116406Y423500D01*
Y413500D01*
X114877Y413460D01*
X113453Y413342D01*
X112340Y413175D01*
Y409441D01*
X111748Y410212D01*
X111055Y410902D01*
X110262Y411511D01*
X109368Y412039D01*
X109052Y412181D01*
X108811Y412076D01*
X107914Y411562D01*
X107122Y410969D01*
X106436Y410297D01*
X105855Y409545D01*
Y413171D01*
X104792Y413338D01*
X103397Y413459D01*
X101902Y413500D01*
Y423500D01*
X103397Y423541D01*
X104792Y423662D01*
X105855Y423829D01*
Y427455D01*
X106436Y426703D01*
X107122Y426031D01*
X107914Y425438D01*
X108811Y424924D01*
X109052Y424819D01*
X109368Y424961D01*
X110262Y425489D01*
X111055Y426098D01*
X111748Y426788D01*
X112340Y427559D01*
Y423825D01*
D02*
G37*
G36*
X66052Y426788D02*
X66745Y426098D01*
X67538Y425489D01*
X68432Y424961D01*
X68748Y424819D01*
X68989Y424924D01*
X69886Y425438D01*
X70678Y426031D01*
X71364Y426703D01*
X71945Y427455D01*
Y423829D01*
X73008Y423662D01*
X74403Y423541D01*
X75898Y423500D01*
Y413500D01*
X74403Y413459D01*
X73008Y413338D01*
X71945Y413171D01*
Y409545D01*
X71364Y410297D01*
X70678Y410969D01*
X69886Y411562D01*
X68989Y412076D01*
X68748Y412181D01*
X68432Y412039D01*
X67538Y411511D01*
X66745Y410902D01*
X66052Y410212D01*
X65459Y409441D01*
Y413175D01*
X64347Y413342D01*
X62923Y413460D01*
X61394Y413500D01*
Y423500D01*
X62923Y423540D01*
X64347Y423658D01*
X65459Y423825D01*
Y427559D01*
X66052Y426788D01*
D02*
G37*
G36*
X127648Y420569D02*
X128098Y418966D01*
X128448Y416158D01*
X128698Y412144D01*
X128898Y400500D01*
X119305Y400260D01*
X124132Y393411D01*
X121104Y390688D01*
X114856Y398687D01*
X114955Y398708D01*
X115109Y398792D01*
X115316Y398938D01*
X115578Y399147D01*
X116688Y400146D01*
X118286Y401707D01*
X118881Y400861D01*
X118848Y402051D01*
X118698Y403646D01*
X118448Y405037D01*
X118098Y406223D01*
X117648Y407204D01*
X117098Y407979D01*
X116448Y408550D01*
X115698Y408916D01*
X114848Y409076D01*
X113898Y409032D01*
X123898Y410500D01*
X124848Y414925D01*
X126448Y420158D01*
X127098Y420966D01*
X127648Y420569D01*
D02*
G37*
G36*
X79120Y399753D02*
X78972Y399747D01*
X78814Y399716D01*
X78647Y399660D01*
X78470Y399580D01*
X78283Y399475D01*
X78086Y399345D01*
X77879Y399191D01*
X77437Y398808D01*
X77201Y398579D01*
X75079Y400701D01*
X75308Y400937D01*
X75691Y401379D01*
X75845Y401586D01*
X75975Y401783D01*
X76080Y401970D01*
X76160Y402147D01*
X76216Y402314D01*
X76247Y402472D01*
X76253Y402620D01*
X79120Y399753D01*
D02*
G37*
G36*
X95440Y400825D02*
X96717D01*
X96722Y400368D01*
X97678Y400027D01*
X97496Y399926D01*
X97332Y399802D01*
X97188Y399655D01*
X97063Y399484D01*
X96958Y399289D01*
X96871Y399071D01*
X96842Y398966D01*
X96853Y398900D01*
X96912Y398652D01*
X96983Y398448D01*
X97064Y398290D01*
X97156Y398177D01*
X97259Y398109D01*
X96722D01*
X96717Y397965D01*
X94352Y398109D01*
X93541D01*
X93648Y398179D01*
X93745Y398293D01*
X93830Y398452D01*
X93903Y398657D01*
X93966Y398906D01*
X94017Y399200D01*
X94045Y399442D01*
X93969Y400528D01*
X93919Y400807D01*
X93861Y401052D01*
X93795Y401262D01*
X93722Y401437D01*
X95440Y400825D01*
D02*
G37*
G36*
X90505Y401262D02*
X90439Y401052D01*
X90381Y400807D01*
X90331Y400528D01*
X90254Y399865D01*
X90246Y399712D01*
X90283Y399200D01*
X90334Y398906D01*
X90397Y398657D01*
X90470Y398452D01*
X90555Y398293D01*
X90652Y398179D01*
X90759Y398109D01*
X89948D01*
X87583Y397965D01*
X87578Y398109D01*
X87041D01*
X87144Y398177D01*
X87236Y398290D01*
X87317Y398448D01*
X87388Y398652D01*
X87447Y398900D01*
X87458Y398966D01*
X87429Y399071D01*
X87342Y399289D01*
X87237Y399484D01*
X87112Y399655D01*
X86968Y399802D01*
X86804Y399926D01*
X86622Y400027D01*
X87577Y400368D01*
X87583Y400825D01*
X88860D01*
X90578Y401437D01*
X90505Y401262D01*
D02*
G37*
G36*
X109491Y410370D02*
X110148Y409865D01*
X110713Y409302D01*
X111250Y408603D01*
X111332Y408556D01*
X111369Y408469D01*
X111595Y408375D01*
X112319Y407891D01*
X113400Y407676D01*
X113916D01*
X113962Y407659D01*
X114320Y407676D01*
X114857D01*
X115262Y407599D01*
X115680Y407395D01*
X116070Y407053D01*
X116453Y406513D01*
X116808Y405739D01*
X117109Y404720D01*
X117335Y403460D01*
X117398Y402789D01*
X116205Y401596D01*
X115748Y401149D01*
X114689Y400196D01*
X114492Y400039D01*
X114465Y400020D01*
X112778D01*
X110611Y399439D01*
X108669Y398318D01*
X107082Y396731D01*
X106475Y395679D01*
X105205Y396019D01*
Y397750D01*
X105067Y398441D01*
X104676Y399026D01*
X104091Y399417D01*
X103400Y399555D01*
X100988D01*
X100860Y399660D01*
X100240Y400700D01*
X100228Y400785D01*
X100690Y401901D01*
Y403599D01*
X100040Y405169D01*
X98839Y406370D01*
X98770Y406398D01*
X99023Y407668D01*
X104525D01*
X105752Y407912D01*
X106601Y408479D01*
X106827Y408573D01*
X106862Y408658D01*
X106942Y408704D01*
X107465Y409381D01*
X108019Y409923D01*
X108671Y410411D01*
X109051Y410629D01*
X109491Y410370D01*
D02*
G37*
G36*
X69129Y410411D02*
X69781Y409923D01*
X70335Y409381D01*
X70858Y408704D01*
X70938Y408658D01*
X70973Y408573D01*
X71199Y408479D01*
X72048Y407912D01*
X73275Y407668D01*
X74538D01*
X75064Y406398D01*
X74553Y405888D01*
X73710Y403852D01*
Y401648D01*
X73252Y400694D01*
X76798Y397148D01*
X75002Y395352D01*
X71517Y398837D01*
X71333Y397912D01*
X70868Y397637D01*
X70030Y397419D01*
X69131Y398318D01*
X67189Y399439D01*
X65022Y400020D01*
X63435D01*
X61223Y401968D01*
X60293Y402898D01*
Y407676D01*
X64400D01*
X65481Y407891D01*
X66205Y408375D01*
X66431Y408469D01*
X66468Y408556D01*
X66550Y408603D01*
X67087Y409302D01*
X67652Y409865D01*
X68309Y410370D01*
X68749Y410629D01*
X69129Y410411D01*
D02*
G37*
G36*
X60101Y401124D02*
X62845Y398708D01*
X62944Y398687D01*
X56696Y390688D01*
X53668Y393411D01*
X59514Y401707D01*
X60101Y401124D01*
D02*
G37*
G36*
X157578Y427940D02*
X155842Y426204D01*
X154319Y423566D01*
X153530Y420623D01*
Y417577D01*
X154319Y414634D01*
X155842Y411996D01*
X157996Y409842D01*
X160634Y408318D01*
X163577Y407530D01*
X166623D01*
X169566Y408318D01*
X172204Y409842D01*
X173940Y411578D01*
X175210Y411052D01*
Y401050D01*
X173940Y400798D01*
X172020Y402718D01*
X169450Y404202D01*
X166584Y404970D01*
X163616D01*
X160750Y404202D01*
X158180Y402718D01*
X156082Y400620D01*
X154598Y398050D01*
X153830Y395184D01*
Y392216D01*
X154598Y389350D01*
X156082Y386780D01*
X158180Y384682D01*
X160750Y383198D01*
X163616Y382430D01*
X166584D01*
X169450Y383198D01*
X172020Y384682D01*
X173940Y386602D01*
X175210Y386350D01*
Y375650D01*
X173940Y375398D01*
X172020Y377318D01*
X169450Y378802D01*
X166584Y379570D01*
X163616D01*
X160750Y378802D01*
X158180Y377318D01*
X156082Y375220D01*
X154598Y372650D01*
X153830Y369784D01*
Y366816D01*
X154598Y363950D01*
X156082Y361380D01*
X158180Y359282D01*
X160750Y357798D01*
X163616Y357030D01*
X166584D01*
X169450Y357798D01*
X172020Y359282D01*
X173940Y361202D01*
X175210Y360950D01*
Y350250D01*
X173940Y349998D01*
X172020Y351918D01*
X169450Y353402D01*
X166584Y354170D01*
X163616D01*
X160750Y353402D01*
X158180Y351918D01*
X156082Y349820D01*
X154598Y347250D01*
X153830Y344384D01*
Y341416D01*
X154598Y338550D01*
X156082Y335980D01*
X158180Y333882D01*
X160750Y332398D01*
X163616Y331630D01*
X166584D01*
X169450Y332398D01*
X172020Y333882D01*
X173940Y335802D01*
X175210Y335550D01*
Y324850D01*
X173940Y324598D01*
X172020Y326518D01*
X169450Y328002D01*
X166584Y328770D01*
X163616D01*
X160750Y328002D01*
X158180Y326518D01*
X156082Y324420D01*
X154598Y321850D01*
X153830Y318984D01*
Y316016D01*
X154598Y313150D01*
X156082Y310580D01*
X158180Y308482D01*
X160750Y306998D01*
X163616Y306230D01*
X166584D01*
X169450Y306998D01*
X172020Y308482D01*
X173940Y310402D01*
X175210Y310150D01*
Y299450D01*
X173940Y299198D01*
X172020Y301118D01*
X169450Y302602D01*
X166584Y303370D01*
X163616D01*
X160750Y302602D01*
X158180Y301118D01*
X156082Y299020D01*
X154598Y296450D01*
X153830Y293584D01*
Y290616D01*
X154598Y287750D01*
X156082Y285180D01*
X158180Y283082D01*
X160750Y281598D01*
X163616Y280830D01*
X166584D01*
X169450Y281598D01*
X172020Y283082D01*
X173940Y285002D01*
X175210Y284750D01*
Y274050D01*
X173940Y273798D01*
X172020Y275718D01*
X169450Y277202D01*
X166584Y277970D01*
X163616D01*
X160750Y277202D01*
X158180Y275718D01*
X156082Y273620D01*
X154598Y271050D01*
X153830Y268184D01*
Y265627D01*
X152606Y265516D01*
X151832Y267384D01*
X147964Y263516D01*
X147066Y264414D01*
X146168Y263516D01*
X142300Y267384D01*
X141526Y265516D01*
Y263312D01*
X142369Y261276D01*
X142408Y261238D01*
X141921Y260065D01*
X136717D01*
X136230Y261238D01*
X136269Y261276D01*
X137112Y263312D01*
Y265516D01*
X136338Y267384D01*
X132470Y263516D01*
X130674Y265312D01*
X131918Y266556D01*
X129472D01*
X129491Y266593D01*
X129508Y266663D01*
X129523Y266768D01*
X129547Y267079D01*
X129571Y268108D01*
X129572Y268450D01*
X133572D01*
X133584Y268222D01*
X134917Y269555D01*
X134946Y269621D01*
X134965Y270344D01*
X135017Y270935D01*
X135034Y271036D01*
X136259D01*
X137860Y271354D01*
X138141Y271541D01*
X130674Y279008D01*
X132470Y280804D01*
X139937Y273337D01*
X140124Y273618D01*
X140442Y275219D01*
Y276157D01*
X141712Y276683D01*
X142361Y276034D01*
X143931Y275384D01*
X145629D01*
X147199Y276034D01*
X148400Y277235D01*
X149050Y278805D01*
Y280503D01*
X148624Y281532D01*
Y294698D01*
X148624Y294698D01*
X148331Y296169D01*
X147498Y297416D01*
X142416Y302498D01*
X142397Y302556D01*
X142363Y302573D01*
X142349Y302608D01*
X141535Y303456D01*
X140851Y304238D01*
X140280Y304970D01*
X139821Y305647D01*
X139472Y306265D01*
X139230Y306814D01*
X139148Y307089D01*
Y316094D01*
X138928Y317199D01*
X138430Y317944D01*
X138336Y318170D01*
X137934Y319361D01*
X138115Y319658D01*
X138431Y320000D01*
X138753Y320215D01*
X139118Y320345D01*
X139717Y320408D01*
X139736Y320418D01*
X146375D01*
X147602Y320662D01*
X148642Y321358D01*
X149338Y322398D01*
X149582Y323625D01*
Y334875D01*
X149338Y336102D01*
X148642Y337142D01*
X147602Y337838D01*
X146375Y338082D01*
X118125D01*
X116898Y337838D01*
X115858Y337142D01*
X115162Y336102D01*
X114918Y334875D01*
Y323896D01*
X113648Y323643D01*
X113120Y324919D01*
X112953Y325085D01*
X112920Y325709D01*
X112965Y326412D01*
X113010Y326792D01*
X113060Y327085D01*
X113104Y327262D01*
X113115Y327290D01*
X113143Y327333D01*
X113152Y327386D01*
X113164Y327418D01*
X113164Y327419D01*
X113225Y327565D01*
X113414Y327848D01*
X113428Y327922D01*
X113457Y327971D01*
X113446Y328011D01*
X113556Y328563D01*
Y331937D01*
X113414Y332653D01*
X113009Y333259D01*
X112402Y333664D01*
X111687Y333806D01*
X107312D01*
X106597Y333664D01*
X105991Y333259D01*
X105586Y332653D01*
X105444Y331937D01*
Y328563D01*
X105554Y328011D01*
X105543Y327971D01*
X105571Y327922D01*
X105586Y327848D01*
X105775Y327565D01*
X105836Y327419D01*
X105836Y327418D01*
X105848Y327386D01*
X105857Y327333D01*
X105885Y327290D01*
X105896Y327262D01*
X105940Y327085D01*
X105984Y326829D01*
X106092Y325130D01*
X105880Y324919D01*
X105230Y323349D01*
Y321651D01*
X105880Y320081D01*
X107029Y318933D01*
X107006Y318254D01*
X106978Y318022D01*
X106790Y317788D01*
X106553Y317755D01*
X105927Y317777D01*
X105701Y317871D01*
X105208Y318200D01*
X104400Y318361D01*
X99600D01*
X98792Y318200D01*
X98299Y317871D01*
X98073Y317777D01*
X97550Y317597D01*
X97250Y317573D01*
X96950Y317597D01*
X96427Y317777D01*
X96201Y317871D01*
X95708Y318200D01*
X94900Y318361D01*
X94047D01*
X93123Y319098D01*
X93064Y319223D01*
Y323042D01*
X93048Y323123D01*
X94162Y324036D01*
X94901Y323730D01*
X96599D01*
X98169Y324380D01*
X99370Y325581D01*
X100020Y327151D01*
Y328849D01*
X99977Y328952D01*
X100025Y330055D01*
X100124Y330280D01*
X100135Y330760D01*
X100165Y331139D01*
X100209Y331442D01*
X100261Y331663D01*
X100273Y331698D01*
X100375D01*
X101017Y331825D01*
X101561Y332189D01*
X101925Y332733D01*
X102052Y333375D01*
Y335625D01*
X101979Y335994D01*
X101977Y336035D01*
X102189Y336603D01*
X102751Y337317D01*
X102770Y337317D01*
X102909Y337377D01*
X104578D01*
X104717Y337317D01*
X105053Y337312D01*
X105608Y337275D01*
X105784Y337250D01*
X105918Y337223D01*
X105940Y337216D01*
X105972Y337146D01*
X106298Y337026D01*
X106577Y336820D01*
X106634Y336829D01*
X107312Y336694D01*
X111687D01*
X112402Y336836D01*
X113009Y337241D01*
X113414Y337848D01*
X113556Y338563D01*
Y341937D01*
X113414Y342653D01*
X113009Y343259D01*
X112543Y343569D01*
X112468Y344250D01*
X112543Y344930D01*
X113009Y345241D01*
X113414Y345848D01*
X113556Y346562D01*
Y349938D01*
X113414Y350653D01*
X113009Y351259D01*
X112402Y351664D01*
X111687Y351806D01*
X107312D01*
X106876Y351719D01*
X104866Y351683D01*
X104728Y351623D01*
X102925D01*
X102795Y351683D01*
X102751Y351684D01*
X102343Y352202D01*
X101990Y352818D01*
X101976Y352910D01*
X101979Y353005D01*
X102052Y353375D01*
Y355625D01*
X101925Y356267D01*
X101561Y356811D01*
Y357189D01*
X101925Y357733D01*
X102052Y358375D01*
Y360625D01*
X101925Y361267D01*
X101561Y361811D01*
Y362189D01*
X101925Y362733D01*
X102052Y363375D01*
Y365625D01*
X101925Y366267D01*
X101561Y366811D01*
X101017Y367175D01*
X100375Y367302D01*
X94125D01*
X93483Y367175D01*
X92939Y366811D01*
X92576Y366267D01*
X92459Y365684D01*
X92303Y365590D01*
X92082Y365536D01*
X75148Y348602D01*
X74250Y349500D01*
X73352Y348602D01*
X56418Y365536D01*
X56197Y365590D01*
X56041Y365684D01*
X55925Y366267D01*
X55561Y366811D01*
X55017Y367175D01*
X54375Y367302D01*
X48125D01*
X47483Y367175D01*
X46939Y366811D01*
X46575Y366267D01*
X46448Y365625D01*
Y363375D01*
X46575Y362733D01*
X46939Y362189D01*
Y361811D01*
X46575Y361267D01*
X46448Y360625D01*
Y358375D01*
X46575Y357733D01*
X46912Y357229D01*
X46624Y356339D01*
X46575Y356267D01*
X46536Y356068D01*
X46530Y356051D01*
X45506Y355615D01*
X45178Y355611D01*
X45169Y355620D01*
X43599Y356270D01*
X41901D01*
X41151Y355960D01*
X40179Y356932D01*
X40270Y357151D01*
Y358849D01*
X40019Y359456D01*
X40062Y359908D01*
X40538Y360847D01*
X40930Y361109D01*
X40966Y361124D01*
X40971Y361137D01*
X41206Y361294D01*
X41653Y361962D01*
X41810Y362750D01*
Y367250D01*
X41653Y368038D01*
X41206Y368706D01*
X40538Y369153D01*
X39750Y369310D01*
X32250D01*
X31462Y369153D01*
X30794Y368706D01*
X30347Y368038D01*
X30190Y367250D01*
Y362750D01*
X30347Y361962D01*
X30794Y361294D01*
X31029Y361137D01*
X31034Y361124D01*
X31070Y361109D01*
X31462Y360847D01*
X31938Y359908D01*
X31981Y359456D01*
X31730Y358849D01*
Y357280D01*
X31260Y356740D01*
X30720Y356270D01*
X29151D01*
X27581Y355620D01*
X26380Y354419D01*
X25730Y352849D01*
Y351151D01*
X26380Y349581D01*
X27252Y348709D01*
X27290Y347637D01*
X27395Y347407D01*
X27555Y346605D01*
X28151Y345713D01*
X28201Y345584D01*
X29398Y344334D01*
X29881Y343763D01*
X29989Y343616D01*
Y340350D01*
X30150Y339542D01*
X30608Y338858D01*
Y338642D01*
X30150Y337958D01*
X29989Y337150D01*
Y331750D01*
X30150Y330942D01*
X30608Y330258D01*
X31292Y329800D01*
X32100Y329639D01*
X36900D01*
X37708Y329800D01*
X38392Y330258D01*
X38850Y330942D01*
X39011Y331750D01*
Y332076D01*
X39125Y332095D01*
X39376Y332117D01*
X39720Y332126D01*
X39855Y332186D01*
X45586D01*
X45722Y332126D01*
X46388Y332111D01*
X46864Y332072D01*
X47001Y332051D01*
X47087Y332032D01*
X47094Y332029D01*
X47131Y332012D01*
X47153Y332011D01*
X47183Y332001D01*
X47217Y332004D01*
X47483Y331825D01*
X47947Y331172D01*
X48045Y331003D01*
X48075Y330935D01*
X48154Y330601D01*
X48158Y330428D01*
X48148Y330375D01*
Y326625D01*
X48385Y325432D01*
X52352Y329398D01*
X54148Y327602D01*
X50004Y323458D01*
X50141Y323261D01*
X50144Y322348D01*
X49730Y321349D01*
Y319848D01*
X49697Y319728D01*
X49704Y319675D01*
X49694Y319643D01*
X49663Y319571D01*
X49607Y319470D01*
X49533Y319360D01*
X49246Y319008D01*
X49061Y318814D01*
X49016Y318699D01*
X48967Y318650D01*
X48891Y318595D01*
X48886Y318568D01*
X48503Y318185D01*
X47891Y317269D01*
X47728Y316452D01*
X47626Y316220D01*
X47615Y315733D01*
X47585Y315349D01*
X47540Y315042D01*
X47488Y314819D01*
X47486Y314814D01*
X40750D01*
X39864Y314638D01*
X39113Y314137D01*
X38612Y313386D01*
X38435Y312500D01*
Y306500D01*
X38612Y305614D01*
X39113Y304863D01*
X39864Y304362D01*
X40750Y304186D01*
X52750D01*
X53605Y304356D01*
X53637Y304361D01*
X54875Y303662D01*
Y302337D01*
X49914Y297376D01*
X49789Y297328D01*
X49414Y296970D01*
X49077Y296679D01*
X48758Y296435D01*
X48459Y296236D01*
X48183Y296081D01*
X47931Y295967D01*
X47706Y295890D01*
X47506Y295845D01*
X47329Y295827D01*
X47078Y295832D01*
X47032Y295814D01*
X40750D01*
X39864Y295638D01*
X39113Y295137D01*
X38612Y294386D01*
X38435Y293500D01*
Y287500D01*
X38612Y286614D01*
X39113Y285863D01*
X39864Y285362D01*
X40750Y285186D01*
X51924D01*
X52732Y284213D01*
X51530Y283614D01*
X51394Y283670D01*
X49190D01*
X47322Y282896D01*
X51190Y279028D01*
X49394Y277232D01*
X45526Y281100D01*
X44752Y279232D01*
Y277028D01*
X45272Y275774D01*
X44195Y275054D01*
X35080Y284169D01*
Y321984D01*
X34904Y322870D01*
X34403Y323621D01*
X25640Y332383D01*
X25607Y332493D01*
X25606Y332493D01*
X25606Y332494D01*
X25261Y332911D01*
X25011Y333347D01*
X24781Y333921D01*
X24585Y334636D01*
X24434Y335488D01*
X24334Y336476D01*
X24291Y337578D01*
X24379Y340223D01*
X24513Y341723D01*
X24470Y341862D01*
Y344384D01*
X23702Y347250D01*
X22218Y349820D01*
X20120Y351918D01*
X17550Y353402D01*
X14684Y354170D01*
X11716D01*
X8850Y353402D01*
X6280Y351918D01*
X4182Y349820D01*
X3860Y349262D01*
X2590Y349603D01*
Y361597D01*
X3860Y361938D01*
X4182Y361380D01*
X6280Y359282D01*
X8850Y357798D01*
X11716Y357030D01*
X14684D01*
X17550Y357798D01*
X20120Y359282D01*
X22218Y361380D01*
X23702Y363950D01*
X24470Y366816D01*
Y369784D01*
X23702Y372650D01*
X22346Y374999D01*
X22743Y375684D01*
X23148Y376042D01*
X24552Y375460D01*
X26756D01*
X28792Y376303D01*
X29201Y376712D01*
X30707Y376423D01*
X30794Y376294D01*
X31462Y375847D01*
X32250Y375690D01*
X39750D01*
X40538Y375847D01*
X41206Y376294D01*
X41653Y376962D01*
X41810Y377750D01*
Y382250D01*
X41653Y383038D01*
X41335Y383515D01*
X41241Y383741D01*
X41161Y383774D01*
X41120Y383848D01*
X40866Y384048D01*
X40703Y384223D01*
X40542Y384452D01*
X40388Y384745D01*
X40245Y385108D01*
X40119Y385542D01*
X40058Y385839D01*
X40141Y386271D01*
X40243Y386651D01*
X40346Y386928D01*
X40434Y387097D01*
X40481Y387160D01*
X40598Y387262D01*
X40622Y387309D01*
X40671Y387329D01*
X40765Y387555D01*
X41138Y388114D01*
X41315Y389000D01*
Y395000D01*
X41138Y395886D01*
X40637Y396637D01*
X39886Y397138D01*
X39000Y397314D01*
X33000D01*
X32114Y397138D01*
X31363Y396637D01*
X30862Y395886D01*
X30686Y395000D01*
Y389000D01*
X30862Y388114D01*
X31235Y387555D01*
X31329Y387329D01*
X31378Y387309D01*
X31402Y387262D01*
X31519Y387160D01*
X31566Y387097D01*
X31654Y386928D01*
X31758Y386651D01*
X31859Y386271D01*
X31942Y385839D01*
X31881Y385542D01*
X31755Y385108D01*
X31612Y384745D01*
X31535Y384598D01*
X31096Y384428D01*
X30862Y384412D01*
X26552Y380102D01*
X24756Y381898D01*
X28624Y385766D01*
X26756Y386540D01*
X24552D01*
X23148Y385958D01*
X22743Y386316D01*
X22346Y387001D01*
X23702Y389350D01*
X24470Y392216D01*
Y395184D01*
X23702Y398050D01*
X22218Y400620D01*
X20120Y402718D01*
X17550Y404202D01*
X14684Y404970D01*
X11716D01*
X8850Y404202D01*
X6280Y402718D01*
X4182Y400620D01*
X3860Y400062D01*
X2590Y400403D01*
Y411052D01*
X3860Y411578D01*
X5596Y409842D01*
X8234Y408318D01*
X11177Y407530D01*
X14223D01*
X17166Y408318D01*
X19804Y409842D01*
X21958Y411996D01*
X23482Y414634D01*
X24270Y417577D01*
Y420623D01*
X23482Y423566D01*
X21958Y426204D01*
X20222Y427940D01*
X20748Y429210D01*
X49699D01*
X50084Y427940D01*
X49560Y427590D01*
X48229Y425599D01*
X47762Y423250D01*
Y419781D01*
X47507Y418500D01*
X47632Y417875D01*
X47507Y417250D01*
Y400250D01*
X47994Y397804D01*
X49380Y395730D01*
X55618Y389492D01*
X55961Y388211D01*
X57082Y386269D01*
X58669Y384682D01*
X60611Y383561D01*
X62778Y382980D01*
X65022D01*
X67189Y383561D01*
X69131Y384682D01*
X70030Y385581D01*
X70868Y385363D01*
X71333Y385088D01*
X71517Y384163D01*
X75002Y387648D01*
X76798Y385852D01*
X73313Y382367D01*
X74400Y382150D01*
X77400D01*
X78586Y382386D01*
X79592Y383058D01*
X79901Y383521D01*
X80209Y383583D01*
X80900Y383445D01*
X83900D01*
X84591Y383583D01*
X85176Y383974D01*
X86124D01*
X86709Y383583D01*
X87400Y383445D01*
X90400D01*
X91091Y383583D01*
X91676Y383974D01*
X92624D01*
X93209Y383583D01*
X93900Y383445D01*
X96900D01*
X97591Y383583D01*
X98659Y383008D01*
X98896Y381882D01*
X98820Y381768D01*
X98566Y380492D01*
Y377501D01*
X98820Y376225D01*
X99543Y375143D01*
X102868Y371818D01*
X102908Y371721D01*
X103139Y371488D01*
X103814Y370780D01*
X103881Y370703D01*
Y370401D01*
X104531Y368831D01*
X105732Y367630D01*
X107301Y366980D01*
X109000D01*
X110029Y367406D01*
X111140D01*
X111208Y367376D01*
X112122Y367352D01*
X112883Y367285D01*
X113519Y367180D01*
X114025Y367044D01*
X114398Y366893D01*
X114639Y366747D01*
X114771Y366625D01*
X114836Y366527D01*
X114875Y366418D01*
X114908Y366105D01*
X114918Y366086D01*
Y365625D01*
X115162Y364398D01*
X115858Y363358D01*
X116898Y362663D01*
X118125Y362418D01*
X146375D01*
X147602Y362663D01*
X148642Y363358D01*
X149338Y364398D01*
X149582Y365625D01*
Y376875D01*
X149338Y378102D01*
X148642Y379142D01*
X147602Y379837D01*
X146375Y380082D01*
X118125D01*
X116898Y379837D01*
X115858Y379142D01*
X115162Y378102D01*
X114918Y376875D01*
Y376414D01*
X114908Y376395D01*
X114875Y376082D01*
X114836Y375973D01*
X114771Y375875D01*
X114639Y375754D01*
X114397Y375607D01*
X114025Y375456D01*
X113519Y375320D01*
X112883Y375215D01*
X112122Y375148D01*
X111208Y375124D01*
X111140Y375094D01*
X110029D01*
X109000Y375520D01*
X108764D01*
X107630Y376540D01*
X107546Y376570D01*
X105234Y378882D01*
Y380492D01*
X104980Y381768D01*
X104782Y382065D01*
X104806Y383218D01*
X104857Y383882D01*
X104885Y384084D01*
X104909Y384201D01*
X104942Y384307D01*
X104937Y384364D01*
X105067Y384559D01*
X105100Y384725D01*
X105130Y384783D01*
X105119Y384817D01*
X105132Y384887D01*
X105134Y384891D01*
X105133Y384892D01*
X105205Y385250D01*
Y386981D01*
X106475Y387321D01*
X107082Y386269D01*
X108669Y384682D01*
X110611Y383561D01*
X112778Y382980D01*
X115022D01*
X117189Y383561D01*
X119131Y384682D01*
X120718Y386269D01*
X121839Y388211D01*
X122182Y389492D01*
X128420Y395730D01*
X129806Y397803D01*
X130293Y400250D01*
Y417250D01*
X130169Y417875D01*
X130293Y418500D01*
X130038Y419781D01*
Y423250D01*
X129571Y425599D01*
X128240Y427590D01*
X127716Y427940D01*
X128102Y429210D01*
X157052D01*
X157578Y427940D01*
D02*
G37*
G36*
X39471Y388104D02*
X39267Y387833D01*
X39088Y387489D01*
X38932Y387070D01*
X38800Y386578D01*
X38692Y386012D01*
X38664Y385798D01*
X38783Y385213D01*
X38942Y384663D01*
X39137Y384170D01*
X39367Y383734D01*
X39632Y383355D01*
X39933Y383034D01*
X40269Y382769D01*
X31731D01*
X32067Y383034D01*
X32368Y383355D01*
X32633Y383734D01*
X32863Y384170D01*
X33058Y384663D01*
X33217Y385213D01*
X33329Y385763D01*
X33308Y386012D01*
X33200Y386578D01*
X33068Y387070D01*
X32912Y387489D01*
X32733Y387833D01*
X32529Y388104D01*
X32301Y388301D01*
X39699D01*
X39471Y388104D01*
D02*
G37*
G36*
X103691Y384832D02*
X103630Y384717D01*
X103576Y384545D01*
X103529Y384315D01*
X103490Y384029D01*
X103432Y383285D01*
X103400Y381742D01*
X100400D01*
X100396Y382313D01*
X100271Y384315D01*
X100224Y384545D01*
X100170Y384717D01*
X100109Y384832D01*
X100041Y384891D01*
X103759D01*
X103691Y384832D01*
D02*
G37*
G36*
X108121Y374250D02*
X105151Y371280D01*
X105138Y371319D01*
X105100Y371381D01*
X105037Y371466D01*
X104834Y371702D01*
X104124Y372447D01*
X103883Y372690D01*
X106711Y375518D01*
X108121Y374250D01*
D02*
G37*
G36*
X116275Y366250D02*
X116224Y366725D01*
X116074Y367150D01*
X115822Y367525D01*
X115470Y367850D01*
X115017Y368125D01*
X114464Y368350D01*
X113810Y368525D01*
X113055Y368650D01*
X112200Y368725D01*
X111244Y368750D01*
Y373750D01*
X112200Y373775D01*
X113055Y373850D01*
X113810Y373975D01*
X114464Y374150D01*
X115017Y374375D01*
X115470Y374650D01*
X115822Y374975D01*
X116074Y375350D01*
X116224Y375775D01*
X116275Y376250D01*
Y366250D01*
D02*
G37*
G36*
X39615Y362055D02*
X39276Y361933D01*
X38977Y361729D01*
X38718Y361443D01*
X38498Y361076D01*
X38319Y360627D01*
X38180Y360097D01*
X38080Y359485D01*
X38020Y358792D01*
X38000Y358016D01*
X34000D01*
X33980Y358792D01*
X33920Y359485D01*
X33821Y360097D01*
X33681Y360627D01*
X33502Y361076D01*
X33282Y361443D01*
X33023Y361729D01*
X32724Y361933D01*
X32385Y362055D01*
X32006Y362096D01*
X39994D01*
X39615Y362055D01*
D02*
G37*
G36*
X100703Y350779D02*
X100800Y350680D01*
X100929Y350593D01*
X101091Y350518D01*
X101286Y350454D01*
X101513Y350401D01*
X101773Y350361D01*
X102065Y350332D01*
X102748Y350309D01*
X102720Y348309D01*
X102340Y348307D01*
X100860Y348212D01*
X100748Y348182D01*
X100674Y348149D01*
X100639Y348111D01*
Y350889D01*
X100703Y350779D01*
D02*
G37*
G36*
X47861Y348111D02*
X47807Y348196D01*
X47718Y348271D01*
X47594Y348338D01*
X47435Y348396D01*
X47242Y348445D01*
X47014Y348484D01*
X46750Y348516D01*
X46120Y348551D01*
X45752Y348555D01*
Y350555D01*
X46128Y350559D01*
X47265Y350639D01*
X47458Y350676D01*
X47614Y350719D01*
X47733Y350769D01*
X47815Y350825D01*
X47861Y350889D01*
Y348111D01*
D02*
G37*
G36*
X106767Y347309D02*
X106755Y347499D01*
X106700Y347669D01*
X106603Y347819D01*
X106464Y347949D01*
X106282Y348059D01*
X106058Y348149D01*
X105791Y348219D01*
X105482Y348269D01*
X105131Y348299D01*
X104737Y348309D01*
X104890Y350309D01*
X106905Y350345D01*
X106767Y347309D01*
D02*
G37*
G36*
X74220Y346500D02*
X73822Y346496D01*
X73100Y346437D01*
X72777Y346383D01*
X72478Y346312D01*
X72203Y346224D01*
X71954Y346119D01*
X71729Y345998D01*
X71529Y345860D01*
X71353Y345705D01*
X70455Y346603D01*
X70610Y346778D01*
X70748Y346979D01*
X70869Y347204D01*
X70974Y347453D01*
X71062Y347728D01*
X71133Y348027D01*
X71187Y348350D01*
X71225Y348699D01*
X71250Y349470D01*
X74220Y346500D01*
D02*
G37*
G36*
X31675Y349493D02*
X31672Y349437D01*
X31667Y348309D01*
X31785Y348192D01*
X33489Y346702D01*
X33701Y346570D01*
X33869Y346493D01*
X33995Y346471D01*
X34077Y346504D01*
X31346Y343773D01*
X31379Y343855D01*
X31357Y343981D01*
X31280Y344149D01*
X31148Y344361D01*
X30961Y344616D01*
X30420Y345254D01*
X29194Y346535D01*
X30356Y347696D01*
X28664Y347686D01*
X28605Y349344D01*
X31677Y349513D01*
X31675Y349493D01*
D02*
G37*
G36*
X47861Y343111D02*
X47812Y343185D01*
X47729Y343251D01*
X47611Y343310D01*
X47459Y343360D01*
X47274Y343403D01*
X47054Y343438D01*
X46511Y343484D01*
X45832Y343500D01*
Y345500D01*
X46189Y345504D01*
X47054Y345562D01*
X47274Y345597D01*
X47459Y345640D01*
X47611Y345690D01*
X47729Y345749D01*
X47812Y345815D01*
X47861Y345889D01*
Y343111D01*
D02*
G37*
G36*
X106905Y338155D02*
X106844Y338257D01*
X106748Y338348D01*
X106617Y338429D01*
X106452Y338498D01*
X106252Y338557D01*
X106018Y338606D01*
X105749Y338643D01*
X105109Y338686D01*
X104737Y338691D01*
Y340691D01*
X105129Y340701D01*
X105480Y340731D01*
X105789Y340781D01*
X106055Y340851D01*
X106279Y340941D01*
X106461Y341051D01*
X106601Y341181D01*
X106698Y341331D01*
X106754Y341501D01*
X106767Y341691D01*
X106905Y338155D01*
D02*
G37*
G36*
X100674Y340851D02*
X100748Y340818D01*
X100860Y340788D01*
X101011Y340762D01*
X101200Y340741D01*
X101997Y340699D01*
X102720Y340691D01*
X102748Y338691D01*
X102390Y338685D01*
X101773Y338639D01*
X101513Y338599D01*
X101286Y338546D01*
X101091Y338483D01*
X100929Y338407D01*
X100800Y338320D01*
X100703Y338222D01*
X100639Y338111D01*
Y340889D01*
X100674Y340851D01*
D02*
G37*
G36*
X68045Y342397D02*
X67890Y342222D01*
X67752Y342021D01*
X67631Y341796D01*
X67526Y341547D01*
X67438Y341272D01*
X67367Y340973D01*
X67313Y340650D01*
X67275Y340301D01*
X67250Y339530D01*
X64250Y339500D01*
X64220Y336500D01*
X63449Y336475D01*
X63101Y336437D01*
X62777Y336383D01*
X62478Y336312D01*
X62203Y336224D01*
X61954Y336119D01*
X61729Y335998D01*
X61529Y335860D01*
X61353Y335705D01*
X60455Y336603D01*
X60610Y336778D01*
X60748Y336979D01*
X60869Y337204D01*
X60974Y337453D01*
X61062Y337728D01*
X61133Y338027D01*
X61187Y338350D01*
X61246Y339072D01*
X61250Y339470D01*
X64250Y339500D01*
X64280Y342500D01*
X64678Y342504D01*
X65400Y342563D01*
X65723Y342617D01*
X66022Y342688D01*
X66297Y342776D01*
X66546Y342881D01*
X66771Y343002D01*
X66972Y343140D01*
X67147Y343295D01*
X68045Y342397D01*
D02*
G37*
G36*
X60729Y334199D02*
X60635Y334273D01*
X60529Y334317D01*
X60412Y334332D01*
X60283Y334317D01*
X60142Y334273D01*
X59989Y334200D01*
X59825Y334097D01*
X59648Y333965D01*
X59461Y333804D01*
X59261Y333613D01*
X58363Y334511D01*
X58554Y334711D01*
X58715Y334898D01*
X58847Y335075D01*
X58950Y335239D01*
X59023Y335392D01*
X59067Y335532D01*
X59082Y335662D01*
X59067Y335779D01*
X59023Y335885D01*
X58949Y335979D01*
X60729Y334199D01*
D02*
G37*
G36*
X47861Y333111D02*
X47811Y333185D01*
X47725Y333251D01*
X47604Y333310D01*
X47447Y333360D01*
X47253Y333403D01*
X47025Y333438D01*
X46460Y333484D01*
X45752Y333500D01*
Y335500D01*
X46124Y335504D01*
X47025Y335562D01*
X47253Y335597D01*
X47447Y335640D01*
X47604Y335690D01*
X47725Y335749D01*
X47811Y335815D01*
X47861Y335889D01*
Y333111D01*
D02*
G37*
G36*
X37674Y336310D02*
X37735Y336140D01*
X37837Y335990D01*
X37979Y335860D01*
X38162Y335750D01*
X38385Y335660D01*
X38649Y335590D01*
X38954Y335540D01*
X39299Y335510D01*
X39685Y335500D01*
Y333500D01*
X39299Y333490D01*
X38954Y333460D01*
X38649Y333410D01*
X38385Y333340D01*
X38162Y333250D01*
X37979Y333140D01*
X37837Y333010D01*
X37735Y332860D01*
X37674Y332690D01*
X37654Y332500D01*
Y336500D01*
X37674Y336310D01*
D02*
G37*
G36*
X56666Y331018D02*
X56412Y330755D01*
X56011Y330285D01*
X55864Y330077D01*
X55753Y329888D01*
X55678Y329718D01*
X55639Y329566D01*
X55636Y329433D01*
X55669Y329319D01*
X55738Y329222D01*
X53972Y330988D01*
X54068Y330919D01*
X54183Y330886D01*
X54316Y330889D01*
X54468Y330928D01*
X54638Y331003D01*
X54827Y331114D01*
X55035Y331261D01*
X55261Y331443D01*
X55768Y331917D01*
X56666Y331018D01*
D02*
G37*
G36*
X23006Y340307D02*
X22915Y337574D01*
X22963Y336379D01*
X23072Y335299D01*
X23243Y334334D01*
X23476Y333483D01*
X23770Y332747D01*
X24127Y332125D01*
X24546Y331618D01*
X22995Y330341D01*
X22557Y330698D01*
X21980Y331033D01*
X21264Y331347D01*
X20408Y331639D01*
X19413Y331910D01*
X17004Y332385D01*
X14037Y332775D01*
X12345Y332937D01*
X23144Y341846D01*
X23006Y340307D01*
D02*
G37*
G36*
X99714Y333005D02*
X99512Y332924D01*
X99333Y332788D01*
X99178Y332597D01*
X99048Y332352D01*
X98940Y332053D01*
X98857Y331699D01*
X98798Y331291D01*
X98762Y330829D01*
X98750Y330312D01*
X98660D01*
X98601Y328935D01*
X96086Y330312D01*
X95750D01*
X95746Y330498D01*
X95003Y330905D01*
X95145Y330959D01*
X95272Y331043D01*
X95384Y331157D01*
X95481Y331301D01*
X95563Y331475D01*
X95630Y331680D01*
X95639Y331717D01*
X95560Y332053D01*
X95452Y332352D01*
X95322Y332597D01*
X95167Y332788D01*
X94988Y332924D01*
X94786Y333005D01*
X94560Y333033D01*
X99940D01*
X99714Y333005D01*
D02*
G37*
G36*
X111982Y328069D02*
X111881Y327910D01*
X111791Y327677D01*
X111714Y327370D01*
X111649Y326990D01*
X111595Y326536D01*
X111543Y325717D01*
X111600Y324642D01*
X111511D01*
X111500Y323987D01*
X107500D01*
X107495Y324642D01*
X107400D01*
X107419Y324679D01*
X107436Y324749D01*
X107451Y324854D01*
X107471Y325107D01*
X107351Y326990D01*
X107286Y327370D01*
X107209Y327677D01*
X107119Y327910D01*
X107018Y328069D01*
X106905Y328155D01*
X112095D01*
X111982Y328069D01*
D02*
G37*
G36*
X85599Y323086D02*
X85564Y323044D01*
X85533Y322985D01*
X85506Y322910D01*
X85484Y322819D01*
X85465Y322711D01*
X85450Y322586D01*
X85434Y322287D01*
X85432Y322112D01*
X84162D01*
X84159Y322289D01*
X84139Y322587D01*
X84121Y322707D01*
X84098Y322808D01*
X84070Y322891D01*
X84037Y322955D01*
X83999Y322999D01*
X83955Y323026D01*
X83907Y323033D01*
X85639Y323111D01*
X85599Y323086D01*
D02*
G37*
G36*
X80637Y323084D02*
X80633Y322691D01*
X80633Y322574D01*
X80639Y322371D01*
X80666Y322080D01*
X80711Y321809D01*
X80774Y321557D01*
X80855Y321324D01*
X80955Y321109D01*
X81072Y320914D01*
X81207Y320738D01*
X81361Y320580D01*
X81532Y320442D01*
X77383Y319791D01*
X77504Y319969D01*
X77612Y320162D01*
X77708Y320369D01*
X77790Y320590D01*
X77860Y320826D01*
X77918Y321077D01*
X77962Y321341D01*
X77983Y321523D01*
X77891Y323073D01*
X77861Y323111D01*
X80639D01*
X80637Y323084D01*
D02*
G37*
G36*
X74978Y320928D02*
X74770Y320707D01*
X74590Y320487D01*
X74438Y320269D01*
X74314Y320051D01*
X74217Y319835D01*
X74148Y319620D01*
X74107Y319406D01*
X74093Y319193D01*
X74107Y318981D01*
X74149Y318770D01*
X70542Y320915D01*
X70742Y320976D01*
X70955Y321065D01*
X71181Y321181D01*
X71420Y321325D01*
X71673Y321497D01*
X72217Y321925D01*
X72509Y322180D01*
X73132Y322774D01*
X74978Y320928D01*
D02*
G37*
G36*
X112512Y322431D02*
X112550Y322369D01*
X112613Y322284D01*
X112816Y322048D01*
X113527Y321303D01*
X113768Y321060D01*
X111708Y319000D01*
X115000D01*
X115003Y318564D01*
X115096Y317071D01*
X115131Y316910D01*
X115171Y316795D01*
X115216Y316726D01*
X115267Y316703D01*
X110733D01*
X110784Y316726D01*
X110829Y316795D01*
X110869Y316910D01*
X110904Y317071D01*
X110933Y317277D01*
X110976Y317829D01*
X110985Y318277D01*
X110940Y318232D01*
X109530Y319500D01*
X112500Y322470D01*
X112512Y322431D01*
D02*
G37*
G36*
X91760Y318625D02*
X91790Y318261D01*
X91840Y317943D01*
X91910Y317671D01*
X92000Y317444D01*
X92110Y317264D01*
X92240Y317130D01*
X92390Y317042D01*
X92560Y317000D01*
X92750Y317004D01*
X89375Y316550D01*
X89446Y316675D01*
X89510Y316826D01*
X89566Y317001D01*
X89615Y317202D01*
X89656Y317429D01*
X89716Y317958D01*
X89746Y318588D01*
X89750Y318942D01*
X91750Y319035D01*
X91760Y318625D01*
D02*
G37*
G36*
X54545Y317550D02*
X54402Y317514D01*
X54249Y317456D01*
X54086Y317377D01*
X53913Y317277D01*
X53729Y317156D01*
X53332Y316849D01*
X53119Y316663D01*
X52661Y316228D01*
X50055Y317864D01*
X50277Y318097D01*
X50641Y318543D01*
X50783Y318757D01*
X50897Y318963D01*
X50984Y319163D01*
X51044Y319356D01*
X51077Y319543D01*
X51083Y319723D01*
X51061Y319897D01*
X54545Y317550D01*
D02*
G37*
G36*
X69108Y315900D02*
X68944Y316051D01*
X68764Y316186D01*
X68568Y316305D01*
X68356Y316409D01*
X68128Y316496D01*
X67884Y316568D01*
X67625Y316623D01*
X67349Y316663D01*
X67057Y316687D01*
X66749Y316695D01*
Y319305D01*
X67057Y319313D01*
X67349Y319337D01*
X67625Y319377D01*
X67884Y319432D01*
X68128Y319504D01*
X68356Y319591D01*
X68568Y319695D01*
X68764Y319814D01*
X68944Y319949D01*
X69108Y320100D01*
Y315900D01*
D02*
G37*
G36*
X135590Y324264D02*
X135784Y321775D01*
X139572D01*
X138812Y321695D01*
X138132Y321454D01*
X137532Y321052D01*
X137012Y320490D01*
X136572Y319767D01*
X136260Y319003D01*
X136450Y318462D01*
X136719Y317920D01*
X137024Y317498D01*
X137364Y317198D01*
X135825D01*
X135732Y316635D01*
X135612Y315270D01*
X135572Y313744D01*
X127572D01*
X127532Y315270D01*
X127412Y316635D01*
X127319Y317198D01*
X125780D01*
X126120Y317498D01*
X126425Y317920D01*
X126694Y318462D01*
X126884Y319003D01*
X126572Y319767D01*
X126132Y320490D01*
X125612Y321052D01*
X125012Y321454D01*
X124332Y321695D01*
X123572Y321775D01*
X127402D01*
X127411Y321845D01*
X127554Y324264D01*
X127572Y325656D01*
X135572D01*
X135590Y324264D01*
D02*
G37*
G36*
X52012Y315652D02*
X52106Y314747D01*
X52189Y314378D01*
X52296Y314065D01*
X52426Y313808D01*
X52579Y313607D01*
X52757Y313462D01*
X52958Y313373D01*
X53183Y313340D01*
X47800Y313458D01*
X48028Y313481D01*
X48232Y313559D01*
X48412Y313693D01*
X48568Y313882D01*
X48700Y314128D01*
X48808Y314428D01*
X48892Y314785D01*
X48952Y315197D01*
X48988Y315665D01*
X49000Y316188D01*
X52000D01*
X52012Y315652D01*
D02*
G37*
G36*
X91537Y315935D02*
X91627Y315869D01*
X91727Y315808D01*
X91837Y315753D01*
X91958Y315704D01*
X92089Y315659D01*
X92230Y315621D01*
X92543Y315560D01*
X92716Y315538D01*
X90512Y313335D01*
X90490Y313507D01*
X90429Y313820D01*
X90391Y313961D01*
X90346Y314092D01*
X90297Y314213D01*
X90242Y314323D01*
X90181Y314423D01*
X90115Y314513D01*
X90043Y314593D01*
X91457Y316007D01*
X91537Y315935D01*
D02*
G37*
G36*
X80960Y315237D02*
X80823Y315168D01*
X80659Y315064D01*
X80467Y314926D01*
X80002Y314547D01*
X79101Y313720D01*
X78364Y312997D01*
X77229Y313935D01*
X77605Y312239D01*
X77135Y311750D01*
X76382Y310850D01*
X76099Y310438D01*
X75878Y310052D01*
X75720Y309692D01*
X75623Y309357D01*
X75589Y309047D01*
X75617Y308763D01*
X75708Y308505D01*
X73255Y313458D01*
X73401Y313255D01*
X73597Y313139D01*
X73841Y313107D01*
X74134Y313162D01*
X74477Y313303D01*
X74869Y313529D01*
X75310Y313842D01*
X75800Y314240D01*
X76577Y314967D01*
X76718Y315138D01*
X76870Y315358D01*
X76991Y315573D01*
X77081Y315783D01*
X77139Y315988D01*
X77166Y316189D01*
X77161Y316385D01*
X77124Y316577D01*
X77057Y316763D01*
X80960Y315237D01*
D02*
G37*
G36*
X117453Y316278D02*
X117669Y316062D01*
X117914Y315872D01*
X118190Y315707D01*
X118496Y315567D01*
X118833Y315453D01*
X119200Y315364D01*
X119598Y315301D01*
X120025Y315263D01*
X120484Y315250D01*
Y312250D01*
X120025Y312237D01*
X119598Y312199D01*
X119200Y312136D01*
X118833Y312047D01*
X118496Y311933D01*
X118190Y311793D01*
X117914Y311628D01*
X117669Y311438D01*
X117453Y311222D01*
X117269Y310981D01*
Y316519D01*
X117453Y316278D01*
D02*
G37*
G36*
X85206Y312036D02*
X85225Y311796D01*
X85256Y311583D01*
X85299Y311397D01*
X85354Y311238D01*
X85422Y311108D01*
X85503Y311005D01*
X85596Y310929D01*
X85701Y310880D01*
X85818Y310860D01*
X83295Y311004D01*
X83416Y311011D01*
X83524Y311045D01*
X83619Y311106D01*
X83701Y311195D01*
X83771Y311311D01*
X83828Y311455D01*
X83873Y311626D01*
X83905Y311825D01*
X83924Y312051D01*
X83930Y312305D01*
X85200D01*
X85206Y312036D01*
D02*
G37*
G36*
X105136Y316585D02*
X105371Y316389D01*
X105660Y316216D01*
X106002Y316066D01*
X106398Y315939D01*
X106848Y315835D01*
X107030Y315805D01*
X107387Y315867D01*
X107778Y315963D01*
X108108Y316076D01*
X108377Y316206D01*
X108585Y316354D01*
X108731Y316519D01*
X108767Y315665D01*
X109185Y315650D01*
Y311650D01*
X108935Y311645D01*
X108969Y310822D01*
X108702Y310979D01*
X108395Y311120D01*
X108048Y311244D01*
X107662Y311352D01*
X107237Y311443D01*
X107077Y311465D01*
X106912Y311433D01*
X106465Y311311D01*
X106066Y311162D01*
X105716Y310986D01*
X105414Y310783D01*
X105160Y310553D01*
X104955Y310295D01*
Y311638D01*
X104516Y311650D01*
Y315650D01*
X104955Y315655D01*
Y316805D01*
X105136Y316585D01*
D02*
G37*
G36*
X125353Y310750D02*
X125330Y311035D01*
X125244Y311290D01*
X125096Y311515D01*
X124887Y311710D01*
X124614Y311875D01*
X124280Y312010D01*
X123884Y312115D01*
X123426Y312190D01*
X122905Y312235D01*
X122323Y312250D01*
Y315250D01*
X122921Y315265D01*
X123456Y315309D01*
X123930Y315383D01*
X124342Y315487D01*
X124691Y315621D01*
X124978Y315784D01*
X125204Y315977D01*
X125366Y316199D01*
X125467Y316451D01*
X125506Y316733D01*
X125353Y310750D01*
D02*
G37*
G36*
X95648Y316566D02*
X95892Y316353D01*
X96188Y316165D01*
X96534Y316002D01*
X96931Y315864D01*
X97250Y315784D01*
X97569Y315864D01*
X97966Y316002D01*
X98312Y316165D01*
X98608Y316353D01*
X98852Y316566D01*
X99045Y316805D01*
Y315576D01*
X99685Y315550D01*
Y311550D01*
X99045Y311538D01*
Y310295D01*
X98852Y310534D01*
X98608Y310747D01*
X98312Y310935D01*
X97966Y311098D01*
X97569Y311236D01*
X97250Y311317D01*
X96931Y311236D01*
X96534Y311098D01*
X96188Y310935D01*
X95892Y310747D01*
X95648Y310534D01*
X95455Y310295D01*
Y311524D01*
X94815Y311550D01*
Y315550D01*
X95455Y315562D01*
Y316805D01*
X95648Y316566D01*
D02*
G37*
G36*
X105166Y307486D02*
X105251Y307269D01*
X105393Y307077D01*
X105591Y306911D01*
X105846Y306770D01*
X106157Y306655D01*
X106525Y306565D01*
X106950Y306501D01*
X107432Y306463D01*
X107970Y306450D01*
Y304950D01*
X109031Y306011D01*
X109492Y305553D01*
X111579Y303706D01*
X111640Y303703D01*
X108547Y301950D01*
X108565Y301989D01*
X108543Y302062D01*
X108481Y302170D01*
X108377Y302313D01*
X108234Y302489D01*
X107561Y303226D01*
X107359Y303431D01*
X106950Y303399D01*
X106525Y303335D01*
X106157Y303245D01*
X105846Y303130D01*
X105591Y302989D01*
X105393Y302823D01*
X105251Y302631D01*
X105166Y302414D01*
X105138Y302171D01*
Y303305D01*
X104205Y303243D01*
X103936Y303179D01*
X103733Y303108D01*
X103598Y303027D01*
Y306873D01*
X103733Y306792D01*
X103936Y306720D01*
X104205Y306657D01*
X104542Y306602D01*
X105138Y306544D01*
Y307729D01*
X105166Y307486D01*
D02*
G37*
G36*
X23140Y315458D02*
X23293Y311425D01*
X23444Y310326D01*
X23646Y309348D01*
X23898Y308492D01*
X24200Y307759D01*
X24553Y307147D01*
X24956Y306658D01*
X23491Y305294D01*
X23028Y305675D01*
X22432Y306020D01*
X21706Y306330D01*
X20848Y306604D01*
X19859Y306842D01*
X18739Y307046D01*
X16105Y307345D01*
X12946Y307503D01*
X23190Y317047D01*
X23140Y315458D01*
D02*
G37*
G36*
X4182Y335980D02*
X6280Y333882D01*
X8850Y332398D01*
X11716Y331630D01*
X12098D01*
X12214Y331568D01*
X12214Y331568D01*
X12214Y331568D01*
X13883Y331408D01*
X16781Y331028D01*
X19099Y330570D01*
X20005Y330324D01*
X20765Y330065D01*
X21357Y329805D01*
X21773Y329564D01*
X22126Y329276D01*
X22234Y329243D01*
X30452Y321025D01*
Y304681D01*
X29278Y304195D01*
X27178Y306295D01*
X27178Y306295D01*
X26051Y307423D01*
X26017Y307532D01*
X25687Y307933D01*
X25436Y308367D01*
X25196Y308950D01*
X24981Y309682D01*
X24800Y310558D01*
X24664Y311546D01*
X24515Y315463D01*
X24564Y317003D01*
X24470Y317251D01*
Y318984D01*
X23702Y321850D01*
X22218Y324420D01*
X20120Y326518D01*
X17550Y328002D01*
X14684Y328770D01*
X11716D01*
X8850Y328002D01*
X6280Y326518D01*
X4182Y324420D01*
X3860Y323862D01*
X2590Y324203D01*
Y336197D01*
X3860Y336538D01*
X4182Y335980D01*
D02*
G37*
G36*
X95623Y308014D02*
X95859Y307843D01*
X96162Y307692D01*
X96534Y307562D01*
X96973Y307451D01*
X97250Y307402D01*
X97527Y307451D01*
X97966Y307562D01*
X98337Y307692D01*
X98641Y307843D01*
X98877Y308014D01*
X99045Y308205D01*
Y307232D01*
X99407Y307210D01*
X100185Y307200D01*
Y302700D01*
X99407Y302690D01*
X99045Y302662D01*
Y301695D01*
X98877Y301886D01*
X98641Y302057D01*
X98337Y302208D01*
X97966Y302338D01*
X97527Y302449D01*
X97250Y302498D01*
X96973Y302449D01*
X96534Y302338D01*
X96162Y302208D01*
X95859Y302057D01*
X95623Y301886D01*
X95455Y301695D01*
Y302668D01*
X95093Y302690D01*
X94315Y302700D01*
Y307200D01*
X95093Y307210D01*
X95455Y307238D01*
Y308205D01*
X95623Y308014D01*
D02*
G37*
G36*
X93869Y301496D02*
X93713Y301554D01*
X93504Y301536D01*
X93240Y301441D01*
X92923Y301270D01*
X92551Y301023D01*
X92126Y300699D01*
X91114Y299822D01*
X89886Y298639D01*
X86512Y300923D01*
X87167Y301588D01*
X88960Y303652D01*
X89202Y304018D01*
X89361Y304324D01*
X89439Y304570D01*
X89433Y304757D01*
X89346Y304883D01*
X93869Y301496D01*
D02*
G37*
G36*
X130979Y298187D02*
X130671Y298410D01*
X130305Y298520D01*
X129883Y298517D01*
X129403Y298401D01*
X128866Y298172D01*
X128271Y297829D01*
X127620Y297374D01*
X126911Y296805D01*
X125323Y295328D01*
X122494Y298157D01*
X123289Y298979D01*
X124540Y300454D01*
X124995Y301105D01*
X125338Y301700D01*
X125567Y302237D01*
X125683Y302717D01*
X125686Y303139D01*
X125576Y303505D01*
X125353Y303813D01*
X130979Y298187D01*
D02*
G37*
G36*
X80045Y295695D02*
X79859Y295934D01*
X79636Y296147D01*
X79377Y296335D01*
X79080Y296498D01*
X78747Y296636D01*
X78377Y296749D01*
X77971Y296837D01*
X77527Y296900D01*
X77047Y296938D01*
X76530Y296950D01*
Y300950D01*
X77047Y300963D01*
X77527Y301000D01*
X77971Y301063D01*
X78377Y301151D01*
X78747Y301264D01*
X79080Y301402D01*
X79377Y301565D01*
X79636Y301753D01*
X79859Y301966D01*
X80045Y302205D01*
Y295695D01*
D02*
G37*
G36*
X137668Y308185D02*
X137652Y307605D01*
X137742Y306989D01*
X137939Y306337D01*
X138242Y305648D01*
X138652Y304923D01*
X139168Y304161D01*
X139791Y303362D01*
X140521Y302528D01*
X141357Y301656D01*
X140878Y295064D01*
X139778Y296130D01*
X137868Y297759D01*
X137059Y298322D01*
X136348Y298718D01*
X135734Y298947D01*
X135217Y299008D01*
X134798Y298902D01*
X134475Y298628D01*
X134250Y298187D01*
X137791Y308727D01*
X137668Y308185D01*
D02*
G37*
G36*
X54162Y296050D02*
X53937Y295774D01*
X53755Y295507D01*
X53614Y295249D01*
X53517Y294999D01*
X53461Y294757D01*
X53448Y294525D01*
X53477Y294301D01*
X53549Y294085D01*
X53663Y293878D01*
X47047Y294458D01*
X47385Y294450D01*
X47729Y294486D01*
X48081Y294566D01*
X48439Y294688D01*
X48805Y294854D01*
X49177Y295063D01*
X49557Y295316D01*
X49944Y295612D01*
X50338Y295951D01*
X50739Y296334D01*
X54430D01*
X54162Y296050D01*
D02*
G37*
G36*
X108233Y291605D02*
X107210Y290554D01*
X104941Y287865D01*
X104452Y287124D01*
X104096Y286460D01*
X103874Y285874D01*
X103785Y285366D01*
X103830Y284935D01*
X104008Y284582D01*
X99082Y290908D01*
X99359Y290653D01*
X99700Y290519D01*
X100105Y290505D01*
X100575Y290610D01*
X101108Y290836D01*
X101706Y291182D01*
X102368Y291648D01*
X103094Y292234D01*
X104739Y293767D01*
X108233Y291605D01*
D02*
G37*
G36*
X93641Y290389D02*
X93454Y290163D01*
X93289Y289931D01*
X93146Y289692D01*
X93025Y289447D01*
X92926Y289195D01*
X92849Y288937D01*
X92794Y288671D01*
X92761Y288400D01*
X92750Y288122D01*
X90750D01*
X90739Y288400D01*
X90706Y288671D01*
X90651Y288937D01*
X90574Y289195D01*
X90475Y289447D01*
X90354Y289692D01*
X90211Y289931D01*
X90046Y290163D01*
X89859Y290389D01*
X89650Y290608D01*
X93850D01*
X93641Y290389D01*
D02*
G37*
G36*
X65749Y287537D02*
X65530Y287715D01*
X65265Y287805D01*
X64954Y287809D01*
X64598Y287724D01*
X64197Y287553D01*
X63750Y287294D01*
X63257Y286948D01*
X62719Y286514D01*
X61507Y285385D01*
X59635Y287757D01*
X60221Y288363D01*
X61146Y289455D01*
X61484Y289940D01*
X61741Y290385D01*
X61915Y290789D01*
X62006Y291152D01*
X62016Y291475D01*
X61943Y291758D01*
X61787Y291999D01*
X65749Y287537D01*
D02*
G37*
G36*
X61006Y285102D02*
X61051Y284431D01*
X61090Y284159D01*
X61141Y283928D01*
X61204Y283739D01*
X61277Y283593D01*
X61362Y283488D01*
X61458Y283425D01*
X61565Y283404D01*
X57435D01*
X57542Y283425D01*
X57638Y283488D01*
X57723Y283593D01*
X57797Y283739D01*
X57859Y283928D01*
X57909Y284159D01*
X57949Y284431D01*
X57977Y284746D01*
X58000Y285500D01*
X61000D01*
X61006Y285102D01*
D02*
G37*
G36*
X72999Y283735D02*
X72632Y283359D01*
X71829Y282420D01*
X71660Y282169D01*
X71540Y281950D01*
X71469Y281762D01*
X71448Y281605D01*
X71477Y281479D01*
X71554Y281385D01*
X68935Y283404D01*
X69050Y283348D01*
X69192Y283336D01*
X69361Y283369D01*
X69556Y283446D01*
X69778Y283568D01*
X70026Y283735D01*
X70301Y283946D01*
X70930Y284503D01*
X71285Y284849D01*
X72999Y283735D01*
D02*
G37*
G36*
X79501Y282506D02*
X79481Y282695D01*
X79419Y282864D01*
X79317Y283013D01*
X79174Y283142D01*
X78990Y283251D01*
X78766Y283341D01*
X78501Y283411D01*
X78195Y283460D01*
X77849Y283490D01*
X77462Y283500D01*
Y285500D01*
X77848Y285510D01*
X78193Y285540D01*
X78498Y285590D01*
X78762Y285660D01*
X78986Y285750D01*
X79168Y285860D01*
X79310Y285990D01*
X79412Y286140D01*
X79472Y286310D01*
X79492Y286500D01*
X79501Y282506D01*
D02*
G37*
G36*
X4182Y310580D02*
X6280Y308482D01*
X8850Y306998D01*
X11716Y306230D01*
X12667D01*
X12878Y306130D01*
X15993Y305975D01*
X18539Y305685D01*
X19575Y305497D01*
X20477Y305279D01*
X21226Y305040D01*
X21816Y304788D01*
X22242Y304541D01*
X22620Y304231D01*
X22728Y304199D01*
X23905Y303022D01*
X23905Y303022D01*
X27150Y299777D01*
Y282603D01*
X26617Y282382D01*
X25879Y282299D01*
X25687Y282533D01*
X25436Y282967D01*
X25196Y283550D01*
X24981Y284282D01*
X24800Y285159D01*
X24664Y286146D01*
X24515Y290063D01*
X24564Y291604D01*
X24470Y291851D01*
Y293584D01*
X23702Y296450D01*
X22218Y299020D01*
X20120Y301118D01*
X17550Y302602D01*
X14684Y303370D01*
X11716D01*
X8850Y302602D01*
X6280Y301118D01*
X4182Y299020D01*
X3860Y298462D01*
X2590Y298803D01*
Y310797D01*
X3860Y311138D01*
X4182Y310580D01*
D02*
G37*
G36*
X23140Y290058D02*
X23293Y286026D01*
X23444Y284926D01*
X23646Y283948D01*
X23898Y283092D01*
X24200Y282359D01*
X24553Y281747D01*
X24956Y281258D01*
X23491Y279894D01*
X23028Y280275D01*
X22432Y280620D01*
X21706Y280930D01*
X20848Y281204D01*
X19859Y281443D01*
X18739Y281646D01*
X16105Y281945D01*
X12946Y282103D01*
X23190Y291646D01*
X23140Y290058D01*
D02*
G37*
G36*
X118690Y279303D02*
X118405Y279345D01*
X118128Y279361D01*
X117859Y279350D01*
X117599Y279314D01*
X117347Y279252D01*
X117104Y279164D01*
X116869Y279049D01*
X116642Y278909D01*
X116424Y278743D01*
X116214Y278550D01*
X115071Y280235D01*
X115255Y280432D01*
X115426Y280642D01*
X115583Y280863D01*
X115726Y281097D01*
X115855Y281343D01*
X115970Y281600D01*
X116071Y281870D01*
X116159Y282152D01*
X116232Y282445D01*
X116292Y282751D01*
X118690Y279303D01*
D02*
G37*
G36*
X56046Y281263D02*
X58440Y281311D01*
Y279189D01*
X58398Y279200D01*
X58298Y279211D01*
X57921Y279228D01*
X56046Y279244D01*
Y278250D01*
X56026Y278440D01*
X55965Y278610D01*
X55863Y278760D01*
X55721Y278890D01*
X55538Y279000D01*
X55315Y279090D01*
X55051Y279160D01*
X54746Y279210D01*
X54505Y279231D01*
X54302Y279206D01*
X54063Y279152D01*
X53857Y279075D01*
X53682Y278977D01*
X53540Y278857D01*
X53430Y278715D01*
X53352Y278551D01*
X53306Y278366D01*
X53292Y278158D01*
X50749Y281095D01*
X54015Y281241D01*
Y281250D01*
X54401Y281260D01*
X54746Y281290D01*
X55051Y281340D01*
X55315Y281410D01*
X55538Y281500D01*
X55721Y281610D01*
X55863Y281740D01*
X55965Y281890D01*
X56026Y282060D01*
X56046Y282250D01*
Y281263D01*
D02*
G37*
G36*
X110486Y279842D02*
X110185Y279758D01*
X109618Y279559D01*
X109352Y279443D01*
X109099Y279315D01*
X108857Y279177D01*
X108628Y279028D01*
X108410Y278867D01*
X108204Y278696D01*
X108010Y278514D01*
X106196Y279528D01*
X106390Y279740D01*
X106556Y279959D01*
X106693Y280184D01*
X106802Y280417D01*
X106882Y280656D01*
X106934Y280902D01*
X106958Y281155D01*
X106952Y281415D01*
X106919Y281682D01*
X106857Y281956D01*
X110486Y279842D01*
D02*
G37*
G36*
X92457Y277543D02*
X92275Y277354D01*
X91977Y277005D01*
X91861Y276845D01*
X91767Y276694D01*
X91696Y276553D01*
X91647Y276421D01*
X91620Y276299D01*
X91615Y276185D01*
X91632Y276082D01*
X89230Y275730D01*
X89582Y278132D01*
X89685Y278115D01*
X89798Y278120D01*
X89921Y278147D01*
X90053Y278196D01*
X90194Y278267D01*
X90345Y278361D01*
X90505Y278477D01*
X90675Y278615D01*
X91043Y278957D01*
X92457Y277543D01*
D02*
G37*
G36*
X71551Y280448D02*
X71594Y280278D01*
X71683Y280128D01*
X71817Y279998D01*
X71997Y279888D01*
X72223Y279798D01*
X72495Y279728D01*
X72812Y279678D01*
X73176Y279648D01*
X73585Y279638D01*
X73542Y277638D01*
X73217Y277633D01*
X72619Y277592D01*
X72348Y277556D01*
X71859Y277453D01*
X71642Y277387D01*
X71444Y277310D01*
X71263Y277223D01*
X71100Y277125D01*
X71554Y280638D01*
X71551Y280448D01*
D02*
G37*
G36*
X4182Y285180D02*
X6280Y283082D01*
X8850Y281598D01*
X11716Y280830D01*
X12667D01*
X12878Y280730D01*
X15993Y280575D01*
X18539Y280285D01*
X19575Y280097D01*
X20477Y279879D01*
X21226Y279640D01*
X21816Y279389D01*
X22242Y279142D01*
X22620Y278832D01*
X22728Y278799D01*
X23847Y277679D01*
Y273338D01*
X22578Y272998D01*
X22218Y273620D01*
X20120Y275718D01*
X17550Y277202D01*
X14684Y277970D01*
X11716D01*
X8850Y277202D01*
X6280Y275718D01*
X4182Y273620D01*
X3860Y273062D01*
X2590Y273403D01*
Y285397D01*
X3860Y285738D01*
X4182Y285180D01*
D02*
G37*
G36*
X88720Y272250D02*
X88417Y272243D01*
X88126Y272216D01*
X87845Y272168D01*
X87575Y272101D01*
X87316Y272013D01*
X87068Y271905D01*
X86831Y271776D01*
X86604Y271628D01*
X86389Y271459D01*
X86365Y271437D01*
X86359Y271430D01*
X86136Y271165D01*
X85956Y270914D01*
X85819Y270678D01*
X85724Y270457D01*
X85673Y270250D01*
X85664Y270057D01*
X85699Y269879D01*
X85776Y269716D01*
X85896Y269567D01*
X83067Y272396D01*
X83216Y272276D01*
X83379Y272199D01*
X83557Y272164D01*
X83750Y272173D01*
X83957Y272224D01*
X84178Y272319D01*
X84414Y272456D01*
X84665Y272636D01*
X84930Y272859D01*
X84937Y272866D01*
X84959Y272889D01*
X85128Y273104D01*
X85276Y273331D01*
X85405Y273568D01*
X85513Y273816D01*
X85601Y274075D01*
X85668Y274345D01*
X85716Y274626D01*
X85743Y274917D01*
X85750Y275220D01*
X89230Y275730D01*
X88720Y272250D01*
D02*
G37*
G36*
X100083Y273807D02*
X99778Y273739D01*
X99205Y273565D01*
X98937Y273458D01*
X98680Y273339D01*
X98436Y273206D01*
X98203Y273061D01*
X97983Y272903D01*
X97905Y272839D01*
X97257Y272100D01*
X97172Y271970D01*
X97118Y271862D01*
X97093Y271778D01*
X97099Y271716D01*
X95468Y273347D01*
X95493Y273357D01*
X95545Y273395D01*
X95624Y273462D01*
X96038Y273854D01*
X96043Y273858D01*
X96209Y274077D01*
X96348Y274303D01*
X96460Y274537D01*
X96546Y274779D01*
X96604Y275029D01*
X96636Y275287D01*
X96641Y275553D01*
X96618Y275827D01*
X96569Y276108D01*
X100083Y273807D01*
D02*
G37*
G36*
X117033Y271235D02*
X116855Y271368D01*
X116673Y271464D01*
X116487Y271522D01*
X116295Y271543D01*
X116099Y271526D01*
X115898Y271472D01*
X115692Y271381D01*
X115481Y271252D01*
X115266Y271085D01*
X115046Y270882D01*
X114030Y272694D01*
X116495Y275150D01*
X117033Y271235D01*
D02*
G37*
G36*
X101530Y269293D02*
X101348Y269109D01*
X100747Y268432D01*
X100688Y268345D01*
X100650Y268274D01*
X100632Y268220D01*
X100634Y268181D01*
X99003Y269812D01*
X99042Y269809D01*
X99097Y269827D01*
X99168Y269866D01*
X99255Y269925D01*
X99358Y270004D01*
X99613Y270224D01*
X100115Y270707D01*
X101530Y269293D01*
D02*
G37*
G36*
X135192Y273647D02*
X134852Y273526D01*
X134552Y273324D01*
X134292Y273042D01*
X134072Y272679D01*
X133892Y272236D01*
X133752Y271712D01*
X133652Y271107D01*
X133592Y270422D01*
X133572Y269657D01*
X129572D01*
X129552Y270422D01*
X129492Y271107D01*
X129392Y271712D01*
X129252Y272236D01*
X129072Y272679D01*
X128852Y273042D01*
X128592Y273324D01*
X128292Y273526D01*
X127952Y273647D01*
X127572Y273687D01*
X135572D01*
X135192Y273647D01*
D02*
G37*
G36*
X56346Y268500D02*
X56326Y268690D01*
X56265Y268860D01*
X56163Y269010D01*
X56021Y269140D01*
X55838Y269250D01*
X55615Y269340D01*
X55351Y269410D01*
X55046Y269460D01*
X54701Y269490D01*
X54315Y269500D01*
Y271500D01*
X54701Y271510D01*
X55046Y271540D01*
X55351Y271590D01*
X55615Y271660D01*
X55838Y271750D01*
X56021Y271860D01*
X56163Y271990D01*
X56265Y272140D01*
X56326Y272310D01*
X56346Y272500D01*
Y268500D01*
D02*
G37*
G36*
X78497Y269812D02*
X76866Y268181D01*
X76876Y268237D01*
X76866Y268307D01*
X76835Y268391D01*
X76784Y268488D01*
X76712Y268599D01*
X76619Y268723D01*
X76372Y269013D01*
X76043Y269356D01*
X77457Y270770D01*
X78497Y269812D01*
D02*
G37*
G36*
X62663Y270003D02*
X62700Y269947D01*
X62765Y269898D01*
X62859Y269856D01*
X62981Y269820D01*
X63131Y269790D01*
X63309Y269767D01*
X63749Y269741D01*
X64012Y269738D01*
Y267738D01*
X63740Y267736D01*
X62766Y267668D01*
X62649Y267643D01*
X62558Y267615D01*
X62494Y267582D01*
X62455Y267545D01*
X62654Y270065D01*
X62663Y270003D01*
D02*
G37*
G36*
X105520Y266213D02*
X105252Y265942D01*
X104203Y264757D01*
X104172Y264688D01*
X104170Y264645D01*
X102539Y266276D01*
X102582Y266278D01*
X102650Y266310D01*
X102744Y266371D01*
X102863Y266462D01*
X103176Y266732D01*
X104106Y267627D01*
X105520Y266213D01*
D02*
G37*
G36*
X73664Y267359D02*
X74850Y266310D01*
X74918Y266278D01*
X74961Y266276D01*
X73330Y264645D01*
X73328Y264688D01*
X73297Y264757D01*
X73236Y264851D01*
X73145Y264970D01*
X72875Y265283D01*
X71980Y266213D01*
X73394Y267627D01*
X73664Y267359D01*
D02*
G37*
G36*
X23207Y266977D02*
X23240Y266927D01*
X23295Y266882D01*
X23370Y266844D01*
X23466Y266812D01*
X23584Y266785D01*
X23722Y266764D01*
X23881Y266750D01*
X24262Y266738D01*
Y264738D01*
X24024Y264735D01*
X23450Y264693D01*
X23307Y264668D01*
X23187Y264637D01*
X23091Y264601D01*
X23019Y264559D01*
X22970Y264512D01*
X22945Y264459D01*
X23194Y267033D01*
X23207Y266977D01*
D02*
G37*
G36*
X43839Y268864D02*
X44590Y268362D01*
X45476Y268186D01*
X53867D01*
X53936Y268112D01*
X54331Y267435D01*
X54342Y267389D01*
X54388Y266853D01*
X53954Y266203D01*
X53695Y264900D01*
Y263348D01*
X52639Y262643D01*
X52157Y262842D01*
X50459D01*
X48889Y262192D01*
X47688Y260991D01*
X47038Y259421D01*
Y257781D01*
X46874Y257632D01*
X45920Y257103D01*
X31779Y271245D01*
Y279265D01*
X32952Y279751D01*
X43839Y268864D01*
D02*
G37*
G36*
X117010Y261768D02*
X116765Y261864D01*
X116524Y261927D01*
X116285Y261957D01*
X116051Y261956D01*
X115819Y261921D01*
X115591Y261854D01*
X115366Y261755D01*
X115144Y261623D01*
X114926Y261458D01*
X114711Y261261D01*
X113472Y262851D01*
X113749Y263136D01*
X114478Y263985D01*
X114688Y264268D01*
X115058Y264831D01*
X115218Y265112D01*
X115488Y265672D01*
X117010Y261768D01*
D02*
G37*
G36*
X109056Y262677D02*
X108788Y262407D01*
X107739Y261222D01*
X107707Y261153D01*
X107705Y261110D01*
X106074Y262741D01*
X106117Y262743D01*
X106186Y262775D01*
X106280Y262836D01*
X106398Y262926D01*
X106712Y263197D01*
X107642Y264091D01*
X109056Y262677D01*
D02*
G37*
G36*
X71426Y262741D02*
X69795Y261110D01*
X69805Y261182D01*
X69785Y261275D01*
X69734Y261390D01*
X69654Y261527D01*
X69543Y261686D01*
X69401Y261866D01*
X69028Y262291D01*
X68533Y262803D01*
X70012Y264155D01*
X71426Y262741D01*
D02*
G37*
G36*
X62668Y262718D02*
X62709Y262662D01*
X62776Y262613D01*
X62871Y262570D01*
X62994Y262534D01*
X63143Y262505D01*
X63320Y262482D01*
X63754Y262456D01*
X64012Y262452D01*
Y260452D01*
X63754Y260449D01*
X63143Y260400D01*
X62994Y260370D01*
X62871Y260334D01*
X62776Y260292D01*
X62709Y260243D01*
X62668Y260187D01*
X62654Y260125D01*
Y262780D01*
X62668Y262718D01*
D02*
G37*
G36*
X160569Y257785D02*
X160178Y257958D01*
X159791Y258076D01*
X159408Y258139D01*
X159030Y258147D01*
X158657Y258100D01*
X158288Y257998D01*
X157923Y257842D01*
X157563Y257630D01*
X157208Y257364D01*
X156857Y257043D01*
X155443Y258457D01*
X155764Y258808D01*
X156030Y259163D01*
X156242Y259523D01*
X156398Y259888D01*
X156500Y260257D01*
X156547Y260630D01*
X156539Y261008D01*
X156476Y261391D01*
X156358Y261778D01*
X156185Y262169D01*
X160569Y257785D01*
D02*
G37*
G36*
X112591Y259142D02*
X112323Y258871D01*
X111274Y257686D01*
X111243Y257617D01*
X111241Y257574D01*
X109610Y259205D01*
X109653Y259207D01*
X109721Y259239D01*
X109815Y259300D01*
X109934Y259391D01*
X110248Y259661D01*
X111177Y260556D01*
X112591Y259142D01*
D02*
G37*
G36*
X66593Y260288D02*
X67779Y259239D01*
X67847Y259207D01*
X67890Y259205D01*
X66259Y257574D01*
X66257Y257617D01*
X66226Y257686D01*
X66164Y257780D01*
X66074Y257899D01*
X65803Y258212D01*
X64909Y259142D01*
X66323Y260556D01*
X66593Y260288D01*
D02*
G37*
G36*
X44613Y242113D02*
X45364Y241612D01*
X46250Y241436D01*
X50704D01*
X55532Y236607D01*
X55585Y236470D01*
X55822Y236220D01*
X55984Y236027D01*
X56062Y235919D01*
X54817Y234673D01*
X54467Y234150D01*
X54344Y233533D01*
X54467Y232915D01*
X54817Y232392D01*
X55024Y232185D01*
X54498Y230914D01*
X45364D01*
X38642Y237637D01*
X37891Y238138D01*
X37006Y238314D01*
X25111D01*
X24338Y239322D01*
X24470Y239816D01*
Y242784D01*
X23702Y245650D01*
X22218Y248220D01*
X20120Y250318D01*
X17550Y251802D01*
X14684Y252570D01*
X11716D01*
X8850Y251802D01*
X6280Y250318D01*
X4182Y248220D01*
X3860Y247662D01*
X2590Y248003D01*
Y259997D01*
X3860Y260338D01*
X4182Y259780D01*
X6280Y257682D01*
X8850Y256198D01*
X11716Y255430D01*
X14684D01*
X17550Y256198D01*
X20120Y257682D01*
X22218Y259780D01*
X23292Y261639D01*
X24826Y261901D01*
X44613Y242113D01*
D02*
G37*
G36*
X54300Y259007D02*
X54499Y258440D01*
X54616Y258174D01*
X54743Y257921D01*
X54881Y257679D01*
X55030Y257449D01*
X55191Y257232D01*
X55362Y257026D01*
X55544Y256832D01*
X54530Y255019D01*
X54318Y255212D01*
X54099Y255378D01*
X53874Y255515D01*
X53642Y255624D01*
X53402Y255704D01*
X53156Y255756D01*
X52903Y255779D01*
X52643Y255774D01*
X52376Y255741D01*
X52102Y255679D01*
X54216Y259308D01*
X54300Y259007D01*
D02*
G37*
G36*
X116127Y255606D02*
X115859Y255336D01*
X114810Y254150D01*
X114778Y254082D01*
X114776Y254039D01*
X113145Y255670D01*
X113188Y255672D01*
X113257Y255703D01*
X113351Y255765D01*
X113470Y255855D01*
X113783Y256125D01*
X114713Y257020D01*
X116127Y255606D01*
D02*
G37*
G36*
X119663Y252071D02*
X119395Y251800D01*
X118345Y250615D01*
X118314Y250546D01*
X118312Y250503D01*
X116681Y252134D01*
X116724Y252136D01*
X116792Y252168D01*
X116886Y252229D01*
X117005Y252320D01*
X117319Y252590D01*
X118248Y253485D01*
X119663Y252071D01*
D02*
G37*
G36*
X59807Y252579D02*
X60312Y252131D01*
X60401Y252068D01*
X60476Y252024D01*
X60536Y252000D01*
X60582Y251996D01*
X60612Y252010D01*
X59188Y250503D01*
X59171Y250494D01*
X59137Y250505D01*
X59085Y250536D01*
X59016Y250588D01*
X58824Y250753D01*
X58230Y251325D01*
X59644Y252739D01*
X59807Y252579D01*
D02*
G37*
G36*
X151014Y250717D02*
X151056Y250657D01*
X151127Y250571D01*
X151508Y250157D01*
X152409Y249239D01*
X151511Y248340D01*
X149999Y249750D01*
X151000Y250751D01*
X151014Y250717D01*
D02*
G37*
G36*
X74122Y252939D02*
X74155Y252875D01*
X74218Y252785D01*
X74310Y252670D01*
X74762Y252168D01*
X75377Y251540D01*
X75611Y251318D01*
X75876Y251095D01*
X76127Y250915D01*
X76363Y250778D01*
X76585Y250683D01*
X76792Y250632D01*
X76984Y250623D01*
X77162Y250658D01*
X77325Y250735D01*
X77474Y250855D01*
X74645Y248026D01*
X74765Y248175D01*
X74842Y248338D01*
X74877Y248516D01*
X74868Y248708D01*
X74817Y248916D01*
X74722Y249137D01*
X74585Y249373D01*
X74405Y249624D01*
X74182Y249889D01*
X73941Y250144D01*
X73809Y250275D01*
X72705Y251257D01*
X72607Y251317D01*
X72535Y251347D01*
X72487Y251347D01*
X74118Y252978D01*
X74122Y252939D01*
D02*
G37*
G36*
X123198Y248535D02*
X122930Y248265D01*
X121881Y247079D01*
X121849Y247011D01*
X121847Y246968D01*
X120216Y248599D01*
X120260Y248601D01*
X120328Y248632D01*
X120422Y248694D01*
X120541Y248784D01*
X120854Y249054D01*
X121784Y249949D01*
X123198Y248535D01*
D02*
G37*
G36*
X56453Y249214D02*
X57052Y248692D01*
X57130Y248642D01*
X57195Y248609D01*
X57246Y248595D01*
X57284Y248599D01*
X55653Y246968D01*
X55656Y247005D01*
X55642Y247056D01*
X55610Y247121D01*
X55559Y247200D01*
X55491Y247292D01*
X55300Y247518D01*
X54878Y247959D01*
X56292Y249373D01*
X56453Y249214D01*
D02*
G37*
G36*
X143050Y246321D02*
X143935Y246300D01*
Y241300D01*
X143142Y241291D01*
X143050Y241285D01*
Y240375D01*
X142746Y240551D01*
X142387Y240708D01*
X141975Y240847D01*
X141508Y240967D01*
X140986Y241069D01*
X140731Y241100D01*
X140513Y241069D01*
X139525Y240847D01*
X139113Y240708D01*
X138754Y240551D01*
X138450Y240375D01*
Y241279D01*
X137565Y241300D01*
Y246300D01*
X138358Y246309D01*
X138450Y246315D01*
Y247225D01*
X138754Y247049D01*
X139113Y246892D01*
X139525Y246753D01*
X139992Y246633D01*
X140513Y246531D01*
X140769Y246500D01*
X140986Y246531D01*
X141975Y246753D01*
X142387Y246892D01*
X142746Y247049D01*
X143050Y247225D01*
Y246321D01*
D02*
G37*
G36*
X95720Y244250D02*
X95417Y244243D01*
X95126Y244216D01*
X94845Y244168D01*
X94575Y244101D01*
X94316Y244013D01*
X94068Y243905D01*
X93831Y243776D01*
X93604Y243628D01*
X93389Y243459D01*
X93184Y243270D01*
X91770Y244684D01*
X91959Y244889D01*
X92128Y245104D01*
X92276Y245331D01*
X92405Y245568D01*
X92513Y245816D01*
X92601Y246075D01*
X92668Y246345D01*
X92716Y246626D01*
X92743Y246917D01*
X92750Y247220D01*
X95720Y244250D01*
D02*
G37*
G36*
X155006Y252893D02*
X155610Y252544D01*
X156341Y252237D01*
X157198Y251974D01*
X158182Y251754D01*
X159292Y251577D01*
X161893Y251352D01*
X163383Y251304D01*
X165000Y251299D01*
X155100Y241400D01*
X155096Y243017D01*
X154823Y247108D01*
X154646Y248218D01*
X154426Y249202D01*
X154163Y250059D01*
X153856Y250790D01*
X153507Y251394D01*
X153115Y251871D01*
X154529Y253285D01*
X155006Y252893D01*
D02*
G37*
G36*
X132795Y240545D02*
X132661Y240689D01*
X132458Y240817D01*
X132188Y240930D01*
X131850Y241028D01*
X131445Y241111D01*
X130971Y241179D01*
X129822Y241270D01*
X128401Y241300D01*
Y246300D01*
X129145Y246308D01*
X131445Y246489D01*
X131850Y246572D01*
X132188Y246670D01*
X132458Y246783D01*
X132661Y246911D01*
X132795Y247055D01*
Y240545D01*
D02*
G37*
G36*
X92730Y242816D02*
X92541Y242611D01*
X92372Y242396D01*
X92224Y242169D01*
X92095Y241932D01*
X91987Y241684D01*
X91899Y241425D01*
X91832Y241155D01*
X91784Y240874D01*
X91757Y240583D01*
X91750Y240280D01*
X88780Y243250D01*
X89083Y243257D01*
X89374Y243284D01*
X89655Y243332D01*
X89925Y243399D01*
X90184Y243487D01*
X90432Y243595D01*
X90669Y243724D01*
X90896Y243872D01*
X91111Y244041D01*
X91316Y244230D01*
X92730Y242816D01*
D02*
G37*
G36*
X143050Y237721D02*
X143935Y237700D01*
Y232700D01*
X143142Y232691D01*
X143050Y232684D01*
Y232200D01*
X148875D01*
X148756Y231977D01*
X148650Y231682D01*
X148556Y231315D01*
X148475Y230877D01*
X148350Y229784D01*
X148275Y228403D01*
X148250Y226735D01*
X143250D01*
X143244Y227605D01*
X143025Y230877D01*
X142944Y231315D01*
X142850Y231682D01*
X142755Y231945D01*
X142746Y231951D01*
X142387Y232108D01*
X141975Y232247D01*
X141508Y232367D01*
X140986Y232469D01*
X140731Y232500D01*
X140513Y232469D01*
X139525Y232247D01*
X139113Y232108D01*
X138754Y231951D01*
X138450Y231775D01*
Y232679D01*
X137565Y232700D01*
Y237700D01*
X138358Y237709D01*
X138450Y237715D01*
Y238625D01*
X138754Y238449D01*
X139113Y238292D01*
X139525Y238153D01*
X139992Y238033D01*
X140513Y237931D01*
X140769Y237900D01*
X140986Y237931D01*
X141975Y238153D01*
X142387Y238292D01*
X142746Y238449D01*
X143050Y238625D01*
Y237721D01*
D02*
G37*
G36*
X23365Y236707D02*
X21951Y235293D01*
X21512Y235740D01*
X22470Y237549D01*
X23365Y236707D01*
D02*
G37*
G36*
X58276Y238565D02*
X58541Y238342D01*
X58792Y238162D01*
X59028Y238025D01*
X59250Y237931D01*
X59457Y237879D01*
X59649Y237871D01*
X59827Y237905D01*
X59990Y237982D01*
X60139Y238102D01*
X57310Y235274D01*
X57430Y235422D01*
X57508Y235586D01*
X57542Y235763D01*
X57533Y235956D01*
X57482Y236163D01*
X57387Y236385D01*
X57250Y236621D01*
X57070Y236871D01*
X56848Y237137D01*
X56582Y237416D01*
X57996Y238831D01*
X58276Y238565D01*
D02*
G37*
G36*
X133050Y231775D02*
X132746Y231951D01*
X132387Y232108D01*
X131975Y232247D01*
X131508Y232367D01*
X130986Y232469D01*
X129781Y232617D01*
X129097Y232663D01*
X127565Y232700D01*
Y237700D01*
X128358Y237709D01*
X130411Y237848D01*
X130986Y237931D01*
X131975Y238153D01*
X132387Y238292D01*
X132746Y238449D01*
X133050Y238625D01*
Y231775D01*
D02*
G37*
G36*
X121815Y233426D02*
X121802Y233314D01*
X121811Y233195D01*
X121840Y233071D01*
X121889Y232941D01*
X121958Y232806D01*
X122049Y232664D01*
X122159Y232517D01*
X122290Y232364D01*
X122442Y232205D01*
X121544Y231307D01*
X121385Y231458D01*
X121232Y231590D01*
X121085Y231700D01*
X120943Y231790D01*
X120807Y231860D01*
X120677Y231909D01*
X120554Y231938D01*
X120435Y231946D01*
X120323Y231934D01*
X120216Y231901D01*
X121847Y233533D01*
X121815Y233426D01*
D02*
G37*
G36*
X118279Y229890D02*
X118267Y229778D01*
X118275Y229660D01*
X118304Y229536D01*
X118353Y229406D01*
X118423Y229270D01*
X118513Y229129D01*
X118624Y228981D01*
X118755Y228828D01*
X118906Y228669D01*
X118008Y227771D01*
X117850Y227923D01*
X117696Y228054D01*
X117549Y228165D01*
X117408Y228255D01*
X117272Y228325D01*
X117142Y228374D01*
X117018Y228403D01*
X116900Y228411D01*
X116787Y228399D01*
X116681Y228366D01*
X118312Y229997D01*
X118279Y229890D01*
D02*
G37*
G36*
X4182Y234380D02*
X6280Y232282D01*
X8850Y230798D01*
X11716Y230030D01*
X14684D01*
X17550Y230798D01*
X20120Y232282D01*
X21729Y233891D01*
X21772Y233862D01*
X22658Y233685D01*
X25031D01*
X25517Y232512D01*
X22428Y229423D01*
X22320Y229390D01*
X21956Y229093D01*
X21536Y228849D01*
X20945Y228592D01*
X20189Y228340D01*
X19275Y228103D01*
X18233Y227890D01*
X14115Y227371D01*
X12478Y227252D01*
X12478D01*
X12478Y227252D01*
X12477Y227252D01*
X12315Y227170D01*
X11716D01*
X8850Y226402D01*
X6280Y224918D01*
X4182Y222820D01*
X3860Y222262D01*
X2590Y222603D01*
Y234597D01*
X3860Y234938D01*
X4182Y234380D01*
D02*
G37*
G36*
X114701Y226337D02*
X114723Y226312D01*
X114881Y226145D01*
X115457Y225564D01*
X114043Y224149D01*
X113260Y224911D01*
X114696Y226347D01*
X114701Y226337D01*
D02*
G37*
G36*
X156082Y234380D02*
X158180Y232282D01*
X160750Y230798D01*
X163616Y230030D01*
X166584D01*
X169450Y230798D01*
X172020Y232282D01*
X173940Y234202D01*
X175210Y233950D01*
Y223250D01*
X173940Y222998D01*
X172020Y224918D01*
X169450Y226402D01*
X166584Y227170D01*
X165260D01*
X165017Y227274D01*
X161776Y227315D01*
X159144Y227505D01*
X158079Y227649D01*
X157162Y227826D01*
X156411Y228029D01*
X155836Y228245D01*
X155446Y228454D01*
X155105Y228725D01*
X154989Y228758D01*
X154192Y229555D01*
Y235113D01*
X155462Y235453D01*
X156082Y234380D01*
D02*
G37*
G36*
X130972Y220384D02*
X130806Y220209D01*
X130667Y220043D01*
X130554Y219886D01*
X130469Y219737D01*
X130411Y219598D01*
X130379Y219468D01*
X130375Y219347D01*
X130397Y219235D01*
X130447Y219131D01*
X130523Y219037D01*
X128727Y220833D01*
X128821Y220757D01*
X128924Y220707D01*
X129037Y220685D01*
X129158Y220689D01*
X129288Y220721D01*
X129427Y220779D01*
X129575Y220865D01*
X129733Y220977D01*
X129899Y221116D01*
X130074Y221282D01*
X130972Y220384D01*
D02*
G37*
G36*
X95681Y225272D02*
X95604Y225109D01*
X95570Y224931D01*
X95579Y224738D01*
X95630Y224531D01*
X95724Y224310D01*
X95862Y224074D01*
X96041Y223823D01*
X96264Y223557D01*
X96510Y223299D01*
X96645Y223165D01*
X97831Y222116D01*
X97899Y222084D01*
X97942Y222082D01*
X96311Y220451D01*
X96309Y220494D01*
X96278Y220563D01*
X96216Y220657D01*
X96126Y220776D01*
X95856Y221089D01*
X95048Y221927D01*
X94836Y222129D01*
X94571Y222352D01*
X94320Y222532D01*
X94084Y222669D01*
X93862Y222763D01*
X93655Y222815D01*
X93463Y222823D01*
X93285Y222789D01*
X93122Y222712D01*
X92973Y222592D01*
X95801Y225420D01*
X95681Y225272D01*
D02*
G37*
G36*
X138488Y216325D02*
X138265Y216504D01*
X138020Y216618D01*
X137752Y216667D01*
X137462Y216651D01*
X137149Y216571D01*
X136814Y216426D01*
X136456Y216215D01*
X136126Y215977D01*
X135927Y215712D01*
X135716Y215371D01*
X135565Y215055D01*
X135475Y214763D01*
X135446Y214495D01*
X135478Y214251D01*
X135571Y214032D01*
X135724Y213836D01*
X131623Y217937D01*
X131846Y217757D01*
X132090Y217640D01*
X132355Y217587D01*
X132641Y217597D01*
X132949Y217672D01*
X133278Y217810D01*
X133628Y218011D01*
X133926Y218224D01*
X134144Y218525D01*
X134354Y218882D01*
X134500Y219217D01*
X134581Y219529D01*
X134597Y219818D01*
X134549Y220084D01*
X134436Y220327D01*
X134258Y220548D01*
X138488Y216325D01*
D02*
G37*
G36*
X35742Y222623D02*
X35900Y222410D01*
X36074Y222221D01*
X36265Y222058D01*
X36472Y221920D01*
X36694Y221807D01*
X36934Y221719D01*
X37189Y221656D01*
X37460Y221618D01*
X37748Y221606D01*
X37117Y219606D01*
X36853Y219598D01*
X36587Y219575D01*
X36321Y219536D01*
X36052Y219482D01*
X35783Y219412D01*
X35240Y219227D01*
X34966Y219111D01*
X34784Y219018D01*
X34656Y218864D01*
X34491Y218632D01*
X34348Y218393D01*
X34227Y218148D01*
X34128Y217896D01*
X34051Y217638D01*
X33996Y217372D01*
X33963Y217101D01*
X33952Y216823D01*
X31952D01*
X31941Y217101D01*
X31908Y217372D01*
X31853Y217638D01*
X31776Y217896D01*
X31677Y218148D01*
X31556Y218393D01*
X31413Y218632D01*
X31248Y218864D01*
X31061Y219090D01*
X30852Y219309D01*
X34556D01*
X35599Y222862D01*
X35742Y222623D01*
D02*
G37*
G36*
X107695Y219334D02*
X107705Y219264D01*
X107736Y219180D01*
X107788Y219083D01*
X107860Y218972D01*
X107953Y218847D01*
X108200Y218557D01*
X108530Y218213D01*
X107116Y216799D01*
X106074Y217759D01*
X107705Y219390D01*
X107695Y219334D01*
D02*
G37*
G36*
X24707Y227015D02*
X24295Y226514D01*
X23939Y225896D01*
X23641Y225161D01*
X23401Y224308D01*
X23218Y223337D01*
X23093Y222250D01*
X23025Y221044D01*
X23061Y218280D01*
X23166Y216722D01*
X12577Y225881D01*
X14252Y226003D01*
X18457Y226533D01*
X19586Y226764D01*
X20579Y227022D01*
X21436Y227307D01*
X22157Y227619D01*
X22742Y227959D01*
X23190Y228326D01*
X24707Y227015D01*
D02*
G37*
G36*
X154688Y227300D02*
X155268Y226990D01*
X155989Y226719D01*
X156852Y226486D01*
X157856Y226292D01*
X159002Y226137D01*
X161718Y225941D01*
X165000Y225900D01*
X155100Y216000D01*
X155099Y217712D01*
X154863Y221998D01*
X154708Y223144D01*
X154514Y224148D01*
X154281Y225011D01*
X154010Y225732D01*
X153700Y226312D01*
X153352Y226750D01*
X154250Y227649D01*
X154688Y227300D01*
D02*
G37*
G36*
X165101Y216900D02*
X164100Y215899D01*
X164086Y215933D01*
X164044Y215993D01*
X163973Y216079D01*
X163593Y216493D01*
X162691Y217411D01*
X163589Y218309D01*
X165101Y216900D01*
D02*
G37*
G36*
X153530Y221211D02*
X153724Y217674D01*
X153726Y215999D01*
X153830Y215748D01*
Y214416D01*
X154598Y211550D01*
X156082Y208980D01*
X158180Y206882D01*
X160750Y205398D01*
X163616Y204630D01*
X166584D01*
X169450Y205398D01*
X172020Y206882D01*
X173940Y208802D01*
X175210Y208550D01*
Y197850D01*
X173940Y197598D01*
X172020Y199518D01*
X169450Y201002D01*
X166584Y201770D01*
X163616D01*
X160750Y201002D01*
X158180Y199518D01*
X156600Y197938D01*
X156416Y197847D01*
X155417Y196698D01*
X153556Y194777D01*
X152724Y194030D01*
X151938Y193405D01*
X151215Y192910D01*
X150562Y192544D01*
X149989Y192300D01*
X149504Y192169D01*
X148972Y192118D01*
X148870Y192064D01*
X146062D01*
X145176Y191888D01*
X144425Y191387D01*
X122603Y169564D01*
X111000D01*
X110114Y169388D01*
X109363Y168887D01*
X109283Y168806D01*
X106812D01*
X106097Y168664D01*
X105491Y168259D01*
X105086Y167652D01*
X104944Y166938D01*
Y162563D01*
X105086Y161847D01*
X105491Y161241D01*
X106097Y160836D01*
X106812Y160694D01*
X110188D01*
X110903Y160836D01*
X111509Y161241D01*
X111914Y161847D01*
X112056Y162563D01*
Y164935D01*
X116118D01*
X116614Y164007D01*
X116674Y163666D01*
X116380Y162188D01*
Y160227D01*
X115352Y159540D01*
X113148D01*
X111280Y158766D01*
X114250Y155796D01*
Y156500D01*
X115158Y156523D01*
X115971Y156590D01*
X116688Y156702D01*
X117310Y156860D01*
X117836Y157063D01*
X118266Y157310D01*
X118601Y157603D01*
X118840Y157940D01*
X118983Y158323D01*
X119031Y158750D01*
Y149249D01*
X118983Y149677D01*
X118840Y150060D01*
X118601Y150397D01*
X118266Y150690D01*
X117836Y150937D01*
X117310Y151140D01*
X116688Y151298D01*
X115971Y151410D01*
X115158Y151477D01*
X114250Y151500D01*
Y152204D01*
X111280Y149234D01*
X113148Y148460D01*
X115352D01*
X116380Y147773D01*
Y145813D01*
X116698Y144212D01*
X116885Y143932D01*
X124352Y151398D01*
X125250Y150500D01*
X126148Y151398D01*
X133615Y143931D01*
X133802Y144212D01*
X134120Y145813D01*
Y162188D01*
X133802Y163788D01*
X133615Y164069D01*
X126148Y156602D01*
X124352Y158398D01*
X131819Y165865D01*
X131538Y166052D01*
X129937Y166370D01*
X127615D01*
X127129Y167544D01*
X139083Y179498D01*
X140256Y179011D01*
Y178984D01*
X141030Y177116D01*
X144898Y180984D01*
X148766Y184852D01*
X147342Y185442D01*
X146957Y186668D01*
X146968Y186867D01*
X147408Y187435D01*
X149018D01*
X149117Y187382D01*
X149583Y187335D01*
X150052Y187211D01*
X150652Y186975D01*
X151365Y186618D01*
X152145Y186161D01*
X156368Y183006D01*
X157608Y181942D01*
X157775Y181887D01*
X158180Y181482D01*
X160750Y179998D01*
X163616Y179230D01*
X166584D01*
X169450Y179998D01*
X172020Y181482D01*
X173940Y183402D01*
X175210Y183150D01*
Y172450D01*
X173940Y172198D01*
X172020Y174118D01*
X169450Y175602D01*
X166584Y176370D01*
X163616D01*
X160750Y175602D01*
X158180Y174118D01*
X156082Y172020D01*
X154598Y169450D01*
X153830Y166584D01*
Y163616D01*
X154598Y160750D01*
X156082Y158180D01*
X158180Y156082D01*
X160750Y154598D01*
X163616Y153830D01*
X166584D01*
X169450Y154598D01*
X172020Y156082D01*
X173940Y158002D01*
X175210Y157750D01*
Y147050D01*
X173940Y146798D01*
X172020Y148718D01*
X169450Y150202D01*
X166584Y150970D01*
X163616D01*
X160750Y150202D01*
X158180Y148718D01*
X156082Y146620D01*
X154598Y144050D01*
X153830Y141184D01*
Y141001D01*
X153793Y140935D01*
X153622Y139543D01*
X153424Y138289D01*
X152929Y136036D01*
X152648Y135099D01*
X152338Y134255D01*
X152007Y133520D01*
X151660Y132895D01*
X151301Y132378D01*
X151120Y132172D01*
X149967Y132783D01*
X150060Y133250D01*
Y137750D01*
X149903Y138538D01*
X149585Y139015D01*
X149491Y139241D01*
X149452Y139257D01*
X149433Y139295D01*
X149309Y139405D01*
X149251Y139488D01*
X149147Y139705D01*
X149028Y140054D01*
X148914Y140525D01*
X148819Y141081D01*
X148806Y141255D01*
X148847Y141662D01*
X148937Y142205D01*
X149039Y142667D01*
X149148Y143029D01*
X149250Y143283D01*
X149385Y143525D01*
X149403Y143678D01*
X149410Y143688D01*
X149466Y143969D01*
X149560Y144196D01*
X149527Y144275D01*
X149586Y144574D01*
Y150574D01*
X149410Y151460D01*
X148909Y152211D01*
X148158Y152712D01*
X147272Y152888D01*
X141272D01*
X140386Y152712D01*
X139635Y152211D01*
X139134Y151460D01*
X138958Y150574D01*
Y144574D01*
X139017Y144275D01*
X138984Y144196D01*
X139078Y143969D01*
X139134Y143688D01*
X139139Y143681D01*
X139156Y143530D01*
X139282Y143303D01*
X139377Y143062D01*
X139479Y142707D01*
X139577Y142247D01*
X139660Y141725D01*
X139695Y141185D01*
X139686Y141109D01*
X139586Y140525D01*
X139472Y140054D01*
X139353Y139705D01*
X139249Y139488D01*
X139191Y139405D01*
X139067Y139295D01*
X139048Y139257D01*
X139009Y139241D01*
X138916Y139015D01*
X138597Y138538D01*
X138440Y137750D01*
Y133250D01*
X138597Y132462D01*
X139044Y131794D01*
X139712Y131347D01*
X140500Y131190D01*
X144028D01*
X144250Y131146D01*
X144472Y131190D01*
X148000D01*
X148536Y131297D01*
X149159Y130527D01*
X149285Y130250D01*
X146374Y127339D01*
X146280Y127302D01*
X145546Y126595D01*
X144882Y126010D01*
X144275Y125529D01*
X143732Y125155D01*
X143260Y124886D01*
X143085Y124810D01*
X140500D01*
X139712Y124653D01*
X139044Y124206D01*
X138597Y123538D01*
X138440Y122750D01*
Y118250D01*
X138597Y117462D01*
X139044Y116794D01*
X139712Y116347D01*
X140500Y116190D01*
X148000D01*
X148788Y116347D01*
X149456Y116794D01*
X149903Y117462D01*
X150060Y118250D01*
Y119413D01*
X150072Y119453D01*
X150060Y119477D01*
Y121140D01*
X150444Y121683D01*
X151716Y123167D01*
X152549Y124027D01*
X152587Y124122D01*
X155189Y126724D01*
X155249Y126741D01*
X155268Y126775D01*
X155306Y126787D01*
X155837Y127253D01*
X156368Y127608D01*
X156975Y127913D01*
X157666Y128167D01*
X158443Y128367D01*
X159309Y128507D01*
X160265Y128586D01*
X161310Y128598D01*
X162442Y128542D01*
X163693Y128413D01*
X163750Y128430D01*
X166584D01*
X169450Y129198D01*
X172020Y130682D01*
X173940Y132602D01*
X175210Y132350D01*
Y123720D01*
X173940Y123194D01*
X172800Y124334D01*
X169940Y125985D01*
X166751Y126840D01*
X163449D01*
X160260Y125985D01*
X157400Y124334D01*
X157131Y124065D01*
X165998Y115198D01*
X165100Y114300D01*
X165998Y113402D01*
X157131Y104535D01*
X157400Y104265D01*
X160260Y102615D01*
X163449Y101760D01*
X166751D01*
X169940Y102615D01*
X172800Y104265D01*
X173940Y105406D01*
X175210Y104880D01*
Y96250D01*
X173940Y95998D01*
X172020Y97918D01*
X169450Y99402D01*
X166584Y100170D01*
X163616D01*
X160750Y99402D01*
X158180Y97918D01*
X156082Y95820D01*
X154598Y93250D01*
X153830Y90384D01*
Y87416D01*
X154598Y84550D01*
X156082Y81980D01*
X158180Y79882D01*
X160750Y78398D01*
X163616Y77630D01*
X166584D01*
X169450Y78398D01*
X172020Y79882D01*
X173940Y81802D01*
X175210Y81550D01*
Y70850D01*
X173940Y70598D01*
X172020Y72518D01*
X169450Y74002D01*
X166584Y74770D01*
X163616D01*
X160750Y74002D01*
X158180Y72518D01*
X156082Y70420D01*
X154598Y67850D01*
X153830Y64984D01*
Y62016D01*
X154598Y59150D01*
X156082Y56580D01*
X158180Y54482D01*
X160750Y52998D01*
X163616Y52230D01*
X166584D01*
X169450Y52998D01*
X172020Y54482D01*
X173940Y56402D01*
X175210Y56150D01*
Y45450D01*
X173940Y45198D01*
X172020Y47118D01*
X169450Y48602D01*
X166584Y49370D01*
X165452D01*
X165217Y49474D01*
X163754Y49509D01*
X161166Y49710D01*
X160076Y49870D01*
X159094Y50071D01*
X158236Y50307D01*
X157503Y50574D01*
X156898Y50864D01*
X156418Y51168D01*
X155970Y51550D01*
X155873Y51581D01*
X149783Y57671D01*
Y57868D01*
X149810Y58000D01*
Y62500D01*
X149653Y63288D01*
X149206Y63956D01*
X148538Y64403D01*
X147750Y64560D01*
X143639D01*
X143276Y64756D01*
X142835Y65049D01*
X140916Y66670D01*
X140914Y66671D01*
X140787Y66808D01*
X140664Y66961D01*
X140558Y67108D01*
X140479Y67234D01*
X140425Y67335D01*
X140394Y67410D01*
X140380Y67455D01*
X140377Y67469D01*
X140372Y67552D01*
X140270Y67762D01*
Y68349D01*
X139687Y69758D01*
X140035Y70489D01*
X140394Y70940D01*
X147750D01*
X148538Y71097D01*
X149206Y71544D01*
X149653Y72212D01*
X149810Y73000D01*
Y77500D01*
X149653Y78288D01*
X149334Y78765D01*
X149241Y78991D01*
X149162Y79024D01*
X149120Y79098D01*
X148866Y79298D01*
X148702Y79473D01*
X148542Y79702D01*
X148388Y79995D01*
X148245Y80358D01*
X148119Y80793D01*
X148020Y81278D01*
X147989Y81581D01*
X148050Y82044D01*
X148141Y82521D01*
X148243Y82901D01*
X148346Y83178D01*
X148434Y83347D01*
X148481Y83410D01*
X148598Y83511D01*
X148622Y83559D01*
X148671Y83579D01*
X148765Y83805D01*
X149138Y84364D01*
X149314Y85250D01*
Y91250D01*
X149138Y92136D01*
X148637Y92887D01*
X147886Y93388D01*
X147000Y93565D01*
X143520D01*
X142815Y94621D01*
X143040Y95164D01*
Y97368D01*
X143222Y97641D01*
X147000D01*
X148381Y97915D01*
X148476Y97978D01*
X143102Y103352D01*
X137500Y108954D01*
X131898Y103352D01*
X126524Y97978D01*
X126619Y97915D01*
X128000Y97641D01*
X131778D01*
X131960Y97368D01*
Y95164D01*
X132185Y94620D01*
X131480Y93565D01*
X128000D01*
X127114Y93388D01*
X126363Y92887D01*
X125862Y92136D01*
X125848Y92065D01*
X124604Y92000D01*
X124349Y93284D01*
X124341Y93295D01*
X119898Y88852D01*
X118102Y90648D01*
X122545Y95091D01*
X122534Y95099D01*
X121250Y95354D01*
X113750D01*
X112466Y95099D01*
X112455Y95091D01*
X116898Y90648D01*
X115102Y88852D01*
X110659Y93295D01*
X110651Y93284D01*
X110395Y92000D01*
Y90077D01*
X109122D01*
X108379Y89930D01*
X107749Y89508D01*
X107749Y89508D01*
X102882Y84641D01*
X102725Y84407D01*
X101542Y83670D01*
X100828Y83812D01*
X100153D01*
X98608Y85358D01*
X97526Y86080D01*
X96250Y86334D01*
X95868D01*
X95777Y86374D01*
X95007Y86393D01*
X94378Y86446D01*
X93864Y86527D01*
X93475Y86628D01*
X93216Y86732D01*
X93088Y86811D01*
X93085Y86813D01*
X93088Y86983D01*
X93069Y87028D01*
Y89750D01*
X92874Y90733D01*
X92317Y91567D01*
X91483Y92124D01*
X90500Y92319D01*
X78830D01*
X78353Y93133D01*
X78275Y93560D01*
X84131Y99416D01*
X99863D01*
X99960Y99375D01*
X100289Y99374D01*
X101266Y99352D01*
X101368Y99344D01*
X101581Y99130D01*
X103151Y98480D01*
X104849D01*
X106419Y99130D01*
X106586Y99297D01*
X108109Y99377D01*
X108190Y99416D01*
X108902D01*
X108995Y99375D01*
X109567Y99367D01*
X110067Y99342D01*
X111003Y99240D01*
X111380Y99172D01*
X111730Y99089D01*
X112037Y98995D01*
X112301Y98893D01*
X112522Y98787D01*
X112763Y98643D01*
X112931Y98618D01*
X112962Y98597D01*
X113243Y98541D01*
X113469Y98448D01*
X113549Y98481D01*
X113750Y98440D01*
X121250D01*
X122038Y98597D01*
X122706Y99044D01*
X123153Y99712D01*
X123310Y100500D01*
X124553Y100435D01*
X124665Y99869D01*
X124728Y99775D01*
X130102Y105148D01*
X135476Y110521D01*
X135381Y110585D01*
X134000Y110859D01*
X128000D01*
X126619Y110585D01*
X125796Y110035D01*
X124986Y111021D01*
X127607Y113643D01*
X128330Y114724D01*
X128539Y115775D01*
X128624Y115967D01*
X128641Y116646D01*
X128686Y117200D01*
X128757Y117657D01*
X128844Y118009D01*
X128936Y118250D01*
X129010Y118382D01*
X129026Y118400D01*
X129156Y118415D01*
X129173Y118425D01*
X129937D01*
X131043Y118644D01*
X131980Y119270D01*
X132606Y120207D01*
X132825Y121313D01*
Y137688D01*
X132606Y138793D01*
X131980Y139730D01*
X131043Y140356D01*
X130543Y140455D01*
X130543Y141750D01*
X131538Y141948D01*
X131819Y142135D01*
X125250Y148704D01*
X118681Y142135D01*
X118962Y141948D01*
X119957Y141750D01*
X119957Y140455D01*
X119457Y140356D01*
X118712Y139858D01*
X118486Y139764D01*
X118449Y139674D01*
X118364Y139625D01*
X117795Y138877D01*
X117200Y138270D01*
X116521Y137730D01*
X115752Y137255D01*
X114949Y136876D01*
X114691Y136981D01*
X114000Y137402D01*
X113517Y137849D01*
X113202Y138321D01*
X113012Y138856D01*
X112948Y139469D01*
Y141812D01*
X112640Y143357D01*
X111766Y144666D01*
X110457Y145540D01*
X108912Y145848D01*
X92788D01*
X91243Y145540D01*
X89934Y144666D01*
X89060Y143357D01*
X88752Y141812D01*
Y114688D01*
X89060Y113143D01*
X89934Y111834D01*
X91243Y110960D01*
X92788Y110653D01*
X108912D01*
X110457Y110960D01*
X111766Y111834D01*
X112640Y113143D01*
X112948Y114688D01*
Y119531D01*
X113012Y120144D01*
X113202Y120679D01*
X113517Y121151D01*
X114000Y121598D01*
X114691Y122019D01*
X114949Y122124D01*
X115752Y121745D01*
X116521Y121270D01*
X117200Y120730D01*
X117795Y120123D01*
X118364Y119375D01*
X118449Y119326D01*
X118486Y119236D01*
X118712Y119142D01*
X119457Y118644D01*
X120562Y118425D01*
X121327D01*
X121344Y118415D01*
X121474Y118400D01*
X121490Y118382D01*
X121564Y118250D01*
X121656Y118009D01*
X121743Y117657D01*
X121803Y117268D01*
X115369Y110834D01*
X114646Y109752D01*
X114439Y108709D01*
X114352Y108517D01*
X114334Y107894D01*
X113469Y107052D01*
X113243Y106959D01*
X112962Y106903D01*
X112931Y106882D01*
X112763Y106857D01*
X112523Y106713D01*
X112301Y106607D01*
X112037Y106505D01*
X111730Y106411D01*
X111380Y106328D01*
X111017Y106262D01*
X109542Y106133D01*
X108995Y106124D01*
X108902Y106084D01*
X108137D01*
X108040Y106125D01*
X107711Y106126D01*
X106734Y106148D01*
X106632Y106156D01*
X106419Y106370D01*
X104849Y107020D01*
X103151D01*
X101581Y106370D01*
X101414Y106203D01*
X99891Y106123D01*
X99810Y106084D01*
X82750D01*
X81474Y105830D01*
X80393Y105107D01*
X75713Y100428D01*
X74482Y100993D01*
X73766Y102720D01*
X69898Y98852D01*
X66030Y94984D01*
X67898Y94210D01*
X68812D01*
X69916Y93250D01*
X69916Y93037D01*
Y56000D01*
X70170Y54724D01*
X70359Y54441D01*
X70421Y54063D01*
X70082Y52903D01*
X69971Y52802D01*
X69446Y52604D01*
X68729Y52403D01*
X67913Y52238D01*
X67016Y52113D01*
X64872Y51982D01*
X63667Y51983D01*
X63417Y51880D01*
X62181D01*
X59632Y51197D01*
X57348Y49878D01*
X55482Y48012D01*
X54163Y45728D01*
X53624Y43718D01*
X52354Y43885D01*
Y70471D01*
X52404Y70579D01*
X52423Y71119D01*
X52475Y71589D01*
X52561Y72038D01*
X52680Y72468D01*
X52831Y72882D01*
X53017Y73283D01*
X53238Y73671D01*
X53495Y74050D01*
X53790Y74418D01*
X54158Y74813D01*
X54199Y74925D01*
X60247Y80973D01*
X60247Y80973D01*
X60859Y81889D01*
X61074Y82970D01*
Y175750D01*
X60859Y176831D01*
X60247Y177747D01*
X60247Y177747D01*
X54641Y183353D01*
X53725Y183965D01*
X52644Y184180D01*
X51563Y183965D01*
X51295Y183786D01*
X48498Y183730D01*
X48362Y183671D01*
X35182D01*
X34636Y184355D01*
X35177Y185580D01*
X44477D01*
X45956Y185874D01*
X46133Y185992D01*
X39829Y192296D01*
X41625Y194092D01*
X47929Y187788D01*
X48047Y187965D01*
X48341Y189444D01*
Y196944D01*
X48047Y198423D01*
X47551Y199165D01*
X48185Y200436D01*
X72428D01*
X73313Y200612D01*
X73804Y200940D01*
X74082Y201047D01*
X75105Y200780D01*
X75230Y200725D01*
X75617Y199508D01*
X74930Y198479D01*
X74636Y197000D01*
Y189500D01*
X74930Y188021D01*
X75048Y187844D01*
X81352Y194148D01*
X83148Y192352D01*
X76844Y186048D01*
X77021Y185930D01*
X78500Y185636D01*
X90500D01*
X91979Y185930D01*
X92156Y186048D01*
X85852Y192352D01*
X87648Y194148D01*
X93952Y187844D01*
X94070Y188021D01*
X94364Y189500D01*
Y195095D01*
X95634Y195944D01*
X96151Y195730D01*
X97849D01*
X97924Y195761D01*
X101123Y192563D01*
X100971Y190954D01*
X100350Y190333D01*
X99793Y189499D01*
X96545Y186251D01*
X95807Y185146D01*
X95800Y185113D01*
X102347Y185113D01*
Y182573D01*
X95800Y182573D01*
X95807Y182540D01*
X96545Y181435D01*
X100364Y177616D01*
X101468Y176878D01*
X102772Y176619D01*
X103245Y176713D01*
X103542Y176269D01*
X107360Y172451D01*
X108045Y171993D01*
X108853Y171833D01*
X109660Y171993D01*
X110345Y172451D01*
X113739Y175845D01*
X114197Y176530D01*
X114357Y177337D01*
X114304Y177603D01*
X114317Y177633D01*
X114282Y177715D01*
X114197Y178145D01*
X114176Y178176D01*
X114569Y179158D01*
X114662Y179270D01*
X116025Y179456D01*
X120918Y174563D01*
X132614Y186259D01*
X131715Y187157D01*
X135385Y190826D01*
X137182Y189030D01*
X150673Y202522D01*
X146845Y206350D01*
X146907Y206415D01*
X146999Y206652D01*
X147462Y207345D01*
X147626Y208170D01*
X147727Y208403D01*
X147737Y209012D01*
X150655Y211929D01*
X151393Y213034D01*
X151400Y213067D01*
X144853Y213067D01*
Y215607D01*
X151400Y215607D01*
X151393Y215641D01*
X150889Y216395D01*
X151348Y217084D01*
X151641Y218554D01*
X151641Y218555D01*
Y220937D01*
X152237Y221600D01*
X153530Y221211D01*
D02*
G37*
G36*
X112104Y216551D02*
X111914Y216344D01*
X111746Y216127D01*
X111601Y215900D01*
X111480Y215663D01*
X111382Y215416D01*
X111306Y215160D01*
X111254Y214893D01*
X111225Y214617D01*
X111219Y214331D01*
X111236Y214035D01*
X108025Y216742D01*
X108331Y216774D01*
X108625Y216823D01*
X108908Y216889D01*
X109179Y216973D01*
X109439Y217074D01*
X109687Y217192D01*
X109923Y217328D01*
X110148Y217480D01*
X110361Y217650D01*
X110562Y217837D01*
X112104Y216551D01*
D02*
G37*
G36*
X74961Y214224D02*
X74918Y214222D01*
X74850Y214190D01*
X74756Y214129D01*
X74637Y214038D01*
X74324Y213768D01*
X73394Y212873D01*
X71980Y214287D01*
X72248Y214557D01*
X73297Y215743D01*
X73328Y215812D01*
X73330Y215855D01*
X74961Y214224D01*
D02*
G37*
G36*
X44010Y213018D02*
X44216Y212820D01*
X44432Y212645D01*
X44658Y212493D01*
X44892Y212365D01*
X45136Y212260D01*
X45390Y212179D01*
X45652Y212121D01*
X45924Y212086D01*
X46206Y212074D01*
X46025Y210074D01*
X45751Y210064D01*
X45480Y210033D01*
X45213Y209982D01*
X44950Y209911D01*
X44692Y209819D01*
X44437Y209707D01*
X44186Y209574D01*
X43939Y209421D01*
X43696Y209248D01*
X43457Y209054D01*
X43812Y213239D01*
X44010Y213018D01*
D02*
G37*
G36*
X66522Y208909D02*
X66324Y209130D01*
X66118Y209328D01*
X65902Y209503D01*
X65676Y209655D01*
X65442Y209783D01*
X65198Y209888D01*
X64944Y209969D01*
X64682Y210027D01*
X64410Y210062D01*
X64128Y210074D01*
X64309Y212074D01*
X64583Y212084D01*
X64854Y212115D01*
X65121Y212166D01*
X65384Y212237D01*
X65642Y212329D01*
X65897Y212441D01*
X66148Y212574D01*
X66395Y212727D01*
X66638Y212900D01*
X66877Y213094D01*
X66522Y208909D01*
D02*
G37*
G36*
X146699Y212609D02*
X146626Y212407D01*
X146562Y212139D01*
X146506Y211806D01*
X146485Y211588D01*
X146564D01*
X146524Y211557D01*
X146488Y211462D01*
X146457Y211308D01*
X146421Y210942D01*
X146380Y210031D01*
X146353Y208426D01*
X144853D01*
X145913Y207365D01*
X145568Y207004D01*
X145276Y206664D01*
X145037Y206345D01*
X144851Y206047D01*
X144719Y205771D01*
X144639Y205516D01*
X144613Y205282D01*
X144640Y205069D01*
X144720Y204877D01*
X144853Y204707D01*
X141134Y208426D01*
X141305Y208292D01*
X141496Y208212D01*
X141709Y208186D01*
X141943Y208212D01*
X142198Y208291D01*
X142474Y208424D01*
X142772Y208610D01*
X143091Y208849D01*
X143348Y209069D01*
X143181Y211557D01*
X143141Y211588D01*
X143181D01*
X143144Y212139D01*
X143079Y212407D01*
X143007Y212609D01*
X142926Y212745D01*
X146780D01*
X146699Y212609D01*
D02*
G37*
G36*
X100636Y212276D02*
X100668Y212208D01*
X100729Y212114D01*
X100820Y211995D01*
X101090Y211681D01*
X101742Y211004D01*
X102589Y210263D01*
X102870Y210048D01*
X103421Y209671D01*
X103691Y209509D01*
X104220Y209241D01*
X100304Y207816D01*
X100405Y208055D01*
X100472Y208291D01*
X100507Y208525D01*
X100508Y208756D01*
X100476Y208985D01*
X100411Y209211D01*
X100313Y209434D01*
X100182Y209655D01*
X100056Y209822D01*
X99115Y210655D01*
X99046Y210686D01*
X99003Y210688D01*
X100634Y212319D01*
X100636Y212276D01*
D02*
G37*
G36*
X78497Y210688D02*
X78454Y210686D01*
X78385Y210655D01*
X78292Y210593D01*
X78173Y210503D01*
X77859Y210233D01*
X76942Y209350D01*
X76959Y209160D01*
X77001Y208894D01*
X77060Y208645D01*
X77137Y208414D01*
X77230Y208202D01*
X77340Y208007D01*
X77467Y207830D01*
X77610Y207671D01*
X77771Y207530D01*
X74079Y207530D01*
X74240Y207671D01*
X74384Y207830D01*
X74510Y208007D01*
X74620Y208202D01*
X74714Y208414D01*
X74790Y208645D01*
X74849Y208894D01*
X74891Y209160D01*
X74917Y209445D01*
X74925Y209747D01*
X76520D01*
X75515Y210752D01*
X75783Y211022D01*
X76832Y212208D01*
X76864Y212276D01*
X76866Y212319D01*
X78497Y210688D01*
D02*
G37*
G36*
X86482Y211490D02*
X86405Y211327D01*
X86371Y211149D01*
X86379Y210957D01*
X86431Y210750D01*
X86525Y210528D01*
X86662Y210292D01*
X86842Y210041D01*
X87065Y209776D01*
X87331Y209496D01*
X86077Y208243D01*
X87809Y209018D01*
X87998Y208838D01*
X88412Y208503D01*
X88636Y208348D01*
X89118Y208062D01*
X89376Y207932D01*
X89928Y207695D01*
X90220Y207589D01*
X86431Y205777D01*
X86512Y206037D01*
X86561Y206292D01*
X86580Y206541D01*
X86568Y206785D01*
X86526Y207024D01*
X86453Y207259D01*
X86350Y207488D01*
X86215Y207711D01*
X86051Y207930D01*
X85877Y208120D01*
X85637Y208347D01*
X85371Y208570D01*
X85121Y208750D01*
X84884Y208888D01*
X84663Y208982D01*
X84456Y209033D01*
X84263Y209042D01*
X84086Y209008D01*
X83922Y208930D01*
X83774Y208811D01*
X86602Y211639D01*
X86482Y211490D01*
D02*
G37*
G36*
X25117Y211926D02*
Y206191D01*
X22728Y203801D01*
X22620Y203769D01*
X22242Y203458D01*
X21816Y203211D01*
X21226Y202960D01*
X20477Y202721D01*
X19575Y202503D01*
X18551Y202317D01*
X14501Y201930D01*
X12895Y201870D01*
X12676Y201770D01*
X11716D01*
X8850Y201002D01*
X6280Y199518D01*
X4182Y197420D01*
X3860Y196862D01*
X2590Y197203D01*
Y209197D01*
X3860Y209538D01*
X4182Y208980D01*
X6280Y206882D01*
X8850Y205398D01*
X11716Y204630D01*
X14684D01*
X17550Y205398D01*
X20120Y206882D01*
X22218Y208980D01*
X23702Y211550D01*
X23847Y212093D01*
X25117Y211926D01*
D02*
G37*
G36*
X74428Y202565D02*
X74327Y202611D01*
X74220Y202634D01*
X74106Y202637D01*
X73986Y202617D01*
X73860Y202575D01*
X73728Y202512D01*
X73589Y202428D01*
X73444Y202321D01*
X73292Y202193D01*
X73135Y202043D01*
X71720Y203457D01*
X71950Y203691D01*
X72625Y204483D01*
X72734Y204645D01*
X72818Y204792D01*
X72878Y204924D01*
X72914Y205042D01*
X72925Y205146D01*
X74428Y202565D01*
D02*
G37*
G36*
X97472Y204480D02*
X97509Y204208D01*
X97570Y203949D01*
X97655Y203702D01*
X97765Y203468D01*
X97899Y203246D01*
X98058Y203037D01*
X98241Y202840D01*
X98448Y202657D01*
X98680Y202485D01*
X94549Y201729D01*
X94722Y201988D01*
X95013Y202510D01*
X95132Y202773D01*
X95232Y203037D01*
X95314Y203302D01*
X95378Y203568D01*
X95424Y203836D01*
X95451Y204104D01*
X95460Y204375D01*
X97460Y204764D01*
X97472Y204480D01*
D02*
G37*
G36*
X43861Y204641D02*
X44087Y204454D01*
X44319Y204289D01*
X44558Y204146D01*
X44803Y204025D01*
X45055Y203926D01*
X45313Y203849D01*
X45578Y203794D01*
X45850Y203761D01*
X46128Y203750D01*
Y201750D01*
X45850Y201739D01*
X45578Y201706D01*
X45313Y201651D01*
X45055Y201574D01*
X44803Y201475D01*
X44558Y201354D01*
X44319Y201211D01*
X44087Y201046D01*
X43861Y200859D01*
X43642Y200650D01*
Y204850D01*
X43861Y204641D01*
D02*
G37*
G36*
X123674Y194629D02*
X123681Y194298D01*
X123731Y193731D01*
X123776Y193494D01*
X123833Y193288D01*
X123903Y193113D01*
X123986Y192969D01*
X124081Y192856D01*
X124189Y192775D01*
X124309Y192724D01*
X121769Y193431D01*
X121890Y193418D01*
X121998Y193450D01*
X122093Y193528D01*
X122176Y193651D01*
X122246Y193819D01*
X122303Y194032D01*
X122347Y194290D01*
X122379Y194593D01*
X122404Y195336D01*
X123674Y194629D01*
D02*
G37*
G36*
X24956Y201342D02*
X24553Y200853D01*
X24200Y200241D01*
X23898Y199508D01*
X23646Y198652D01*
X23444Y197674D01*
X23293Y196574D01*
X23191Y195352D01*
X23140Y192542D01*
X23190Y190954D01*
X12946Y200497D01*
X14591Y200558D01*
X18739Y200954D01*
X19859Y201157D01*
X20848Y201396D01*
X21706Y201670D01*
X22432Y201980D01*
X23028Y202325D01*
X23491Y202706D01*
X24956Y201342D01*
D02*
G37*
G36*
X107809Y189554D02*
X107586Y189734D01*
X107341Y189851D01*
X107075Y189902D01*
X106787Y189890D01*
X106478Y189814D01*
X106147Y189674D01*
X105794Y189470D01*
X105419Y189201D01*
X105023Y188869D01*
X104605Y188472D01*
X102484Y190593D01*
X102881Y191011D01*
X103213Y191407D01*
X103482Y191782D01*
X103686Y192135D01*
X103826Y192466D01*
X103902Y192775D01*
X103914Y193063D01*
X103862Y193330D01*
X103746Y193574D01*
X103566Y193797D01*
X107809Y189554D01*
D02*
G37*
G36*
X158504Y182984D02*
X157229Y184080D01*
X152907Y187309D01*
X152020Y187827D01*
X151212Y188231D01*
X150482Y188519D01*
X149829Y188692D01*
X149254Y188750D01*
X149103Y190750D01*
X149750Y190812D01*
X150438Y190998D01*
X151169Y191308D01*
X151941Y191741D01*
X152755Y192299D01*
X153611Y192980D01*
X154509Y193785D01*
X156430Y195768D01*
X157454Y196945D01*
X158504Y182984D01*
D02*
G37*
G36*
X116349Y181015D02*
X116124Y181194D01*
X115879Y181309D01*
X115612Y181360D01*
X115324Y181348D01*
X115014Y181271D01*
X114683Y181131D01*
X114331Y180927D01*
X113957Y180660D01*
X113619Y180376D01*
X113331Y180034D01*
X113056Y179655D01*
X112846Y179298D01*
X112700Y178963D01*
X112619Y178652D01*
X112603Y178363D01*
X112651Y178096D01*
X112764Y177853D01*
X112942Y177632D01*
X108712Y181855D01*
X108935Y181677D01*
X109180Y181562D01*
X109448Y181513D01*
X109738Y181529D01*
X110051Y181609D01*
X110386Y181754D01*
X110744Y181964D01*
X111125Y182239D01*
X111528Y182579D01*
X111531Y182582D01*
X112536Y183724D01*
X112692Y183949D01*
X112800Y184139D01*
X112858Y184292D01*
X112868Y184410D01*
X112829Y184491D01*
X116349Y181015D01*
D02*
G37*
G36*
X51584Y180295D02*
X51542Y180306D01*
X51442Y180317D01*
X51065Y180334D01*
X48526Y180356D01*
Y182356D01*
X51584Y182417D01*
Y180295D01*
D02*
G37*
G36*
X4182Y183580D02*
X6280Y181482D01*
X8850Y179998D01*
X11716Y179230D01*
X14684D01*
X17550Y179998D01*
X19963Y181391D01*
X20417Y181176D01*
X21000Y180576D01*
X20622Y179664D01*
Y177460D01*
X21396Y175592D01*
X25264Y179460D01*
X27060Y177664D01*
X23192Y173796D01*
X25060Y173022D01*
X27264D01*
X28661Y173601D01*
X29931Y172836D01*
Y166500D01*
X30126Y165517D01*
X30683Y164683D01*
X31517Y164126D01*
X32500Y163931D01*
X44500D01*
X45483Y164126D01*
X46317Y164683D01*
X46874Y165517D01*
X47069Y166500D01*
Y174000D01*
X46874Y174983D01*
X46317Y175817D01*
X45483Y176374D01*
X44500Y176569D01*
X32708D01*
X32158Y177056D01*
X31851Y177494D01*
X32037Y178624D01*
X32865Y179066D01*
X33199Y179208D01*
X34036Y179042D01*
X48372D01*
X48514Y178981D01*
X51028Y178960D01*
X51047Y178959D01*
X55426Y174580D01*
Y157971D01*
X55319Y157877D01*
X54156Y157409D01*
X53305Y157977D01*
X51875Y158262D01*
X32625D01*
X31195Y157977D01*
X31059Y157887D01*
X36898Y152048D01*
X36000Y151150D01*
X36898Y150252D01*
X31059Y144413D01*
X31195Y144323D01*
X32625Y144038D01*
X42407D01*
X42934Y142768D01*
X42553Y142388D01*
X41710Y140352D01*
Y138148D01*
X42553Y136112D01*
X43328Y135337D01*
X42802Y134067D01*
X32625D01*
X31690Y133881D01*
X31090Y133480D01*
X30864Y133386D01*
X30844Y133338D01*
X30798Y133315D01*
X30702Y133205D01*
X30647Y133164D01*
X30486Y133080D01*
X30217Y132981D01*
X29846Y132882D01*
X29411Y132800D01*
X27429Y132635D01*
X26631Y132625D01*
X26525Y132579D01*
X24984Y132272D01*
X23572Y131328D01*
X20848Y128605D01*
X20805Y128589D01*
X20197Y128033D01*
X19591Y127570D01*
X18939Y127156D01*
X18238Y126792D01*
X17487Y126477D01*
X16682Y126212D01*
X15824Y125997D01*
X14909Y125835D01*
X13938Y125726D01*
X12874Y125669D01*
X12665Y125570D01*
X11716D01*
X8850Y124802D01*
X6280Y123318D01*
X4182Y121220D01*
X3860Y120662D01*
X2590Y121003D01*
Y132997D01*
X3860Y133338D01*
X4182Y132780D01*
X6280Y130682D01*
X8850Y129198D01*
X11716Y128430D01*
X14684D01*
X17550Y129198D01*
X20120Y130682D01*
X22218Y132780D01*
X23702Y135350D01*
X24470Y138216D01*
Y141184D01*
X23702Y144050D01*
X22218Y146620D01*
X20120Y148718D01*
X17550Y150202D01*
X14684Y150970D01*
X11716D01*
X8850Y150202D01*
X6280Y148718D01*
X4182Y146620D01*
X3860Y146062D01*
X2590Y146403D01*
Y158397D01*
X3860Y158738D01*
X4182Y158180D01*
X6280Y156082D01*
X8850Y154598D01*
X11716Y153830D01*
X14684D01*
X17550Y154598D01*
X20120Y156082D01*
X22218Y158180D01*
X23702Y160750D01*
X24470Y163616D01*
Y166584D01*
X23702Y169450D01*
X22218Y172020D01*
X20120Y174118D01*
X17550Y175602D01*
X14684Y176370D01*
X11716D01*
X8850Y175602D01*
X6280Y174118D01*
X4182Y172020D01*
X3860Y171462D01*
X2590Y171803D01*
Y183797D01*
X3860Y184138D01*
X4182Y183580D01*
D02*
G37*
G36*
X50870Y146649D02*
X50530Y146528D01*
X50230Y146327D01*
X49970Y146045D01*
X49750Y145682D01*
X49570Y145239D01*
X49430Y144715D01*
X49330Y144110D01*
X49270Y143425D01*
X49261Y143079D01*
X49350Y141392D01*
X45150D01*
X45169Y141429D01*
X45186Y141500D01*
X45201Y141604D01*
X45225Y141915D01*
X45246Y142814D01*
X45230Y143425D01*
X45170Y144110D01*
X45070Y144715D01*
X44930Y145239D01*
X44750Y145682D01*
X44530Y146045D01*
X44270Y146327D01*
X43970Y146528D01*
X43630Y146649D01*
X43250Y146690D01*
X51250D01*
X50870Y146649D01*
D02*
G37*
G36*
X147254Y144196D02*
X148185D01*
X148008Y143878D01*
X147849Y143483D01*
X147708Y143013D01*
X147587Y142466D01*
X147484Y141843D01*
X147426Y141274D01*
X147453Y140913D01*
X147567Y140246D01*
X147707Y139670D01*
X147872Y139184D01*
X148062Y138789D01*
X148278Y138483D01*
X148519Y138269D01*
X147256D01*
X147250Y137585D01*
X141250Y137590D01*
X141244Y138269D01*
X139981D01*
X140222Y138483D01*
X140438Y138789D01*
X140628Y139184D01*
X140793Y139670D01*
X140933Y140246D01*
X141047Y140913D01*
X141075Y141150D01*
X141027Y141877D01*
X140929Y142499D01*
X140813Y143041D01*
X140680Y143505D01*
X140528Y143890D01*
X140359Y144196D01*
X141247D01*
X141250Y144484D01*
X147250D01*
X147254Y144196D01*
D02*
G37*
G36*
X163834Y129781D02*
X162546Y129913D01*
X161335Y129973D01*
X160201Y129959D01*
X159143Y129873D01*
X158161Y129714D01*
X157256Y129481D01*
X156427Y129176D01*
X155675Y128798D01*
X154999Y128346D01*
X154400Y127822D01*
X151911Y130989D01*
X152386Y131530D01*
X152828Y132168D01*
X153237Y132903D01*
X153611Y133735D01*
X153953Y134664D01*
X154261Y135691D01*
X154776Y138035D01*
X154983Y139353D01*
X155157Y140767D01*
X163834Y129781D01*
D02*
G37*
G36*
X31836Y124086D02*
X31644Y124307D01*
X31380Y124505D01*
X31042Y124680D01*
X30633Y124831D01*
X30150Y124959D01*
X29596Y125064D01*
X28968Y125145D01*
X27495Y125238D01*
X26650Y125250D01*
Y131250D01*
X27495Y131262D01*
X29596Y131436D01*
X30150Y131541D01*
X30633Y131669D01*
X31042Y131820D01*
X31380Y131995D01*
X31644Y132193D01*
X31836Y132414D01*
Y124086D01*
D02*
G37*
G36*
X151562Y124984D02*
X150700Y124094D01*
X149360Y122529D01*
X148882Y121856D01*
X148532Y121254D01*
X148310Y120724D01*
X148216Y120267D01*
X148251Y119881D01*
X148413Y119568D01*
X148703Y119327D01*
X141577Y123453D01*
X141952Y123297D01*
X142370Y123239D01*
X142830Y123279D01*
X143332Y123418D01*
X143877Y123655D01*
X144464Y123990D01*
X145093Y124423D01*
X145764Y124955D01*
X146478Y125584D01*
X147234Y126312D01*
X151562Y124984D01*
D02*
G37*
G36*
X55426Y123940D02*
Y109661D01*
X54156Y109535D01*
X54131Y109660D01*
X53602Y110452D01*
X52810Y110981D01*
X51875Y111167D01*
X47414D01*
X47395Y111178D01*
X47082Y111211D01*
X46972Y111249D01*
X46875Y111315D01*
X46754Y111447D01*
X46607Y111688D01*
X46456Y112060D01*
X46320Y112566D01*
X46215Y113202D01*
X46148Y113963D01*
X46139Y114309D01*
X46520Y115229D01*
Y116927D01*
X45870Y118497D01*
X44669Y119698D01*
X43099Y120348D01*
X41401D01*
X39831Y119698D01*
X38630Y118497D01*
X37980Y116927D01*
Y115229D01*
X38361Y114309D01*
X38352Y113963D01*
X38285Y113202D01*
X38180Y112566D01*
X38044Y112060D01*
X37893Y111688D01*
X37747Y111447D01*
X37625Y111315D01*
X37527Y111249D01*
X37418Y111211D01*
X37105Y111178D01*
X37086Y111167D01*
X32625D01*
X31690Y110981D01*
X30898Y110452D01*
X30369Y109660D01*
X30183Y108725D01*
Y101975D01*
X30369Y101040D01*
X30898Y100248D01*
X31690Y99719D01*
X32625Y99533D01*
X51875D01*
X52810Y99719D01*
X53602Y100248D01*
X54131Y101040D01*
X54156Y101165D01*
X55426Y101039D01*
Y84140D01*
X50205Y78919D01*
X50093Y78878D01*
X49698Y78509D01*
X49329Y78214D01*
X48951Y77958D01*
X48563Y77737D01*
X48163Y77551D01*
X47748Y77400D01*
X47318Y77281D01*
X46869Y77195D01*
X46399Y77143D01*
X45859Y77124D01*
X45751Y77074D01*
X28520D01*
X26355Y79239D01*
X26324Y79336D01*
X25930Y79798D01*
X25625Y80281D01*
X25344Y80882D01*
X25096Y81603D01*
X24886Y82444D01*
X24721Y83403D01*
X24606Y84463D01*
X24524Y86987D01*
X24564Y88408D01*
X24470Y88654D01*
Y90384D01*
X23702Y93250D01*
X22218Y95820D01*
X20120Y97918D01*
X17550Y99402D01*
X14684Y100170D01*
X11716D01*
X8850Y99402D01*
X6280Y97918D01*
X4182Y95820D01*
X3860Y95262D01*
X2590Y95603D01*
Y107597D01*
X3860Y107938D01*
X4182Y107380D01*
X6280Y105282D01*
X8850Y103798D01*
X11716Y103030D01*
X14684D01*
X17550Y103798D01*
X20120Y105282D01*
X22218Y107380D01*
X23702Y109950D01*
X24470Y112816D01*
Y114536D01*
X24564Y114774D01*
X24549Y115813D01*
X24597Y116757D01*
X24707Y117647D01*
X24876Y118484D01*
X25103Y119269D01*
X25388Y120005D01*
X25730Y120695D01*
X26129Y121342D01*
X26587Y121948D01*
X27148Y122564D01*
X27164Y122607D01*
X28363Y123806D01*
X28836Y123776D01*
X29379Y123706D01*
X29846Y123617D01*
X30217Y123519D01*
X30486Y123420D01*
X30647Y123336D01*
X30702Y123295D01*
X30798Y123185D01*
X30844Y123162D01*
X30864Y123114D01*
X31090Y123020D01*
X31690Y122619D01*
X32625Y122433D01*
X51875D01*
X52810Y122619D01*
X53602Y123148D01*
X54131Y123940D01*
X54156Y124065D01*
X55426Y123940D01*
D02*
G37*
G36*
X111662Y138550D02*
X111963Y137700D01*
X112465Y136950D01*
X113167Y136300D01*
X114070Y135750D01*
X114924Y135401D01*
X115410Y135573D01*
X116408Y136045D01*
X117312Y136603D01*
X118122Y137247D01*
X118837Y137977D01*
X119458Y138792D01*
Y134570D01*
X119687Y134550D01*
X121593Y134500D01*
Y126144D01*
X128956D01*
X128632Y125703D01*
X128342Y125135D01*
X128086Y124440D01*
X127864Y123616D01*
X127677Y122666D01*
X127523Y121588D01*
X127377Y119781D01*
X129001D01*
X128668Y119743D01*
X128370Y119630D01*
X128108Y119441D01*
X127880Y119176D01*
X127688Y118836D01*
X127530Y118420D01*
X127408Y117928D01*
X127320Y117361D01*
X127268Y116718D01*
X127250Y116000D01*
X123250D01*
X123232Y116718D01*
X123180Y117361D01*
X123092Y117928D01*
X122970Y118420D01*
X122812Y118836D01*
X122620Y119176D01*
X122392Y119441D01*
X122130Y119630D01*
X121832Y119743D01*
X121500Y119781D01*
X123093D01*
X122977Y121588D01*
X122823Y122666D01*
X122636Y123616D01*
X122414Y124440D01*
X122158Y125135D01*
X121868Y125703D01*
X121593Y126078D01*
Y124500D01*
X119687Y124450D01*
X119458Y124430D01*
Y120208D01*
X118837Y121024D01*
X118122Y121753D01*
X117312Y122397D01*
X116408Y122955D01*
X115410Y123427D01*
X114924Y123599D01*
X114070Y123250D01*
X113167Y122700D01*
X112465Y122050D01*
X111963Y121300D01*
X111662Y120450D01*
X111562Y119500D01*
Y124355D01*
X110471Y124457D01*
X109001Y124500D01*
Y134500D01*
X110471Y134543D01*
X111562Y134645D01*
Y139500D01*
X111662Y138550D01*
D02*
G37*
G36*
X26133Y123490D02*
X25528Y122828D01*
X24993Y122119D01*
X24526Y121362D01*
X24128Y120559D01*
X23800Y119709D01*
X23540Y118812D01*
X23349Y117867D01*
X23227Y116876D01*
X23174Y115838D01*
X23190Y114754D01*
X12946Y124297D01*
X14052Y124355D01*
X15106Y124474D01*
X16111Y124652D01*
X17065Y124890D01*
X17969Y125188D01*
X18822Y125546D01*
X19625Y125964D01*
X20378Y126441D01*
X21081Y126978D01*
X21733Y127576D01*
X26133Y123490D01*
D02*
G37*
G36*
X44775Y113885D02*
X44850Y113030D01*
X44975Y112275D01*
X45150Y111621D01*
X45375Y111068D01*
X45650Y110615D01*
X45975Y110263D01*
X46350Y110012D01*
X46775Y109861D01*
X47250Y109810D01*
X37250D01*
X37725Y109861D01*
X38150Y110012D01*
X38525Y110263D01*
X38850Y110615D01*
X39125Y111068D01*
X39350Y111621D01*
X39525Y112275D01*
X39650Y113030D01*
X39725Y113885D01*
X39750Y114841D01*
X44750D01*
X44775Y113885D01*
D02*
G37*
G36*
X119734Y107949D02*
X119793Y107062D01*
X119845Y106701D01*
X119912Y106396D01*
X119994Y106147D01*
X120090Y105953D01*
X120202Y105814D01*
X120328Y105731D01*
X120469Y105703D01*
X114984D01*
X115125Y105731D01*
X115251Y105814D01*
X115362Y105953D01*
X115459Y106147D01*
X115541Y106396D01*
X115608Y106701D01*
X115660Y107062D01*
X115697Y107478D01*
X115726Y108476D01*
X119726D01*
X119734Y107949D01*
D02*
G37*
G36*
X106179Y104831D02*
X106250Y104814D01*
X106354Y104799D01*
X106665Y104775D01*
X107694Y104751D01*
X108036Y104750D01*
Y100750D01*
X106142Y100650D01*
Y104850D01*
X106179Y104831D01*
D02*
G37*
G36*
X101858Y100650D02*
X101821Y100669D01*
X101750Y100686D01*
X101646Y100701D01*
X101335Y100725D01*
X100306Y100749D01*
X99964Y100750D01*
Y104750D01*
X101858Y104850D01*
Y100650D01*
D02*
G37*
G36*
X113469Y99822D02*
X113175Y99999D01*
X112847Y100156D01*
X112485Y100295D01*
X112090Y100416D01*
X111662Y100518D01*
X111200Y100602D01*
X110175Y100713D01*
X109613Y100741D01*
X109016Y100750D01*
Y104750D01*
X109613Y104759D01*
X111200Y104898D01*
X111662Y104982D01*
X112090Y105084D01*
X112485Y105205D01*
X112847Y105344D01*
X113175Y105501D01*
X113469Y105678D01*
Y99822D01*
D02*
G37*
G36*
X142840Y100292D02*
X142687Y100402D01*
X142505Y100456D01*
X142295Y100452D01*
X142055Y100393D01*
X141787Y100277D01*
X141490Y100104D01*
X141163Y99875D01*
X140808Y99589D01*
X140594Y99389D01*
X140498Y99262D01*
X140365Y99039D01*
X140262Y98811D01*
X140191Y98578D01*
X140150Y98341D01*
X140141Y98099D01*
X140163Y97852D01*
X140216Y97600D01*
X140300Y97343D01*
X137500Y98621D01*
X134700Y97343D01*
X134784Y97600D01*
X134837Y97852D01*
X134859Y98099D01*
X134850Y98341D01*
X134809Y98578D01*
X134738Y98811D01*
X134635Y99039D01*
X134502Y99262D01*
X134403Y99393D01*
X133837Y99875D01*
X133510Y100104D01*
X133213Y100277D01*
X132945Y100393D01*
X132705Y100452D01*
X132495Y100456D01*
X132313Y100402D01*
X132160Y100292D01*
X134958Y103090D01*
X134848Y102937D01*
X134794Y102755D01*
X134797Y102545D01*
X134857Y102305D01*
X134973Y102037D01*
X135146Y101740D01*
X135375Y101413D01*
X135661Y101058D01*
X136072Y100617D01*
X136512Y100237D01*
X136791Y100024D01*
X137358Y99646D01*
X137524Y99551D01*
X137572Y99576D01*
X138051Y99866D01*
X138273Y100022D01*
X138684Y100358D01*
X138760Y100430D01*
X138996Y100674D01*
X139625Y101413D01*
X139854Y101740D01*
X140027Y102037D01*
X140143Y102305D01*
X140203Y102545D01*
X140206Y102755D01*
X140152Y102937D01*
X140042Y103090D01*
X142840Y100292D01*
D02*
G37*
G36*
X113231Y86981D02*
X113154Y87080D01*
X113061Y87168D01*
X112952Y87246D01*
X112827Y87313D01*
X112687Y87370D01*
X112530Y87417D01*
X112358Y87453D01*
X112170Y87479D01*
X111966Y87495D01*
X111746Y87500D01*
Y88770D01*
X112002Y88776D01*
X112230Y88795D01*
X112430Y88827D01*
X112602Y88872D01*
X112746Y88929D01*
X112862Y88999D01*
X112950Y89081D01*
X113010Y89176D01*
X113042Y89284D01*
X113047Y89405D01*
X113231Y86981D01*
D02*
G37*
G36*
X91708Y86620D02*
X91794Y86280D01*
X91971Y85980D01*
X92238Y85720D01*
X92596Y85500D01*
X93044Y85320D01*
X93583Y85180D01*
X94213Y85080D01*
X94933Y85020D01*
X95743Y85000D01*
Y81000D01*
X90976Y81101D01*
X91713Y87000D01*
X91708Y86620D01*
D02*
G37*
G36*
X134471Y84354D02*
X134267Y84083D01*
X134087Y83738D01*
X133932Y83320D01*
X133800Y82828D01*
X133692Y82262D01*
X133608Y81623D01*
X133512Y80122D01*
X133500Y79261D01*
X128500D01*
X128488Y80122D01*
X128308Y82262D01*
X128200Y82828D01*
X128068Y83320D01*
X127913Y83738D01*
X127733Y84083D01*
X127529Y84354D01*
X127301Y84551D01*
X134699D01*
X134471Y84354D01*
D02*
G37*
G36*
X147471Y84354D02*
X147267Y84083D01*
X147087Y83738D01*
X146932Y83320D01*
X146800Y82828D01*
X146692Y82262D01*
X146608Y81623D01*
X146606Y81592D01*
X146659Y81070D01*
X146783Y80463D01*
X146942Y79913D01*
X147137Y79420D01*
X147367Y78984D01*
X147632Y78605D01*
X147933Y78284D01*
X148269Y78019D01*
X139731D01*
X140067Y78284D01*
X140368Y78605D01*
X140633Y78984D01*
X140863Y79420D01*
X141058Y79913D01*
X141217Y80463D01*
X141341Y81070D01*
X141382Y81381D01*
X141308Y82262D01*
X141200Y82828D01*
X141068Y83320D01*
X140913Y83738D01*
X140733Y84083D01*
X140529Y84354D01*
X140301Y84551D01*
X147699D01*
X147471Y84354D01*
D02*
G37*
G36*
X111389Y80671D02*
X111438Y80651D01*
X111520Y80633D01*
X111636Y80618D01*
X111965Y80595D01*
X113019Y80577D01*
Y77577D01*
X112695Y77575D01*
X111348Y77492D01*
X111330Y77472D01*
X111373Y80693D01*
X111389Y80671D01*
D02*
G37*
G36*
X23149Y86984D02*
X23233Y84366D01*
X23359Y83212D01*
X23540Y82160D01*
X23776Y81211D01*
X24069Y80365D01*
X24416Y79622D01*
X24819Y78981D01*
X25278Y78444D01*
X23080Y76398D01*
X22564Y76838D01*
X21937Y77236D01*
X21200Y77592D01*
X20352Y77906D01*
X19394Y78178D01*
X18325Y78407D01*
X17146Y78594D01*
X14457Y78842D01*
X12946Y78903D01*
X23190Y88447D01*
X23149Y86984D01*
D02*
G37*
G36*
X115987Y76362D02*
X115952Y76388D01*
X115883Y76412D01*
X115779Y76432D01*
X115642Y76450D01*
X115265Y76478D01*
X114102Y76500D01*
Y79500D01*
X114444Y79501D01*
X115883Y79588D01*
X115952Y79612D01*
X115987Y79638D01*
Y76362D01*
D02*
G37*
G36*
X106971Y74018D02*
X107004Y73520D01*
X107016Y73467D01*
X107030Y73431D01*
X107046Y73410D01*
X107065Y73404D01*
X105623Y73220D01*
X105637Y73231D01*
X105650Y73261D01*
X105662Y73309D01*
X105672Y73376D01*
X105688Y73565D01*
X105699Y73986D01*
X105700Y74164D01*
X106970D01*
X106971Y74018D01*
D02*
G37*
G36*
X101520Y76866D02*
X101578Y76330D01*
X101676Y75826D01*
X101813Y75354D01*
X101989Y74915D01*
X102204Y74509D01*
X102458Y74134D01*
X102751Y73792D01*
X103083Y73482D01*
X103455Y73205D01*
X101498Y73130D01*
X101500Y72993D01*
X97888D01*
X96775Y72950D01*
X96913Y73190D01*
X97036Y73477D01*
X97145Y73809D01*
X97239Y74188D01*
X97319Y74614D01*
X97401Y75319D01*
X97336Y76404D01*
X97277Y76707D01*
X97209Y76934D01*
X97132Y77086D01*
X97045Y77161D01*
X97494D01*
X97500Y77435D01*
X101500D01*
X101520Y76866D01*
D02*
G37*
G36*
X53151Y75750D02*
X52748Y75317D01*
X52388Y74866D01*
X52069Y74398D01*
X51794Y73912D01*
X51560Y73409D01*
X51369Y72888D01*
X51221Y72350D01*
X51115Y71793D01*
X51051Y71220D01*
X51030Y70629D01*
X48030Y69750D01*
X48000Y70320D01*
X47910Y70830D01*
X47760Y71280D01*
X47550Y71670D01*
X47280Y72000D01*
X46950Y72270D01*
X46560Y72480D01*
X46110Y72630D01*
X45600Y72720D01*
X45030Y72750D01*
X45909Y75750D01*
X46500Y75771D01*
X47073Y75835D01*
X47630Y75941D01*
X48168Y76089D01*
X48689Y76280D01*
X49192Y76514D01*
X49678Y76789D01*
X50146Y77108D01*
X50597Y77468D01*
X51030Y77871D01*
X53151Y75750D01*
D02*
G37*
G36*
X86508Y71481D02*
X86406Y71331D01*
X86316Y71159D01*
X86238Y70966D01*
X86173Y70751D01*
X86119Y70515D01*
X86077Y70257D01*
X86066Y70154D01*
X86083Y69959D01*
X86158Y69504D01*
X86263Y69110D01*
X86398Y68777D01*
X86563Y68504D01*
X86758Y68292D01*
X86983Y68140D01*
X87238Y68049D01*
X87523Y68019D01*
X81523D01*
X81808Y68049D01*
X82063Y68140D01*
X82288Y68292D01*
X82483Y68504D01*
X82648Y68777D01*
X82783Y69110D01*
X82888Y69504D01*
X82963Y69959D01*
X82978Y70137D01*
X82969Y70254D01*
X82927Y70512D01*
X82873Y70748D01*
X82807Y70963D01*
X82728Y71156D01*
X82638Y71327D01*
X82536Y71477D01*
X82422Y71606D01*
X86622Y71610D01*
X86508Y71481D01*
D02*
G37*
G36*
X116081Y74380D02*
X117176Y73927D01*
Y56388D01*
X117176Y56388D01*
X117391Y55307D01*
X118003Y54391D01*
X118713Y53681D01*
X118056Y52542D01*
X115786Y53150D01*
X112814D01*
X109942Y52381D01*
X107368Y50894D01*
X106424Y49950D01*
X105347Y50670D01*
X105870Y51932D01*
Y52391D01*
X105970Y52595D01*
X105987Y52855D01*
X106013Y53056D01*
X106051Y53242D01*
X106099Y53414D01*
X106156Y53573D01*
X106224Y53722D01*
X106302Y53862D01*
X106392Y53996D01*
X106493Y54124D01*
X106645Y54288D01*
X106694Y54421D01*
X107789Y55516D01*
X107923Y55566D01*
X108684Y56274D01*
X108966Y56501D01*
X109207Y56670D01*
X109248Y56694D01*
X109690D01*
X109815Y56642D01*
X109923Y56687D01*
X110036Y56660D01*
X110090Y56694D01*
X110938D01*
X111652Y56836D01*
X112259Y57241D01*
X112664Y57847D01*
X112806Y58562D01*
Y62937D01*
X112664Y63653D01*
X113040Y64514D01*
X108202Y69352D01*
X109998Y71148D01*
X114627Y66519D01*
X114646Y66547D01*
X114905Y67850D01*
Y72650D01*
X114668Y73844D01*
X114686Y73979D01*
X114850Y74096D01*
X116064Y74398D01*
X116081Y74380D01*
D02*
G37*
G36*
X103455Y67295D02*
X103083Y67018D01*
X102751Y66708D01*
X102458Y66366D01*
X102204Y65992D01*
X101989Y65585D01*
X101813Y65146D01*
X101676Y64674D01*
X101578Y64170D01*
X101520Y63634D01*
X101500Y63065D01*
X97500D01*
X97497Y63345D01*
X97155D01*
X97221Y63412D01*
X97279Y63556D01*
X97331Y63777D01*
X97376Y64076D01*
X97429Y64714D01*
X97384Y65415D01*
X97319Y65886D01*
X97145Y66691D01*
X97036Y67023D01*
X96913Y67310D01*
X96775Y67550D01*
X103455Y67295D01*
D02*
G37*
G36*
X139010Y67299D02*
X139044Y67120D01*
X139102Y66936D01*
X139183Y66744D01*
X139288Y66545D01*
X139417Y66340D01*
X139570Y66128D01*
X139746Y65909D01*
X139930Y65711D01*
X139992Y65651D01*
X142009Y63947D01*
X142568Y63577D01*
X143069Y63305D01*
X143514Y63131D01*
X143903Y63057D01*
X144234Y63081D01*
X144509Y63203D01*
X139547Y59741D01*
X139747Y59938D01*
X139855Y60186D01*
X139871Y60484D01*
X139794Y60832D01*
X139625Y61231D01*
X139363Y61681D01*
X139010Y62181D01*
X138564Y62731D01*
X137720Y63635D01*
X137372Y63930D01*
X137160Y64083D01*
X136955Y64212D01*
X136756Y64317D01*
X136565Y64398D01*
X136380Y64456D01*
X136201Y64490D01*
X136030Y64500D01*
X139000Y67470D01*
X139010Y67299D01*
D02*
G37*
G36*
X109815Y58017D02*
X109662Y58127D01*
X109481Y58181D01*
X109270Y58178D01*
X109031Y58118D01*
X108762Y58002D01*
X108465Y57829D01*
X108139Y57600D01*
X107783Y57314D01*
X106987Y56572D01*
X105573Y57987D01*
X105971Y58400D01*
X106600Y59139D01*
X106829Y59465D01*
X107002Y59762D01*
X107118Y60030D01*
X107178Y60270D01*
X107181Y60480D01*
X107127Y60662D01*
X107017Y60815D01*
X109815Y58017D01*
D02*
G37*
G36*
X105636Y55222D02*
X105448Y55019D01*
X105279Y54805D01*
X105128Y54579D01*
X104996Y54342D01*
X104883Y54094D01*
X104789Y53834D01*
X104713Y53563D01*
X104656Y53281D01*
X104618Y52988D01*
X104598Y52683D01*
X101758Y55777D01*
X102058Y55772D01*
X102347Y55788D01*
X102626Y55826D01*
X102894Y55886D01*
X103152Y55968D01*
X103400Y56071D01*
X103637Y56196D01*
X103864Y56342D01*
X104080Y56510D01*
X104286Y56700D01*
X105636Y55222D01*
D02*
G37*
G36*
X77031Y55086D02*
X77219Y55016D01*
X77477Y54953D01*
X77804Y54899D01*
X78668Y54816D01*
X80486Y54754D01*
X81232Y54750D01*
Y52750D01*
X80486Y52746D01*
X77477Y52547D01*
X77219Y52484D01*
X77031Y52414D01*
X76913Y52335D01*
Y52696D01*
X76560Y52689D01*
Y54811D01*
X76602Y54800D01*
X76702Y54789D01*
X76913Y54780D01*
Y55165D01*
X77031Y55086D01*
D02*
G37*
G36*
X132287Y61278D02*
X132205Y61005D01*
X132208Y60688D01*
X132296Y60328D01*
X132468Y59926D01*
X132726Y59480D01*
X133068Y58991D01*
X133496Y58459D01*
X133937Y57985D01*
X134149Y57810D01*
X134363Y57664D01*
X134570Y57544D01*
X134770Y57450D01*
X134965Y57382D01*
X135153Y57339D01*
X135334Y57323D01*
X135510Y57332D01*
X132907Y54035D01*
X132880Y54193D01*
X132830Y54359D01*
X132758Y54534D01*
X132665Y54717D01*
X132549Y54908D01*
X132411Y55108D01*
X132069Y55532D01*
X131969Y55642D01*
X131866Y55742D01*
X130759Y56681D01*
X130270Y57024D01*
X129824Y57282D01*
X129422Y57454D01*
X129062Y57542D01*
X128745Y57545D01*
X128472Y57463D01*
X128241Y57297D01*
X132453Y61509D01*
X132287Y61278D01*
D02*
G37*
G36*
X98894Y51486D02*
X98764Y51726D01*
X98617Y51941D01*
X98451Y52130D01*
X98268Y52295D01*
X98068Y52434D01*
X97850Y52548D01*
X97614Y52636D01*
X97360Y52699D01*
X97089Y52737D01*
X96800Y52750D01*
X97536Y54750D01*
X97798Y54757D01*
X98062Y54778D01*
X98596Y54864D01*
X98867Y54928D01*
X99414Y55098D01*
X99691Y55205D01*
X100251Y55461D01*
X98894Y51486D01*
D02*
G37*
G36*
X83246Y50166D02*
X82748Y49878D01*
X80882Y48012D01*
X79563Y45728D01*
X78880Y43179D01*
Y40541D01*
X79563Y37992D01*
X80882Y35708D01*
X82748Y33842D01*
X83177Y33594D01*
X82836Y32324D01*
X69564D01*
X69223Y33594D01*
X69652Y33842D01*
X71518Y35708D01*
X72837Y37992D01*
X73520Y40541D01*
Y41606D01*
X73625Y41848D01*
X73644Y43064D01*
X73808Y45226D01*
X73946Y46132D01*
X74121Y46954D01*
X74330Y47676D01*
X74567Y48296D01*
X74826Y48815D01*
X75102Y49236D01*
X75454Y49644D01*
X75487Y49743D01*
X76324Y50580D01*
X76776Y50670D01*
X77463Y51129D01*
X77515Y51127D01*
X77624Y51168D01*
X77685Y51183D01*
X80536Y51371D01*
X81240Y51375D01*
X81383Y51435D01*
X82905D01*
X83246Y50166D01*
D02*
G37*
G36*
X4182Y81980D02*
X6280Y79882D01*
X8850Y78398D01*
X11716Y77630D01*
X12674D01*
X12891Y77530D01*
X14366Y77470D01*
X16975Y77230D01*
X18073Y77055D01*
X19061Y76843D01*
X19925Y76598D01*
X20661Y76326D01*
X21268Y76033D01*
X21746Y75730D01*
X22189Y75352D01*
X22285Y75321D01*
X25353Y72253D01*
X25353Y72253D01*
X26269Y71641D01*
X27350Y71426D01*
X27350Y71426D01*
X30564D01*
X30566Y71420D01*
X30752Y70294D01*
X37148Y63898D01*
X36250Y63000D01*
X37148Y62102D01*
X30844Y55798D01*
X31021Y55680D01*
X32500Y55386D01*
X44500D01*
X45436Y55572D01*
X46706Y54755D01*
Y34726D01*
X46706Y34726D01*
X46921Y33645D01*
X47533Y32729D01*
X52759Y27503D01*
X52759Y27503D01*
X53675Y26891D01*
X54756Y26676D01*
X58614D01*
X58955Y25406D01*
X57348Y24478D01*
X55482Y22612D01*
X54163Y20328D01*
X53480Y17779D01*
Y15141D01*
X54163Y12592D01*
X55482Y10308D01*
X57348Y8442D01*
X59632Y7123D01*
X62181Y6440D01*
X64819D01*
X67368Y7123D01*
X69652Y8442D01*
X71518Y10308D01*
X72837Y12592D01*
X73520Y15141D01*
Y17779D01*
X72837Y20328D01*
X71518Y22612D01*
X69652Y24478D01*
X68046Y25406D01*
X68386Y26676D01*
X84014D01*
X84354Y25406D01*
X82748Y24478D01*
X80882Y22612D01*
X79563Y20328D01*
X78880Y17779D01*
Y15141D01*
X79563Y12592D01*
X80882Y10308D01*
X82748Y8442D01*
X85032Y7123D01*
X87581Y6440D01*
X90219D01*
X92768Y7123D01*
X95052Y8442D01*
X96918Y10308D01*
X98237Y12592D01*
X98920Y15141D01*
Y17779D01*
X98237Y20328D01*
X96918Y22612D01*
X95052Y24478D01*
X93446Y25406D01*
X93786Y26676D01*
X100090D01*
X102358Y24407D01*
X102391Y24309D01*
X102745Y23899D01*
X103020Y23478D01*
X103278Y22960D01*
X103513Y22341D01*
X103717Y21621D01*
X103888Y20802D01*
X104019Y19901D01*
X104167Y17747D01*
X104176Y16537D01*
X104280Y16291D01*
Y15141D01*
X104963Y12592D01*
X106282Y10308D01*
X108148Y8442D01*
X110432Y7123D01*
X112981Y6440D01*
X115619D01*
X118168Y7123D01*
X120452Y8442D01*
X122318Y10308D01*
X123637Y12592D01*
X124320Y15141D01*
Y16278D01*
X124424Y16511D01*
X124487Y18885D01*
X124579Y19885D01*
X124712Y20802D01*
X124883Y21621D01*
X125087Y22341D01*
X125322Y22959D01*
X125580Y23477D01*
X125855Y23899D01*
X126209Y24309D01*
X126242Y24407D01*
X129759Y27925D01*
X129759Y27925D01*
X130371Y28841D01*
X130586Y29922D01*
Y48626D01*
X130586Y48626D01*
X130371Y49707D01*
X129759Y50623D01*
X129759Y50623D01*
X125615Y54767D01*
X126101Y55940D01*
X128021D01*
X128022Y55940D01*
X128026Y55940D01*
X128197D01*
X128241Y55922D01*
X128285Y55940D01*
X129398D01*
X129530Y55864D01*
X129918Y55592D01*
X130942Y54723D01*
X130982Y54684D01*
X131024Y54638D01*
X131309Y54285D01*
X131394Y54161D01*
X131463Y54047D01*
X131509Y53959D01*
X131532Y53901D01*
X131539Y53877D01*
X131553Y53799D01*
X131620Y53693D01*
Y53507D01*
X132270Y51937D01*
X133471Y50736D01*
X135041Y50086D01*
X136739D01*
X138309Y50736D01*
X139510Y51937D01*
X140160Y53507D01*
Y54726D01*
X140197Y55231D01*
X141230Y55940D01*
X144246D01*
X144350Y55420D01*
X144962Y54504D01*
X151840Y47626D01*
X151871Y47530D01*
X152262Y47072D01*
X152566Y46589D01*
X152850Y45987D01*
X153104Y45262D01*
X153322Y44415D01*
X153498Y43448D01*
X153628Y42379D01*
X153746Y39834D01*
X153729Y38400D01*
X153830Y38149D01*
Y36616D01*
X154598Y33750D01*
X156082Y31180D01*
X158180Y29082D01*
X160750Y27598D01*
X163616Y26830D01*
X166584D01*
X169450Y27598D01*
X172020Y29082D01*
X173940Y31002D01*
X175210Y30750D01*
Y20748D01*
X173940Y20222D01*
X172204Y21958D01*
X169566Y23482D01*
X166623Y24270D01*
X163577D01*
X160634Y23482D01*
X157996Y21958D01*
X155842Y19804D01*
X154319Y17166D01*
X153530Y14223D01*
Y11177D01*
X154319Y8234D01*
X155842Y5596D01*
X157578Y3860D01*
X157052Y2590D01*
X148970D01*
X148444Y3860D01*
X149447Y4862D01*
X150290Y6898D01*
Y9102D01*
X149516Y10970D01*
X145648Y7102D01*
X144750Y8000D01*
X143852Y7102D01*
X139984Y10970D01*
X139210Y9102D01*
Y6898D01*
X140053Y4862D01*
X141055Y3860D01*
X140529Y2590D01*
X20748D01*
X20222Y3860D01*
X21958Y5596D01*
X23482Y8234D01*
X24270Y11177D01*
Y14223D01*
X23482Y17166D01*
X21958Y19804D01*
X19804Y21958D01*
X17166Y23482D01*
X14223Y24270D01*
X11177D01*
X8234Y23482D01*
X5596Y21958D01*
X3860Y20222D01*
X2590Y20748D01*
Y31397D01*
X3860Y31738D01*
X4182Y31180D01*
X6280Y29082D01*
X8850Y27598D01*
X11716Y26830D01*
X14684D01*
X17550Y27598D01*
X20120Y29082D01*
X22218Y31180D01*
X23702Y33750D01*
X24470Y36616D01*
Y39584D01*
X23702Y42450D01*
X22218Y45020D01*
X20120Y47118D01*
X17550Y48602D01*
X14684Y49370D01*
X11716D01*
X8850Y48602D01*
X6280Y47118D01*
X4182Y45020D01*
X3860Y44462D01*
X2590Y44803D01*
Y54580D01*
X3860Y55106D01*
X5500Y53465D01*
X8360Y51815D01*
X11549Y50960D01*
X14851D01*
X18040Y51815D01*
X20900Y53465D01*
X21169Y53735D01*
X12302Y62602D01*
X13200Y63500D01*
X12302Y64398D01*
X21169Y73265D01*
X20900Y73534D01*
X18040Y75185D01*
X14851Y76040D01*
X11549D01*
X8360Y75185D01*
X5500Y73534D01*
X3860Y71894D01*
X2590Y72420D01*
Y82197D01*
X3860Y82538D01*
X4182Y81980D01*
D02*
G37*
G36*
X74414Y50542D02*
X74001Y50065D01*
X73632Y49501D01*
X73307Y48850D01*
X73025Y48113D01*
X72787Y47289D01*
X72593Y46378D01*
X72442Y45381D01*
X72270Y43127D01*
X72250Y41870D01*
X63665Y50608D01*
X64913Y50607D01*
X67152Y50744D01*
X68145Y50882D01*
X69052Y51066D01*
X69874Y51297D01*
X70611Y51574D01*
X71263Y51897D01*
X71830Y52267D01*
X72312Y52683D01*
X74414Y50542D01*
D02*
G37*
G36*
X155600Y50058D02*
X156231Y49659D01*
X156970Y49305D01*
X157817Y48996D01*
X158774Y48733D01*
X159839Y48516D01*
X161012Y48343D01*
X163685Y48135D01*
X165184Y48100D01*
X155104Y38384D01*
X155121Y39858D01*
X154998Y42494D01*
X154858Y43654D01*
X154666Y44710D01*
X154421Y45662D01*
X154124Y46509D01*
X153774Y47251D01*
X153372Y47889D01*
X152917Y48422D01*
X155078Y50504D01*
X155600Y50058D01*
D02*
G37*
G36*
X96740Y51377D02*
X96963Y51367D01*
X97098Y51348D01*
X97205Y51322D01*
X97289Y51290D01*
X97356Y51255D01*
X97414Y51215D01*
X97470Y51164D01*
X97528Y51097D01*
X97590Y51008D01*
X97685Y50832D01*
X97837Y50708D01*
X97980Y50362D01*
X99181Y49161D01*
X100751Y48511D01*
X102449D01*
X104019Y49161D01*
X105020Y48366D01*
X103779Y46218D01*
X103010Y43346D01*
Y40374D01*
X103779Y37502D01*
X105266Y34928D01*
X105419Y34775D01*
X113402Y42758D01*
X114300Y41860D01*
X115198Y42758D01*
X123181Y34775D01*
X123334Y34928D01*
X123668Y35505D01*
X124938Y35165D01*
Y31092D01*
X122247Y28402D01*
X122149Y28369D01*
X121739Y28015D01*
X121318Y27740D01*
X120800Y27482D01*
X120181Y27247D01*
X119461Y27043D01*
X118642Y26872D01*
X117741Y26741D01*
X115588Y26593D01*
X114377Y26584D01*
X114311Y26556D01*
X114249Y26584D01*
X111875Y26647D01*
X110875Y26739D01*
X109958Y26872D01*
X109139Y27043D01*
X108419Y27248D01*
X107801Y27482D01*
X107282Y27740D01*
X106861Y28015D01*
X106451Y28369D01*
X106353Y28402D01*
X103257Y31497D01*
X102341Y32109D01*
X101260Y32324D01*
X101260Y32324D01*
X94964D01*
X94623Y33594D01*
X95052Y33842D01*
X96918Y35708D01*
X98237Y37992D01*
X98920Y40541D01*
Y43179D01*
X98237Y45728D01*
X96918Y48012D01*
X95052Y49878D01*
X94554Y50166D01*
X94895Y51435D01*
X96614D01*
X96740Y51377D01*
D02*
G37*
G36*
X125169Y25207D02*
X124754Y24728D01*
X124385Y24162D01*
X124061Y23511D01*
X123781Y22773D01*
X123547Y21950D01*
X123357Y21042D01*
X123213Y20047D01*
X123114Y18966D01*
X123050Y16547D01*
X114388Y25210D01*
X115640Y25219D01*
X117887Y25373D01*
X118882Y25517D01*
X119790Y25707D01*
X120613Y25941D01*
X121351Y26221D01*
X122002Y26545D01*
X122568Y26914D01*
X123047Y27329D01*
X125169Y25207D01*
D02*
G37*
G36*
X106032Y26914D02*
X106598Y26545D01*
X107249Y26221D01*
X107986Y25941D01*
X108810Y25707D01*
X109719Y25517D01*
X110713Y25373D01*
X111794Y25274D01*
X114213Y25210D01*
X105550Y16547D01*
X105541Y17800D01*
X105387Y20047D01*
X105243Y21042D01*
X105053Y21950D01*
X104819Y22773D01*
X104539Y23511D01*
X104215Y24162D01*
X103846Y24728D01*
X103431Y25207D01*
X105553Y27329D01*
X106032Y26914D01*
D02*
G37*
%LPC*%
G36*
X39000Y414609D02*
X33000D01*
X31619Y414335D01*
X31524Y414272D01*
X36000Y409796D01*
X40476Y414272D01*
X40381Y414335D01*
X39000Y414609D01*
D02*
G37*
G36*
X29728Y412476D02*
X29665Y412381D01*
X29391Y411000D01*
Y405000D01*
X29665Y403619D01*
X29728Y403525D01*
X34204Y408000D01*
X29728Y412476D01*
D02*
G37*
G36*
X42272D02*
X37796Y408000D01*
X42272Y403524D01*
X42335Y403619D01*
X42609Y405000D01*
Y411000D01*
X42335Y412381D01*
X42272Y412476D01*
D02*
G37*
G36*
X36000Y406204D02*
X31525Y401728D01*
X31619Y401665D01*
X33000Y401391D01*
X39000D01*
X40381Y401665D01*
X40476Y401728D01*
X36000Y406204D01*
D02*
G37*
G36*
X51556Y387790D02*
X49352D01*
X47484Y387016D01*
X50454Y384046D01*
X53424Y387016D01*
X51556Y387790D01*
D02*
G37*
G36*
X55220Y385220D02*
X52250Y382250D01*
X55220Y379280D01*
X55994Y381148D01*
Y383352D01*
X55220Y385220D01*
D02*
G37*
G36*
X45688D02*
X44914Y383352D01*
Y381148D01*
X45688Y379280D01*
X48658Y382250D01*
X45688Y385220D01*
D02*
G37*
G36*
X90375Y377302D02*
X88125D01*
X87483Y377175D01*
X86750Y376885D01*
X86017Y377175D01*
X85375Y377302D01*
X83125D01*
X82483Y377175D01*
X81750Y376885D01*
X81017Y377175D01*
X80375Y377302D01*
X78125D01*
X77483Y377175D01*
X76750Y376885D01*
X76017Y377175D01*
X75375Y377302D01*
X73125D01*
X72483Y377175D01*
X71750Y376885D01*
X71017Y377175D01*
X70375Y377302D01*
X68125D01*
X67483Y377175D01*
X66750Y376885D01*
X66017Y377175D01*
X65375Y377302D01*
X63125D01*
X62483Y377175D01*
X61750Y376885D01*
X61017Y377175D01*
X60375Y377302D01*
X58125D01*
X57483Y377175D01*
X56939Y376811D01*
X56575Y376267D01*
X56448Y375625D01*
Y369375D01*
X56575Y368733D01*
X56939Y368189D01*
X57483Y367826D01*
X58066Y367710D01*
X58160Y367553D01*
X58214Y367332D01*
X74250Y351296D01*
X90286Y367332D01*
X90340Y367553D01*
X90434Y367710D01*
X91017Y367826D01*
X91561Y368189D01*
X91925Y368733D01*
X92052Y369375D01*
Y375625D01*
X91925Y376267D01*
X91561Y376811D01*
X91017Y377175D01*
X90375Y377302D01*
D02*
G37*
G36*
X50454Y380454D02*
X47484Y377484D01*
X49352Y376710D01*
X51556D01*
X53424Y377484D01*
X50454Y380454D01*
D02*
G37*
G36*
X111687Y363101D02*
X107312D01*
X106172Y362874D01*
X109500Y359546D01*
X112828Y362874D01*
X111687Y363101D01*
D02*
G37*
G36*
X109500Y358750D02*
X109000Y358250D01*
X109500Y357750D01*
X110000Y358250D01*
X109500Y358750D01*
D02*
G37*
G36*
X114624Y361078D02*
X111796Y358250D01*
X114624Y355422D01*
X114851Y356562D01*
Y359938D01*
X114624Y361078D01*
D02*
G37*
G36*
X104376Y361078D02*
X104149Y359938D01*
Y356562D01*
X104376Y355422D01*
X107204Y358250D01*
X104376Y361078D01*
D02*
G37*
G36*
X109500Y356954D02*
X106172Y353626D01*
X107312Y353399D01*
X111687D01*
X112828Y353626D01*
X109500Y356954D01*
D02*
G37*
G36*
X148168Y269954D02*
X145964D01*
X144096Y269180D01*
X147066Y266210D01*
X150036Y269180D01*
X148168Y269954D01*
D02*
G37*
G36*
X150562Y183056D02*
X147592Y180086D01*
X150562Y177116D01*
X151336Y178984D01*
Y181188D01*
X150562Y183056D01*
D02*
G37*
G36*
X145796Y178290D02*
X142826Y175320D01*
X144694Y174546D01*
X146898D01*
X148766Y175320D01*
X145796Y178290D01*
D02*
G37*
G36*
X147272Y170183D02*
X141272D01*
X139891Y169909D01*
X139796Y169846D01*
X144272Y165370D01*
X148748Y169846D01*
X148653Y169909D01*
X147272Y170183D01*
D02*
G37*
G36*
X90500Y176569D02*
X78500D01*
X77517Y176374D01*
X76683Y175817D01*
X76126Y174983D01*
X75931Y174000D01*
Y166500D01*
X76126Y165517D01*
X76683Y164683D01*
X77517Y164126D01*
X78500Y163931D01*
X88354D01*
X89893Y162393D01*
X90974Y161670D01*
X92036Y161459D01*
X92227Y161376D01*
X93612Y161352D01*
X94667Y161285D01*
X95045Y161241D01*
X95337Y161190D01*
X95512Y161146D01*
X95539Y161135D01*
X95582Y161108D01*
X95634Y161099D01*
X95668Y161086D01*
X95668D01*
X95815Y161025D01*
X96097Y160836D01*
X96171Y160822D01*
X96220Y160793D01*
X96260Y160804D01*
X96812Y160694D01*
X100188D01*
X100903Y160836D01*
X101509Y161241D01*
X101914Y161847D01*
X102056Y162563D01*
Y166938D01*
X101914Y167652D01*
X101509Y168259D01*
X100903Y168664D01*
X100188Y168806D01*
X96812D01*
X96260Y168696D01*
X96220Y168707D01*
X96171Y168678D01*
X96097Y168664D01*
X95815Y168475D01*
X95668Y168414D01*
X95668D01*
X95634Y168401D01*
X95582Y168392D01*
X95539Y168365D01*
X95512Y168354D01*
X95336Y168310D01*
X95082Y168266D01*
X94158Y168207D01*
X93069Y169241D01*
Y174000D01*
X92874Y174983D01*
X92317Y175817D01*
X91483Y176374D01*
X90500Y176569D01*
D02*
G37*
G36*
X138000Y168050D02*
X137937Y167955D01*
X137663Y166574D01*
Y160574D01*
X137937Y159193D01*
X138000Y159099D01*
X142476Y163574D01*
X138000Y168050D01*
D02*
G37*
G36*
X150544D02*
X146068Y163574D01*
X150544Y159098D01*
X150607Y159193D01*
X150881Y160574D01*
Y166574D01*
X150607Y167955D01*
X150544Y168050D01*
D02*
G37*
G36*
X144272Y161778D02*
X139796Y157302D01*
X139891Y157239D01*
X141272Y156965D01*
X147272D01*
X148653Y157239D01*
X148748Y157302D01*
X144272Y161778D01*
D02*
G37*
G36*
X109484Y156970D02*
X108710Y155102D01*
Y152898D01*
X109484Y151030D01*
X112454Y154000D01*
X109484Y156970D01*
D02*
G37*
G36*
X155335Y122269D02*
X155065Y122000D01*
X153415Y119140D01*
X152560Y115951D01*
Y112649D01*
X153415Y109460D01*
X155065Y106600D01*
X155335Y106331D01*
X163304Y114300D01*
X155335Y122269D01*
D02*
G37*
G36*
X147000Y110859D02*
X141000D01*
X139619Y110585D01*
X139524Y110522D01*
X144000Y106046D01*
X148476Y110522D01*
X148381Y110585D01*
X147000Y110859D01*
D02*
G37*
G36*
X70102Y105290D02*
X67898D01*
X66030Y104516D01*
X69000Y101546D01*
X71970Y104516D01*
X70102Y105290D01*
D02*
G37*
G36*
X150272Y108726D02*
X145796Y104250D01*
X150272Y99775D01*
X150335Y99869D01*
X150609Y101250D01*
Y107250D01*
X150335Y108631D01*
X150272Y108726D01*
D02*
G37*
G36*
X64234Y102720D02*
X63460Y100852D01*
Y98648D01*
X64234Y96780D01*
X67204Y99750D01*
X64234Y102720D01*
D02*
G37*
%LPD*%
G36*
X96405Y162155D02*
X96319Y162268D01*
X96160Y162369D01*
X95928Y162459D01*
X95622Y162536D01*
X95243Y162601D01*
X94791Y162655D01*
X93667Y162726D01*
X92250Y162750D01*
Y166750D01*
X92995Y166756D01*
X95243Y166899D01*
X95622Y166964D01*
X95928Y167041D01*
X96160Y167131D01*
X96319Y167232D01*
X96405Y167345D01*
Y162155D01*
D02*
G37*
%LPC*%
G36*
X29263Y156091D02*
X29173Y155955D01*
X28888Y154525D01*
Y147775D01*
X29173Y146345D01*
X29263Y146209D01*
X34204Y151150D01*
X29263Y156091D01*
D02*
G37*
G36*
X44500Y92319D02*
X32500D01*
X31517Y92124D01*
X30683Y91567D01*
X30126Y90733D01*
X29931Y89750D01*
Y82250D01*
X30126Y81267D01*
X30683Y80433D01*
X31517Y79876D01*
X32500Y79681D01*
X44500D01*
X45483Y79876D01*
X46317Y80433D01*
X46874Y81267D01*
X47069Y82250D01*
Y89750D01*
X46874Y90733D01*
X46317Y91567D01*
X45483Y92124D01*
X44500Y92319D01*
D02*
G37*
G36*
X22965Y71469D02*
X21158Y69662D01*
X21365Y69451D01*
X22215Y68674D01*
X23062Y67989D01*
X23908Y67395D01*
X24752Y66892D01*
X25594Y66481D01*
X26434Y66161D01*
X27272Y65933D01*
X27864Y65836D01*
X28465Y65919D01*
X29087Y66051D01*
X29652Y66220D01*
X30160Y66427D01*
X30611Y66671D01*
X30711Y66743D01*
X29048Y68406D01*
X28930Y68229D01*
X28763Y67389D01*
X28747Y67384D01*
X28228Y67274D01*
X27881Y67226D01*
X27565Y67278D01*
X26860Y67470D01*
X26141Y67744D01*
X25406Y68102D01*
X24822Y68451D01*
X23235Y71200D01*
X22965Y71469D01*
D02*
G37*
G36*
X31621Y65833D02*
Y60167D01*
X34454Y63000D01*
X31621Y65833D01*
D02*
G37*
G36*
X20481Y68985D02*
X14996Y63500D01*
X20213Y58283D01*
X20481Y68985D01*
D02*
G37*
G36*
X27675Y60655D02*
X27160Y60573D01*
X26319Y60352D01*
X25468Y60042D01*
X24607Y59643D01*
X23738Y59156D01*
X22858Y58581D01*
X21970Y57917D01*
X21213Y57283D01*
X22965Y55531D01*
X23235Y55800D01*
X24513Y58015D01*
X25233Y58418D01*
X25993Y58770D01*
X26729Y59038D01*
X27444Y59226D01*
X27660Y59261D01*
X28016Y59195D01*
X28496Y59062D01*
X28688Y58989D01*
X28930Y57771D01*
X29048Y57594D01*
X30780Y59326D01*
X30470Y59584D01*
X29999Y59893D01*
X29485Y60155D01*
X28926Y60369D01*
X28325Y60536D01*
X27679Y60655D01*
X27675Y60655D01*
D02*
G37*
G36*
X33106Y28146D02*
X30902D01*
X29034Y27372D01*
X32004Y24402D01*
X34974Y27372D01*
X33106Y28146D01*
D02*
G37*
G36*
X36770Y25576D02*
X33800Y22606D01*
X36770Y19636D01*
X37544Y21504D01*
Y23708D01*
X36770Y25576D01*
D02*
G37*
G36*
X27238D02*
X26464Y23708D01*
Y21504D01*
X27238Y19636D01*
X30208Y22606D01*
X27238Y25576D01*
D02*
G37*
G36*
X32004Y20810D02*
X29034Y17840D01*
X30902Y17066D01*
X33106D01*
X34974Y17840D01*
X32004Y20810D01*
D02*
G37*
G36*
X145852Y13540D02*
X143648D01*
X141780Y12766D01*
X144750Y9796D01*
X147720Y12766D01*
X145852Y13540D01*
D02*
G37*
G36*
X114300Y40064D02*
X107215Y32979D01*
X107368Y32826D01*
X109942Y31339D01*
X112814Y30570D01*
X115786D01*
X118658Y31339D01*
X121232Y32826D01*
X121385Y32979D01*
X114300Y40064D01*
D02*
G37*
%LPD*%
D12*
X50292Y278130D02*
X52412Y280250D01*
X59500D01*
X68100D02*
X69712Y278638D01*
X73660D02*
X76750Y275548D01*
X69712Y278638D02*
X73660D01*
X76750Y270063D02*
Y275548D01*
X68100Y280250D02*
X72350Y284500D01*
X59500Y262200D02*
X60248Y261452D01*
X27432Y205232D02*
Y217722D01*
X12700Y190500D02*
X27432Y205232D01*
X27500Y200500D02*
X32952Y205952D01*
Y221451D01*
X26412Y224160D02*
X27432Y225180D01*
Y225182D01*
X30293Y228043D01*
X26412Y218742D02*
X27432Y217722D01*
X26412Y218742D02*
Y224160D01*
X30293Y228043D02*
X35714D01*
X108500Y164750D02*
X111000Y167250D01*
X123562D01*
X28779Y232500D02*
X35881D01*
X22658Y236000D02*
X37006D01*
X41987Y221770D02*
X66381D01*
X35714Y228043D02*
X41987Y221770D01*
X44406Y228600D02*
X59223D01*
X37006Y236000D02*
X44406Y228600D01*
X43083Y225298D02*
X62838D01*
X35881Y232500D02*
X43083Y225298D01*
X33902Y220606D02*
X38020D01*
X33274Y221234D02*
X33902Y220606D01*
X32766Y283210D02*
Y321984D01*
Y283210D02*
X45476Y270500D01*
X12700Y342050D02*
X32766Y321984D01*
X29464Y270286D02*
Y300736D01*
X25541Y304659D02*
X29464Y300736D01*
Y270286D02*
X47718Y252032D01*
X12700Y292100D02*
X26162Y278638D01*
Y268838D02*
X46334Y248666D01*
X26162Y268838D02*
Y278638D01*
X45476Y270500D02*
X59200D01*
X101781Y52781D02*
X109250Y60250D01*
Y60750D01*
X101600Y52781D02*
X101781D01*
X100631Y53750D02*
X101600Y52781D01*
X75500Y53750D02*
X100631D01*
X27500Y187892D02*
X34036Y181356D01*
X52644D01*
X27500Y187892D02*
Y200500D01*
X25541Y304659D02*
Y304659D01*
X12700Y317500D02*
X25541Y304659D01*
X146062Y189750D02*
X164350D01*
X123562Y167250D02*
X146062Y189750D01*
X38020Y220606D02*
X40338Y218288D01*
X70188D01*
X41402Y211328D02*
X41656Y211074D01*
X41754D02*
X68580D01*
X41500Y211328D02*
X41754Y211074D01*
X68580D02*
X68834Y210820D01*
X69916D02*
X71612Y212515D01*
X71622D01*
X68834Y210820D02*
X69916D01*
X66381Y221770D02*
X69835Y225224D01*
X62918Y232295D02*
X62982D01*
X62838Y225298D02*
X66299Y228759D01*
X59223Y228600D02*
X62918Y232295D01*
X70188Y218288D02*
X73589Y221688D01*
X69835Y225224D02*
X70188D01*
X93169Y210728D02*
X96460Y207438D01*
Y200540D02*
X97000Y200000D01*
X93169Y210728D02*
Y211082D01*
X96460Y200540D02*
Y207438D01*
X103776Y221553D02*
X107823Y217506D01*
Y213254D02*
Y217506D01*
X108250Y214111D02*
X114750Y220611D01*
X103776Y221553D02*
Y221688D01*
X88750Y226250D02*
X92143D01*
X100240Y218153D01*
X73589Y221688D02*
X73724D01*
X66299Y228759D02*
X66653D01*
X46250Y243750D02*
X51663D01*
X59582Y235831D01*
Y235831D02*
Y235831D01*
X117485Y263735D02*
X118250Y264500D01*
X70224Y255276D02*
X77500Y248000D01*
X71622Y212515D02*
X77259Y218153D01*
X62545Y255494D02*
X66299Y251740D01*
X115770Y263735D02*
X117485D01*
X88750Y240250D02*
X88750D01*
X109750Y281668D02*
Y282750D01*
X95750Y233250D02*
Y233250D01*
X70765Y268841D02*
Y271235D01*
X102235Y207265D02*
X103000Y206500D01*
X88485Y205515D02*
X89250Y204750D01*
X111750Y269000D02*
X116250Y273500D01*
X107312Y255276D02*
X115770Y263735D01*
X70188Y255276D02*
X70224D01*
X111750Y266786D02*
Y269000D01*
X110847Y228759D02*
X114750Y224857D01*
X108250Y213750D02*
Y214111D01*
X100240Y262347D02*
X112000Y274107D01*
X41500Y202750D02*
X72428D01*
X88750Y240250D02*
X95750Y247250D01*
X70765Y268841D02*
X77259Y262347D01*
X102235Y207265D02*
Y209088D01*
X116250Y273500D02*
X119000D01*
X96705Y214617D02*
X102235Y209088D01*
X100240Y262347D02*
X100240D01*
X103776Y258812D02*
X111750Y266786D01*
X114750Y220611D02*
Y224857D01*
X75925Y205165D02*
Y209747D01*
X112000Y274107D02*
Y275750D01*
X118500Y282250D01*
X119250D01*
X96705Y265883D02*
X100822Y270000D01*
X102250Y270000D01*
X106250Y274000D01*
X106250Y278168D02*
X106250Y274000D01*
X106250Y278168D02*
X109750Y281668D01*
X93169Y269418D02*
X93169Y269554D01*
X99500Y275884D01*
X99500Y276750D02*
X99500Y275884D01*
X70000Y272000D02*
X70765Y271235D01*
X83788Y269961D02*
X84331Y269418D01*
X83788Y269961D02*
Y270288D01*
X91750Y278250D01*
X84331Y211082D02*
X88485Y206928D01*
X91750Y278250D02*
Y292750D01*
X51308Y258572D02*
X52390D01*
X55468Y255494D01*
X62545D01*
X66299Y251740D02*
X66653D01*
X74843Y205165D02*
X75925D01*
X72428Y202750D02*
X74843Y205165D01*
X75925D02*
X75925Y205165D01*
Y209747D02*
X80795Y214617D01*
X88485Y205515D02*
Y206928D01*
X62764Y248205D02*
X63117D01*
X47718Y252032D02*
X58937D01*
X62764Y248205D01*
X46334Y248666D02*
X55585D01*
X59582Y244669D01*
X24262Y265738D02*
X46250Y243750D01*
X44332Y343000D02*
X45832Y344500D01*
X42750Y352000D02*
X43263D01*
X43250Y343000D02*
X44332D01*
X45708Y349556D02*
X51195D01*
X45832Y344500D02*
X51250D01*
X43263Y352000D02*
X45708Y349556D01*
X51195D02*
X51250Y349500D01*
X81700Y284500D02*
X83450Y286250D01*
X72350Y284500D02*
X81700D01*
X76750Y270063D02*
X80795Y266018D01*
Y265883D02*
Y266018D01*
X97250Y339500D02*
X97441Y339691D01*
X108941D02*
X109500Y340250D01*
X97441Y339691D02*
X108941D01*
X97441Y349309D02*
X108441D01*
X97250Y349500D02*
X97441Y349309D01*
X108441D02*
X109500Y348250D01*
X136649Y97031D02*
Y98601D01*
X138179Y98429D02*
X144000Y104250D01*
X137414Y96266D02*
X138179Y97031D01*
Y98429D01*
X131000Y104250D02*
X136649Y98601D01*
Y97031D02*
X137414Y96266D01*
X59200Y270500D02*
X59500Y270800D01*
X165100Y215900D02*
Y219900D01*
X71330Y261205D02*
X73724Y258812D01*
X59500Y270500D02*
X61262Y268738D01*
X64012D01*
X71330Y261420D01*
Y261205D02*
Y261420D01*
X117918Y244669D02*
X123999Y250750D01*
X150000D01*
X120428Y254250D02*
X152150D01*
X114383Y248205D02*
X120428Y254250D01*
X116857Y257750D02*
X156150D01*
X110847Y251740D02*
X116857Y257750D01*
X60248Y261452D02*
X64012D01*
X70188Y255276D01*
X89250Y324542D02*
X90750Y323042D01*
X89250Y324542D02*
Y326500D01*
X90750Y315300D02*
X92500Y313550D01*
X90750Y315300D02*
Y323042D01*
X164350Y189750D02*
X165100Y190500D01*
X13662Y265738D02*
X24262D01*
X12700Y266700D02*
X13662Y265738D01*
X12700Y241300D02*
X17358D01*
X22658Y236000D01*
X12700Y216422D02*
X28779Y232500D01*
X152150Y254250D02*
X165100Y241300D01*
X156150Y257750D02*
X165100Y266700D01*
X12700Y215900D02*
Y216422D01*
X35800Y334500D02*
X51250D01*
X35750Y334450D02*
X35800Y334500D01*
X12700Y342050D02*
Y342900D01*
X164876Y292100D02*
X165100D01*
D13*
X129144Y226401D02*
G03*
X129144Y224605I898J-898D01*
G01*
X130631Y227889D02*
G03*
X130631Y229685I-898J898D01*
G01*
X130631Y229685D02*
G03*
X128835Y229685I-898J-898D01*
G01*
X122438Y225084D02*
G03*
X124234Y225084I898J898D01*
G01*
X122438Y226880D02*
G03*
X122438Y225084I898J-898D01*
G01*
X123755Y228197D02*
G03*
X123755Y229993I-898J898D01*
G01*
X131000Y221424D02*
Y222749D01*
X129144Y224605D02*
X131000Y222749D01*
X129144Y226401D02*
X130631Y227889D01*
X130631Y229685D02*
X130631Y229685D01*
X124234Y225084D02*
X128835Y229685D01*
X122438Y225084D02*
X122438Y225084D01*
X122438Y225084D02*
X122438Y225084D01*
X122438D02*
X122438Y225084D01*
Y226880D02*
Y226880D01*
X123755Y228197D01*
X123755Y229993D02*
X123755Y229993D01*
X118367Y235382D02*
X123755Y229993D01*
X117918Y235831D02*
X118367Y235382D01*
X125691Y216001D02*
X131000Y221310D01*
X125691Y211891D02*
Y216001D01*
X131000Y221310D02*
Y221424D01*
X104255Y76244D02*
X106335Y74164D01*
X109122Y88135D02*
X115885D01*
X117500Y89750D01*
X104255Y83268D02*
X109122Y88135D01*
X106335Y72715D02*
X108800Y70250D01*
X104255Y76244D02*
Y83268D01*
X106335Y72715D02*
Y74164D01*
X84797Y322112D02*
Y325953D01*
X86500Y314750D02*
Y320409D01*
X84250Y326500D02*
X84797Y325953D01*
Y322112D02*
X86500Y320409D01*
X53250Y328500D02*
X74250Y349500D01*
X152250Y228750D02*
Y248500D01*
Y228750D02*
X165100Y215900D01*
Y215900D02*
Y215900D01*
X84565Y312815D02*
X86500Y314750D01*
X84565Y310115D02*
Y312815D01*
X82000Y307550D02*
X84565Y310115D01*
X114500Y212750D02*
X119000Y217250D01*
Y227678D01*
X114383Y232295D02*
X119000Y227678D01*
X150000Y250750D02*
X152250Y248500D01*
X114500Y210250D02*
X123039Y201711D01*
Y193284D02*
Y201711D01*
X123000Y193245D02*
X123039Y193284D01*
X114500Y210250D02*
Y212750D01*
D47*
X132250Y371250D02*
D03*
Y329250D02*
D03*
D48*
X46750Y290500D02*
D03*
Y309500D02*
D03*
X68750D02*
D03*
D49*
Y292500D02*
D03*
D50*
X59900Y418500D02*
D03*
X117900D02*
D03*
D51*
X78900D02*
D03*
X98900D02*
D03*
D52*
X75900Y391500D02*
D03*
X82400D02*
D03*
X88900D02*
D03*
X95400D02*
D03*
X101900D02*
D03*
D53*
X88750Y240250D02*
D03*
D54*
X59500Y280250D02*
D03*
X68100D02*
D03*
X100200Y70250D02*
D03*
X108800D02*
D03*
D55*
X59500Y270800D02*
D03*
Y262200D02*
D03*
X145750Y235200D02*
D03*
Y243800D02*
D03*
X135750D02*
D03*
Y235200D02*
D03*
X34500Y334450D02*
D03*
Y343050D02*
D03*
X102000Y313550D02*
D03*
Y304950D02*
D03*
X83000Y307550D02*
D03*
Y298950D02*
D03*
X92500Y313550D02*
D03*
Y304950D02*
D03*
D56*
X84500Y193250D02*
D03*
X38477Y193194D02*
D03*
X84500Y170250D02*
D03*
X38500D02*
D03*
Y63000D02*
D03*
X84500Y86000D02*
D03*
X38500D02*
D03*
X84523Y63056D02*
D03*
D57*
X144250Y120500D02*
D03*
X36000Y380000D02*
D03*
Y365000D02*
D03*
X144250Y135500D02*
D03*
X128000Y75250D02*
D03*
X144000D02*
D03*
X117500Y102750D02*
D03*
Y89750D02*
D03*
X144000Y60250D02*
D03*
X128000D02*
D03*
X113000Y313750D02*
D03*
Y300750D02*
D03*
D58*
X100850Y128250D02*
D03*
D59*
X42250Y105350D02*
D03*
Y128250D02*
D03*
Y151150D02*
D03*
D60*
X110488Y196688D02*
D03*
X121802Y185375D02*
D03*
X138065Y201638D02*
D03*
X126752Y212952D02*
D03*
D61*
X84331Y211082D02*
D03*
X80795Y214617D02*
D03*
X77259Y218153D02*
D03*
X73724Y221688D02*
D03*
X70188Y225224D02*
D03*
X66653Y228759D02*
D03*
X63117Y232295D02*
D03*
X59582Y235831D02*
D03*
X93169Y269418D02*
D03*
X96705Y265883D02*
D03*
X100240Y262347D02*
D03*
X103776Y258812D02*
D03*
X107312Y255276D02*
D03*
X110847Y251740D02*
D03*
X114383Y248205D02*
D03*
X117918Y244669D02*
D03*
D62*
X59582D02*
D03*
X63117Y248205D02*
D03*
X66653Y251740D02*
D03*
X73724Y258812D02*
D03*
X77259Y262347D02*
D03*
X84331Y269418D02*
D03*
X117918Y235831D02*
D03*
X114383Y232295D02*
D03*
X110847Y228759D02*
D03*
X103776Y221688D02*
D03*
X96705Y214617D02*
D03*
X93169Y211082D02*
D03*
X70188Y255276D02*
D03*
X107312Y225224D02*
D03*
X100240Y218153D02*
D03*
X80795Y265883D02*
D03*
D63*
X79250Y326500D02*
D03*
X59250D02*
D03*
X64250D02*
D03*
X69250D02*
D03*
X74250D02*
D03*
X84250D02*
D03*
X89250D02*
D03*
Y372500D02*
D03*
X84250D02*
D03*
X79250D02*
D03*
X74250D02*
D03*
X69250D02*
D03*
X64250D02*
D03*
X59250D02*
D03*
D64*
X97250Y334500D02*
D03*
Y344500D02*
D03*
Y354500D02*
D03*
Y359500D02*
D03*
Y364500D02*
D03*
X51250D02*
D03*
Y359500D02*
D03*
Y354500D02*
D03*
Y349500D02*
D03*
Y344500D02*
D03*
Y339500D02*
D03*
Y334500D02*
D03*
X97250Y349500D02*
D03*
Y339500D02*
D03*
D65*
X74250Y349500D02*
D03*
D66*
X53250Y328500D02*
D03*
D67*
X144272Y163574D02*
D03*
Y147574D02*
D03*
X36000Y408000D02*
D03*
Y392000D02*
D03*
X131000Y88250D02*
D03*
X144000Y88250D02*
D03*
X131000Y104250D02*
D03*
X144000Y104250D02*
D03*
D68*
X83450Y286250D02*
D03*
X100050D02*
D03*
D69*
X138559Y220631D02*
D03*
X144641Y214550D02*
D03*
X102559Y183631D02*
D03*
X108641Y177549D02*
D03*
D70*
X98500Y164750D02*
D03*
X99250Y60750D02*
D03*
X109250D02*
D03*
X109140Y79756D02*
D03*
X99140D02*
D03*
X108500Y164750D02*
D03*
D71*
X109500Y340250D02*
D03*
Y348250D02*
D03*
Y330250D02*
D03*
Y358250D02*
D03*
D72*
X131572Y307906D02*
D03*
Y283406D02*
D03*
X125250Y154000D02*
D03*
Y129500D02*
D03*
D73*
X59500Y280250D02*
Y285500D01*
X49530Y74250D02*
X58250Y82970D01*
Y175750D01*
X27350Y74250D02*
X49530D01*
X12700Y88900D02*
X27350Y74250D01*
X49530Y34726D02*
Y74250D01*
Y34726D02*
X54756Y29500D01*
X101260D01*
X63500Y41860D02*
X63610D01*
X135394Y54356D02*
X135890D01*
X131000Y58750D02*
X135394Y54356D01*
X131000Y58750D02*
Y58750D01*
X130000Y59750D02*
X131000Y58750D01*
X146959Y56501D02*
Y58750D01*
X143000Y59750D02*
X145959D01*
X146959Y56501D02*
X165100Y38360D01*
X145959Y59750D02*
X146959Y58750D01*
X141000Y61750D02*
Y62500D01*
X136000Y67500D02*
X136000D01*
X141000Y62500D01*
Y61750D02*
X143000Y59750D01*
X52644Y181356D02*
X58250Y175750D01*
X114300Y16460D02*
X127762Y29922D01*
X120000Y56388D02*
X127762Y48626D01*
Y29922D02*
Y48626D01*
X50500Y316188D02*
X54000Y319688D01*
X50500Y310250D02*
Y316188D01*
X54000Y319688D02*
Y320500D01*
X101900Y380492D02*
Y391500D01*
X113000Y313750D02*
X131512D01*
X131929Y214000D02*
X138559Y220631D01*
X130000Y214000D02*
X131929D01*
X95750Y328000D02*
Y328812D01*
X97250Y330312D01*
Y334500D02*
X97250D01*
X97250Y330312D02*
Y334500D01*
X110135Y196123D02*
Y196335D01*
X102347Y183843D02*
X102559Y183631D01*
X102347Y188335D02*
X110135Y196123D01*
X102347Y183843D02*
Y188335D01*
X109250Y79750D02*
X109923Y79077D01*
X113019D01*
X114096Y78000D01*
X118500D01*
X30164Y347686D02*
Y351086D01*
Y347686D02*
X34500Y343350D01*
Y343050D02*
Y343350D01*
X30000Y351250D02*
X30164Y351086D01*
X145750Y235950D02*
X146500Y235200D01*
X84523Y63056D02*
Y73747D01*
X84520Y73750D02*
X84523Y73747D01*
X118500Y77188D02*
Y78000D01*
X120000Y75249D02*
Y75688D01*
X120000Y56388D02*
Y75249D01*
X118500Y77188D02*
X120000Y75688D01*
Y75249D02*
X120000Y75249D01*
X75900Y391500D02*
Y399400D01*
X79250Y402750D01*
X102000Y304950D02*
X107970D01*
X108641Y177549D02*
X116112Y185021D01*
X121448D01*
X63610Y41860D02*
X75500Y53750D01*
X59500Y285500D02*
X66750Y292750D01*
X82212Y391688D02*
X82400Y391500D01*
X79250Y402750D02*
X79824Y402176D01*
X109221Y303029D02*
X111500Y300750D01*
X113000D01*
X109221Y303029D02*
Y303699D01*
X107970Y304950D02*
X109221Y303699D01*
X36450Y88300D02*
X38750Y86000D01*
X101260Y29500D02*
X114300Y16460D01*
X144853Y208426D02*
Y214337D01*
X137005Y200578D02*
X144853Y208426D01*
X137005Y200578D02*
Y200578D01*
D74*
X12950Y63250D02*
X38250D01*
X12700Y63500D02*
X12950Y63250D01*
X38250D02*
X38500Y63000D01*
X128000Y75250D02*
X131000Y78250D01*
Y88250D01*
X42250Y105350D02*
Y116078D01*
X108151Y371250D02*
X132250D01*
X131572Y307906D02*
X144780Y294698D01*
Y279654D02*
Y294698D01*
X127529Y235200D02*
X145750D01*
X126746Y235712D02*
X127017D01*
X127529Y235200D01*
X144853Y214337D02*
Y215327D01*
X99818Y297110D02*
X100062D01*
X99613Y296905D02*
X99818Y297110D01*
X100062D02*
X102000Y299048D01*
X128401Y243800D02*
X135750D01*
X127991Y244210D02*
X128401Y243800D01*
X36000Y380000D02*
Y392000D01*
X144000Y75250D02*
Y88250D01*
X114250Y154000D02*
X125250D01*
X125250Y154000D01*
X102000Y299048D02*
Y304950D01*
X127720Y244210D02*
X127991D01*
X147797Y218554D02*
Y222283D01*
X147441Y222638D02*
Y224309D01*
X144711Y215469D02*
X147797Y218554D01*
X144711Y215469D02*
X144853Y215327D01*
X147441Y222638D02*
X147797Y222283D01*
X147250Y224500D02*
X147441Y224309D01*
X145750Y226271D02*
X147250Y224771D01*
Y224500D02*
Y224771D01*
X145750Y226271D02*
Y235200D01*
X135750Y243800D02*
X145750D01*
D75*
X163450Y139700D02*
X165100D01*
X144250Y120500D02*
X163450Y139700D01*
X42250Y151150D02*
X44750D01*
X47250Y148650D01*
Y139250D02*
Y148650D01*
X101900Y377501D02*
X108151Y371250D01*
X101900Y377501D02*
Y380492D01*
X131572Y264414D02*
Y283406D01*
Y304406D02*
Y307906D01*
X107550Y293750D02*
X120916D01*
X131572Y304406D01*
X100050Y286950D02*
X102050Y288950D01*
X102750D01*
X107550Y293750D01*
X100050Y286250D02*
Y286950D01*
X109500Y322500D02*
X109500D01*
X113000Y313750D02*
Y319000D01*
X109500Y322500D02*
X113000Y319000D01*
X70750Y292500D02*
X74986Y296737D01*
Y297407D02*
X76530Y298950D01*
X68750Y292500D02*
X70750D01*
X74986Y296737D02*
Y297407D01*
X76530Y298950D02*
X83000D01*
X84500Y170250D02*
X86750D01*
X92250Y164750D02*
X98500D01*
X86750Y170250D02*
X92250Y164750D01*
X116000Y103750D02*
X117500D01*
X92000Y313550D02*
X102000D01*
X104000Y102750D02*
X115000D01*
X116000Y103750D01*
X82750Y102750D02*
X104000D01*
X73250Y93250D02*
X82750Y102750D01*
X88000Y83000D02*
X96250D01*
X98750Y80500D01*
X99250D01*
X99500Y80250D01*
Y79750D02*
Y80250D01*
Y79750D02*
X99500Y79750D01*
Y70950D02*
X100200Y70250D01*
X99500Y70950D02*
Y79750D01*
Y69550D02*
X100200Y70250D01*
X99500Y60750D02*
Y69550D01*
X117500Y103750D02*
X117726Y103976D01*
Y108476D02*
X125250Y116000D01*
X117726Y103976D02*
Y108476D01*
X36000Y358000D02*
Y365000D01*
X73250Y56000D02*
X75500Y53750D01*
X92500Y304950D02*
X92500Y304950D01*
X91300Y302882D02*
Y304250D01*
X92000Y304950D01*
X83258Y299508D02*
X87927D01*
X91300Y302882D01*
X73250Y56000D02*
Y93250D01*
X125250Y116000D02*
Y129500D01*
X85000Y86000D02*
X88000Y83000D01*
X109500Y322500D02*
Y330250D01*
X102100Y313650D02*
X112900D01*
X102000Y313550D02*
X102100Y313650D01*
D76*
X57500Y301250D02*
Y314500D01*
X61000Y318000D01*
X71250D01*
X79325Y318465D02*
Y326425D01*
X79250Y326500D02*
X79325Y326425D01*
Y318465D02*
X79790Y318000D01*
X79141Y317351D02*
X79790Y318000D01*
X79141Y315641D02*
Y317351D01*
X74055Y326305D02*
X74250Y326500D01*
X74055Y323370D02*
Y326305D01*
X74055Y323370D02*
X74055Y323370D01*
X74055Y321851D02*
Y323370D01*
X72729Y320525D02*
X74055Y321851D01*
X72729Y320397D02*
Y320525D01*
X71250Y318917D02*
X72729Y320397D01*
X71250Y318000D02*
Y318917D01*
X46750Y290500D02*
X57500Y301250D01*
X95400Y391500D02*
X95412Y391512D01*
Y400825D01*
X88888Y391512D02*
Y400825D01*
Y391512D02*
X88900Y391500D01*
D77*
X73000Y309500D02*
X79141Y315641D01*
X68750Y309500D02*
X73000D01*
D78*
X131572Y313690D02*
Y328572D01*
X132250Y329250D01*
D79*
X144250Y135500D02*
Y147574D01*
X26650Y128250D02*
X42250D01*
X12700Y114300D02*
X26650Y128250D01*
D80*
X102100Y129500D02*
X125250D01*
X53900Y418500D02*
X59900D01*
X98900D02*
X117900D01*
X78900D02*
X98900D01*
X117900D02*
X123900D01*
X59900D02*
X78900D01*
X53900Y400250D02*
X63900Y390250D01*
X113900D02*
X123900Y400250D01*
X53900D02*
Y417250D01*
X123900Y400250D02*
Y417250D01*
D81*
X92500Y304950D02*
X101533D01*
D82*
X102892Y229643D02*
D03*
D83*
X69250Y331499D02*
D03*
D84*
X53900Y418500D02*
D03*
X123900D02*
D03*
D85*
X63900Y391500D02*
D03*
X113900D02*
D03*
D86*
X114300Y16460D02*
D03*
Y41860D02*
D03*
X88900Y16460D02*
D03*
Y41860D02*
D03*
X63500Y16460D02*
D03*
Y41860D02*
D03*
D87*
X165100Y215900D02*
D03*
Y241300D02*
D03*
Y190500D02*
D03*
Y165100D02*
D03*
Y139700D02*
D03*
Y114300D02*
D03*
Y88900D02*
D03*
Y63500D02*
D03*
Y266700D02*
D03*
Y292100D02*
D03*
Y317500D02*
D03*
Y342900D02*
D03*
Y368300D02*
D03*
Y393700D02*
D03*
Y38100D02*
D03*
X13200Y215900D02*
D03*
Y190500D02*
D03*
Y241300D02*
D03*
Y266700D02*
D03*
Y292100D02*
D03*
Y317500D02*
D03*
Y342900D02*
D03*
Y368300D02*
D03*
Y165100D02*
D03*
Y139700D02*
D03*
Y114300D02*
D03*
Y88900D02*
D03*
Y63500D02*
D03*
Y38100D02*
D03*
Y393700D02*
D03*
D88*
X50292Y278130D02*
D03*
X25654Y381000D02*
D03*
X32952Y221451D02*
D03*
X101600Y52781D02*
D03*
X135890Y54356D02*
D03*
X26162Y178562D02*
D03*
X54000Y320500D02*
D03*
X145796Y180086D02*
D03*
X147066Y264414D02*
D03*
X42250Y116078D02*
D03*
X47250Y139250D02*
D03*
X108151Y371250D02*
D03*
X131572Y264414D02*
D03*
X41500Y211328D02*
D03*
X68834Y210820D02*
D03*
X144780Y279654D02*
D03*
X126746Y235712D02*
D03*
X88750Y226250D02*
D03*
X118250Y264500D02*
D03*
X99500Y276750D02*
D03*
X88750Y254250D02*
D03*
X81750Y247250D02*
D03*
X95750Y247250D02*
D03*
X97000Y200000D02*
D03*
X74750Y240250D02*
D03*
X119000Y273500D02*
D03*
X91750Y292750D02*
D03*
X88750Y240250D02*
D03*
X119250Y282250D02*
D03*
X95750Y233250D02*
D03*
X108250Y213750D02*
D03*
X81750Y233250D02*
D03*
X102750Y240250D02*
D03*
X51308Y258572D02*
D03*
X103000Y206500D02*
D03*
X109750Y282750D02*
D03*
X88750Y275250D02*
D03*
X70000Y272000D02*
D03*
X41500Y202750D02*
D03*
X75925Y205165D02*
D03*
X89250Y204750D02*
D03*
X64250Y359500D02*
D03*
X79790Y318000D02*
D03*
X42750Y352000D02*
D03*
X74250Y349500D02*
D03*
X42750Y343000D02*
D03*
X64250Y349500D02*
D03*
X74250Y339500D02*
D03*
X64250Y339500D02*
D03*
X74250Y359500D02*
D03*
X95750Y328000D02*
D03*
X71250Y318000D02*
D03*
X147250Y224500D02*
D03*
X99613Y296905D02*
D03*
X69000Y99750D02*
D03*
X137500Y96266D02*
D03*
X30000Y352000D02*
D03*
X136000Y67500D02*
D03*
X114250Y154000D02*
D03*
X50454Y382250D02*
D03*
X127720Y244210D02*
D03*
X104000Y102750D02*
D03*
X32004Y22606D02*
D03*
X36000Y358000D02*
D03*
X144750Y8000D02*
D03*
X84520Y73750D02*
D03*
X79250Y402750D02*
D03*
X96420D02*
D03*
X87880D02*
D03*
X118500Y78000D02*
D03*
X109500Y322500D02*
D03*
D89*
X165100Y12700D02*
D03*
X12700Y419100D02*
D03*
Y12700D02*
D03*
X165100Y419100D02*
D03*
M02*
