M48
;Layer_Color=9474304
;FILE_FORMAT=4:4
METRIC,LZ
;TYPE=PLATED
T1F00S00C0.3000
T3F00S00C0.8500
T4F00S00C1.0000
T5F00S00C1.8000
%
T01
X00032004Y00022606
X001016Y00052781
X0013589Y00054356
X00136Y000675
X001185Y00078
X001375Y00096266
X00104Y0010275
X00069Y0009975
X0008452Y0007375
X0004225Y00116078
X0004725Y0013925
X00026162Y00178562
X000415Y0020275
Y00211328
X00032952Y00221451
X00068834Y0021082
X00075925Y00205165
X0008925Y0020475
X00097Y002
X00103Y002065
X0010825Y0021375
X0009575Y0023325
X0008875Y0022625
X0008175Y0023325
X0007475Y0024025
X0008175Y0024725
X0008875Y0025425
X0009575Y0024725
X0010275Y0024025
X0008875
Y0027525
X000995Y0027675
X0010975Y0028275
X0011925Y0028225
X00119Y002735
X0011825Y002645
X00131572Y00264414
X00147066
X0014478Y00279654
X0012772Y0024421
X00126746Y00235712
X0014725Y002245
X00145796Y00180086
X0011425Y00154
X00099613Y00296905
X0009175Y0029275
X0007979Y00318
X0007125
X00054Y003205
X0006425Y003395
X0006425Y003495
X0006425Y003595
X0007425Y003595
X0007425Y003495
X0007425Y003395
X0009575Y00328
X001095Y003225
X00108151Y0037125
X00050454Y0038225
X00025654Y00381
X0003Y00352
X00036Y00358
X0004275Y00352
Y00343
X00050292Y0027813
X00051308Y00258572
X0007Y00272
X0014475Y00008
X0009642Y0040275
X0008788
X0007925
T03
X000639Y003915
X001139
T04
X000132Y000381
Y000635
Y000889
Y001143
Y001397
Y001651
Y001905
Y002159
Y002413
Y002667
Y002921
Y003175
Y003429
Y003683
Y003937
X001651
Y003683
Y003429
Y003175
Y002921
Y002667
Y002413
Y002159
Y001905
Y001651
Y001397
Y001143
Y000889
Y000635
Y000381
X001143Y0004186
Y0001646
X000889
Y0004186
X000635
Y0001646
T05
X000127Y000127
X001651
Y004191
X000127
M30
